<svg width="20" height="20" viewBox="0 0 20 20" version="1.1" xmlns="http://www.w3.org/2000/svg"><title>activity-feed-trello</title><g id="Page-1" stroke="none" stroke-width="1" fill="none" fill-rule="evenodd"><g id="activity-feed-trello" fill="#FFF"><g id="Page-1"><g id="icon-application-trello"><g id="About-Us"><g id="About-Us---Desktop"><g id="Process"><g id="TRELLO-+-Rectangle-39-+-Rectangle-57"><path d="M0 2.802C0 1.254 1.25 0 2.802 0h14.396C18.746 0 20 1.25 20 2.802v14.396C20 18.746 18.75 20 17.198 20H2.802C1.254 20 0 18.75 0 17.198V2.802zm4 1.6C4 3.737 4.537 3.2 5.2 3.2h2.4c.663 0 1.2.537 1.2 1.2v11.2c0 .662-.537 1.2-1.2 1.2H5.2c-.663 0-1.2-.537-1.2-1.2V4.4zm7.2-.004c0-.662.537-1.198 1.2-1.198h2.4c.663 0 1.2.537 1.2 1.198v5.604c0 .662-.537 1.198-1.2 1.198h-2.4c-.663 0-1.2-.537-1.2-1.198V4.398z" id="Rectangle-57"/></g></g></g></g></g></g></g></g></svg>