<svg width="239" height="59" viewBox="0 0 239 59" version="1.1" xmlns="http://www.w3.org/2000/svg"><title>balsamiq-logo-noborder-screen</title><g id="Page-1" stroke="none" stroke-width="1" fill="none" fill-rule="evenodd"><g id="balsamiq-logo-noborder-screen" fill="#383838"><path d="M5.824 33.914c0 .704.128 1.408.256 2.048 1.087 3.903 4.35 6.592 8.447 6.592 5.888 0 9.408-4.8 9.408-11.904 0-6.207-3.2-11.52-9.216-11.52-3.84 0-7.425 2.625-8.576 6.912-.128.64-.32 1.41-.32 2.304v5.568zM0 46.33c.128-2.113.256-5.248.256-8V.893h5.568v19.454h.128c1.984-3.456 5.568-5.696 10.56-5.696 7.678 0 13.118 6.4 13.054 15.808 0 11.07-6.976 16.575-13.887 16.575-4.48 0-8.064-1.727-10.368-5.824H5.12l-.256 5.12H0z" id="Fill-1"/><path d="M51.876 30.522c-6.143-.127-13.12.96-13.12 6.976 0 3.648 2.433 5.375 5.313 5.375 4.03 0 6.59-2.56 7.486-5.183.192-.577.32-1.216.32-1.79V30.52zm.832 15.807l-.448-3.904h-.192c-1.728 2.43-5.055 4.607-9.47 4.607-6.273 0-9.473-4.416-9.473-8.895 0-7.488 6.656-11.583 18.623-11.52v-.64c0-2.56-.704-7.167-7.04-7.167-2.88 0-5.887.897-8.062 2.305l-1.28-3.712c2.56-1.664 6.27-2.752 10.174-2.752 9.472 0 11.776 6.465 11.776 12.672v11.584c0 2.688.128 5.31.512 7.423h-5.12z" id="Fill-2"/><path d="M64.78.893h5.63V46.33h-5.63V.893z" id="Fill-3"/><path d="M77.176 40.57c1.664 1.087 4.608 2.24 7.424 2.24 4.095 0 6.015-2.048 6.015-4.61 0-2.686-1.6-4.158-5.76-5.694-5.567-1.984-8.19-5.055-8.19-8.767 0-4.993 4.03-9.09 10.687-9.09 3.135 0 5.887.897 7.615 1.92l-1.408 4.097c-1.217-.768-3.457-1.792-6.336-1.792-3.328 0-5.184 1.92-5.184 4.224 0 2.56 1.856 3.71 5.887 5.246 5.376 2.05 8.128 4.736 8.128 9.344 0 5.44-4.224 9.28-11.583 9.28-3.392 0-6.528-.833-8.704-2.113l1.408-4.288" id="Fill-4"/><path d="M118.666 30.522c-6.144-.127-13.12.96-13.12 6.976 0 3.648 2.433 5.375 5.312 5.375 4.032 0 6.592-2.56 7.488-5.183.192-.577.32-1.216.32-1.79V30.52zm.832 15.807l-.45-3.904h-.19c-1.73 2.43-5.056 4.607-9.472 4.607-6.27 0-9.47-4.416-9.47-8.895 0-7.488 6.655-11.583 18.622-11.52v-.64c0-2.56-.704-7.167-7.04-7.167-2.88 0-5.887.897-8.063 2.305l-1.28-3.712c2.56-1.664 6.27-2.752 10.175-2.752 9.47 0 11.775 6.465 11.775 12.672v11.584c0 2.688.128 5.31.513 7.423h-5.12z" id="Fill-5"/><path d="M131.524 23.74c0-3.2-.065-5.825-.256-8.385h4.928l.256 4.992h.19c1.73-2.944 4.61-5.696 9.73-5.696 4.222 0 7.422 2.56 8.766 6.21h.128c.96-1.73 2.176-3.073 3.456-4.033 1.856-1.407 3.903-2.176 6.847-2.176 4.095 0 10.175 2.69 10.175 13.44v18.24h-5.504V28.794c0-5.952-2.175-9.536-6.72-9.536-3.198 0-5.694 2.367-6.654 5.12-.256.766-.45 1.79-.45 2.814V46.33h-5.5V27.77c0-4.927-2.177-8.51-6.465-8.51-3.52 0-6.078 2.815-6.975 5.63-.32.833-.448 1.793-.448 2.753V46.33h-5.503V23.74" id="Fill-6"/><path d="M183.262 15.355h5.632V46.33h-5.632V15.354zm6.272-8.703c.063 1.92-1.344 3.456-3.584 3.456-1.984 0-3.392-1.536-3.392-3.456 0-1.984 1.472-3.52 3.52-3.52 2.112 0 3.456 1.536 3.456 3.52z" id="Fill-7"/><path d="M217.94 27.9c0-.77-.063-1.666-.255-2.37-.832-3.455-3.84-6.4-8.063-6.4-5.824 0-9.344 4.93-9.344 11.904 0 6.144 2.944 11.52 9.15 11.52 3.65 0 6.785-2.24 8.065-6.144.256-.767.448-1.856.448-2.687V27.9zm0 13.63h-.127c-1.664 3.072-5.12 5.503-10.11 5.503-7.233 0-13.12-6.27-13.12-15.68 0-11.582 7.487-16.702 14.015-16.702 4.8 0 8 2.37 9.535 5.377h.128l.193-4.672h5.31c-.127 2.624-.19 5.312-.19 8.512V59h-5.632V41.53z" id="Fill-9"/><path d="M232.764 18.807h.504c.588 0 1.065-.195 1.065-.672 0-.42-.31-.7-.98-.7-.28 0-.478.028-.59.056v1.317zm-.027 2.605h-1.065V16.82c.42-.085 1.008-.14 1.764-.14.867 0 1.26.14 1.596.335.252.196.447.56.447 1.008 0 .505-.392.896-.952 1.064v.056c.447.168.7.504.84 1.12.14.7.224.98.336 1.15h-1.15c-.137-.17-.22-.59-.362-1.12-.084-.505-.363-.73-.95-.73h-.505v1.85zm-2.828-2.41c0 2.045 1.51 3.67 3.583 3.67 2.015 0 3.5-1.625 3.5-3.64 0-2.045-1.485-3.697-3.53-3.697-2.043 0-3.554 1.652-3.554 3.668zm8.258 0c0 2.605-2.044 4.65-4.705 4.65-2.63 0-4.73-2.045-4.73-4.65 0-2.546 2.1-4.59 4.73-4.59 2.66 0 4.705 2.044 4.705 4.59z" id="Fill-11"/></g></g></svg>