<svg width="256" height="206" viewBox="0 0 256 206" version="1.1" xmlns="http://www.w3.org/2000/svg"><title>Shape</title><g id="Page-1" stroke="none" stroke-width="1" fill="none" fill-rule="evenodd"><path d="M28.235 103.302c-1.385 1.29-2.694 2.712-3.93 4.27-5.59 8.15-7.685 17.463-5.59 27.476 1.398 10.712 7.22 19.56 15.835 25.848 7.918 6.287 15.835 9.314 25.15 9.314-4.425 1.397-9.315 3.726-13.74 4.424-11.41 2.096-21.423 0-30.737-7.218-8.85-7.22-14.437-16.533-15.136-27.943-.698-11.41 2.795-23.053 10.712-33.066 4.204-5.32 8.803-9.454 13.866-12.512-4.267-12.09-7.512-24.75-9.443-37.786C18.95 61.93 29.66 67.52 49.686 72.64c22.355 4.89 50.997 8.616 86.158 8.616 34.464 0 63.105-3.493 85.46-8.616C240.63 68.218 251.344 62.63 256 56.11c-4.424 25.38-12.342 49.132-23.752 69.857-8.615 13.04-17.23 24.45-25.847 36.792-3.492 7.217-5.82 14.436-7.218 21.655h-.698c-5.822 7.917-13.74 12.807-23.053 15.834-12.574 4.19-26.313 6.286-39.353 5.588h-1.397c-13.04.698-25.847-1.165-38.19-5.59-10.012-2.793-18.162-7.916-23.75-15.833-1.63-7.22-4.192-14.438-7.918-21.656-8.616-12.343-17.23-23.753-25.847-36.793-3.942-7.24-7.55-14.815-10.74-22.665zm73.38-94.23c.232 1.396-.467 2.56-2.795 3.725-3.027-1.63-9.548-2.562-14.903-2.096-5.822.467-10.712 2.33-10.013 6.288.93 3.96 6.52 6.288 16.533 5.356 24.45-2.096 24.217-18.63 60.078-21.89 27.943-2.56 43.544 6.056 45.64 16.534 1.63 8.15-5.123 16.068-25.382 17.698-17.93 1.63-28.41-3.26-29.34-8.15-.466-2.562.93-6.288 9.547-7.22.932 3.96 5.822 8.15 17.465 6.987 8.383-.7 15.368-3.726 14.437-8.383-.93-4.89-9.78-7.685-23.752-6.52-28.41 2.56-35.394 18.163-59.612 20.26-17.23 1.63-31.203-4.66-33.066-13.973-.698-3.493-.698-11.643 17.465-13.273 9.314-.7 16.766.93 17.697 4.657zm33.997 43.544c-30.04 0-56.818-3.027-76.146-7.22-20.724-5.122-31.67-10.71-31.67-17.93 0-3.026 1.4-5.588 5.59-8.615-13.04 5.124-20.026 9.316-20.026 15.836.7 7.218 12.342 14.437 36.093 20.026 22.355 5.588 50.997 8.615 85.46 8.615 35.162 0 63.105-3.027 85.46-8.615 23.75-5.59 35.16-13.04 35.16-20.026 0-5.123-5.122-10.013-14.436-13.74 2.096 1.398 3.726 3.727 3.726 6.288 0 7.22-10.712 13.04-32.368 17.93-20.026 4.425-45.64 7.452-76.843 7.452z" id="Shape" fill="#383838"/></g></svg>