<svg width="599" height="124" viewBox="0 0 599 124" version="1.1" xmlns="http://www.w3.org/2000/svg"><title>Fill 1</title><g id="About-Us" stroke="none" stroke-width="1" fill="none" fill-rule="evenodd"><g id="Page-1" fill="#383838"><path d="M447.53 116.623c-13.17-11.96-26.193-24.084-39.268-36.15-4.41-4.072-8.823-8.142-13.234-12.213 15.145 17.31 30.715 34.155 46.236 51.044 1.297 1.41 2.265 3.124 3.385 4.696h5c1.234-3.02.3-5.178-2.12-7.377m129.75-51.087c-.277 5.996-3.804 10.808-9.81 11.493-8.025.916-16.16.87-24.765 1.263V51.835c9.026.583 17.937.582 26.64 1.93 5.486.853 8.2 6.084 7.936 11.77m.844 26.585c1.17-.706 1.693-1.058 2.248-1.35 13.722-7.265 19.197-18.984 15.95-34.16-2.655-12.406-13.563-21.16-27.79-21.518-14.317-.36-28.65-.11-42.975-.096-.766 0-1.533.3-2.19.436v87.558h19.35V94.906c3.668 0 6.686.243 9.65-.06 3.926-.402 6.37.977 8.467 4.41 4.334 7.097 9.06 13.965 13.847 20.77 1.01 1.435 2.946 3.052 4.514 3.115 6.473.262 12.968-.043 19.455-.14v-2l-20.526-28.88m-109.21 21.497c-17.103-15.6-34.064-31.352-51.08-47.045-12.127-11.186-24.263-22.365-36.395-33.547 26.327 29.216 52.98 58.084 79.592 86.988 1.063 1.155 1.753 2.65 2.617 3.987h7c2.892-4.045 1.774-7.18-1.737-10.383zM74.52 34.854c-5.77-.69-8.938 1.627-11.738 6.563-5.787 10.203-12.266 20.012-18.76 30.465-1.322-1.928-2.292-3.237-3.15-4.615-5.983-9.602-11.91-19.24-17.948-28.808-.83-1.315-2.14-3.22-3.302-3.28-6.567-.316-13.157-.15-19.622-.15v87.947h18.884v-55.14c.345-.058.69-.118 1.035-.178l23.846 36.043L67.88 67.332l1.188.51v54.966H88.09v-87.85c-4.696 0-9.19.42-13.57-.103zM132 87.3h41.18V69.854H131.9V51.97h47.18V35.256h-66.194v87.68h66.465v-17.077H132v-18.56zm189.11-.134h41.076V69.86h-41.17V51.995h46.66v-16.61h-65.644v87.568h66.334v-17.247H321.11v-18.54zM204.17 35.194V53.01h26.563v69.933h19.378V52.707c8.04 0 15.347.116 22.644-.102 1.398-.042 3.886-1.313 3.95-2.16.374-5.04.184-10.124.184-15.25H204.17zm282.463 68.845c-28.114-26.455-56.23-52.908-84.343-79.36-8.418-7.922-16.837-15.84-25.255-23.76l-.515.5c.368.482.695 1.002 1.108 1.44 31.03 32.953 62.066 65.9 93.1 98.848 3.537 3.755 6.768 7.89 10.754 11.085 1.66 1.33 5.658 1.758 7.297.66 2.897-1.94 2.16-5.203-.332-7.7-.586-.59-1.21-1.144-1.815-1.714zm9.76-16.885C466.91 59.925 437.42 32.703 407.93 5.48l-.175.445c24.527 26.546 49.05 53.096 73.583 79.64 3.28 3.547 6.33 7.387 10.037 10.417 1.423 1.163 5.69 1.346 6.366.376 1.178-1.693.753-4.634.625-7.03-.04-.76-1.24-1.496-1.97-2.173zM448.11 22.713l-.71.664c16.278 17.586 32.517 35.21 48.945 52.65.868.922 3.354.318 5.086.423-.427-1.85-.224-4.37-1.375-5.454-17.21-16.206-34.6-32.222-51.947-48.283zm-21.587 95.372l1.683-1.734-20.79-19.445c6.126 7.395 12.094 14.83 19.108 21.18zm70.46-65.898l-20.528-19.31c-.202.146-.4.294-.603.444l19.224 20.733c.635-.62 1.27-1.244 1.904-1.866z" id="Fill-1"/></g></g></svg>