<svg width="50" height="47" viewBox="0 0 50 47" version="1.1" xmlns="http://www.w3.org/2000/svg"><title>Imported Layers</title><g id="About-Us" stroke="none" stroke-width="1" fill="none" fill-rule="evenodd"><g id="About-Us---Desktop" fill="#383838"><g id="Our-Development-Stack"><g id="Applications"><g id="Rectangle-39-+-SKETCH-ïŒ-+-Imported-Layers"><path d="M43.33 5.926c-.18-.174-.35-.36-.507-.556L33.416.896h-16.86L8.04 5.1c-.295-.013-.593.1-.802.34l-.09.1-.398.198.153.086-6.9 7.93L24.162 45.36l.85 1.41.815-1.423 24.056-31.905-6.656-7.462.104-.054zm-26.307-3.03h15.94l6.167 2.932-6.78 3.468H17.15l-6.12-3.443 5.99-2.957zm19.955 17H12.273l4.683-8.6h15.168l4.854 8.6zM8.68 6.826l6.456 3.63-4.875 8.952-7.62-5.642 6.04-6.94zM6.76 19.303l3.076 2.277 4.963 8.24-8.04-10.516zm18.21 23.518L12.36 21.896h24.604L24.97 42.822zm8.8-11.33l5.684-9.92 4.11-3.07-9.795 12.99zm13.348-18.144l-8.116 6.066-4.938-8.75 7.322-3.743 5.732 6.428z" id="Imported-Layers"/></g></g></g></g></g></svg>