<svg width="548" height="411" viewBox="0 0 548 411" version="1.1" xmlns="http://www.w3.org/2000/svg"><title>Fill 1</title><g id="Page-1" stroke="none" stroke-width="1" fill="none" fill-rule="evenodd"><g id="Sass-Logo-(Black)" fill="#383838"><path d="M387.313 310.68c-1.738-1.236-1.45-5.234 4.267-17.686 2.244-4.89 7.364-13.12 16.265-20.986 1.03 3.235 1.66 6.337 1.642 9.225-.115 19.266-13.86 26.46-22.174 29.448zm-73.168 16.68c-2.33 1.22-4.466 1.985-5.46 1.394-.727-.435.962-2.04.962-2.04s11.88-12.78 16.56-18.6c2.722-3.384 5.878-7.4 9.317-11.894.028.45.043.894.043 1.334-.035 15.312-14.826 25.65-21.422 29.806zm-94.978-45.318c-5.496 13.4-17 47.678-24 45.84-6.01-1.576-9.67-27.634-1.2-53.28 4.263-12.908 13.37-28.333 18.72-34.32 8.613-9.634 18.096-12.785 20.4-8.88 2.937 4.978-10.474 42.24-13.92 50.64zm-114.96 78.152c-15.78 17.215-37.826 23.72-47.28 18.24-10.208-5.918-6.165-31.262 13.2-49.53 11.803-11.133 27.04-21.387 37.148-27.703 2.3-1.383 5.68-3.416 9.787-5.877.68-.388 1.065-.603 1.065-.603l-.015-.026 2.444-1.462c7.046 26.002.214 48.894-16.35 66.962zm367.21-123.798c-19.145.1-35.727 4.697-49.627 11.548-5.084-10.146-10.23-19.072-11.093-25.71-1.01-7.747-2.178-12.37-.96-21.6 1.22-9.23 6.56-22.3 6.48-23.278-.077-.98-1.197-5.68-12.24-5.76-11.042-.08-20.488 2.123-21.6 5.04-1.11 2.915-3.237 9.477-4.56 16.32-1.934 10.012-22.047 45.722-33.467 64.404-3.735-7.29-6.91-13.72-7.573-18.804-1.008-7.748-2.178-12.37-.96-21.6 1.22-9.23 6.56-22.302 6.48-23.28-.077-.98-1.196-5.68-12.24-5.76-11.042-.08-20.488 2.123-21.6 5.04-1.11 2.915-2.298 9.728-4.56 16.32-2.262 6.59-28.998 66.16-36 81.6-3.568 7.867-6.673 14.187-8.865 18.504l-.014-.024s-.135.287-.368.772c-1.876 3.674-2.993 5.707-2.993 5.707l.033.076c-1.488 2.7-3.083 5.205-3.873 5.205-.552 0-1.657-7.182.24-17.04 3.98-20.664 13.536-52.89 13.44-54-.05-.57 1.777-6.184-6.24-9.12-7.793-2.852-10.568 1.905-11.28 1.92-.688.015-1.2 1.68-1.2 1.68s8.682-36.24-16.56-36.24c-15.78 0-37.648 17.264-48.42 32.912-6.798 3.708-21.345 11.65-36.78 20.13-5.927 3.255-11.976 6.584-17.712 9.744-.39-.43-.78-.864-1.18-1.292-30.607-32.655-87.188-55.752-84.788-99.653.873-15.96 6.42-57.984 108.72-108.96 83.8-41.758 150.887-30.267 162.48-4.8 16.563 36.383-35.853 104.005-122.88 113.76-33.158 3.717-50.617-9.133-54.96-13.92-4.57-5.038-5.253-5.265-6.96-4.32-2.78 1.54-1.018 5.99 0 8.64 2.6 6.763 13.26 18.755 31.44 24.72 15.992 5.248 54.922 8.13 102-10.08 52.73-20.396 93.904-77.134 81.81-124.56-12.3-48.235-92.276-64.092-167.97-37.2-45.048 16.004-93.815 41.123-128.88 73.92-41.69 38.997-48.34 72.938-45.6 87.12C10.27 224.865 79.727 257.68 107.54 282c-1.374.758-2.66 1.47-3.832 2.115-13.944 6.898-66.888 34.605-80.13 63.88-15.022 33.207 2.39 57.032 13.92 60.24 35.718 9.94 72.37-7.938 92.07-37.32 19.693-29.373 17.288-67.62 8.25-85.08-.113-.217-.237-.43-.352-.644 3.6-2.13 7.272-4.297 10.91-6.434 7.098-4.167 14.064-8.055 20.11-11.345-3.382 9.27-5.86 20.38-7.15 36.425-1.513 18.85 6.212 43.215 16.32 52.8 4.452 4.22 9.807 4.32 13.2 4.32 11.764 0 17.132-9.786 23.04-21.36 7.25-14.195 13.68-30.72 13.68-30.72s-8.07 44.64 13.922 44.64c8.013 0 16.074-10.39 19.664-15.69l.015.09s.21-.345.617-1.037c.832-1.272 1.303-2.082 1.303-2.082l.042-.23c3.22-5.593 10.364-18.344 21.078-39.37 13.842-27.168 27.12-61.2 27.12-61.2s1.234 8.32 5.28 22.08c2.38 8.095 7.435 17.044 11.424 25.626-3.21 4.455-5.185 7.014-5.185 7.014l.054.133c-2.565 3.405-5.442 7.08-8.452 10.665-10.925 13.012-23.938 27.87-25.68 32.16-2.053 5.053-1.568 8.77 2.4 11.76 2.897 2.184 8.056 2.523 13.44 2.16 9.817-.66 16.725-3.095 20.133-4.578 5.314-1.88 11.5-4.834 17.308-9.102 10.717-7.88 17.18-19.15 16.56-34.08-.344-8.228-2.968-16.383-6.287-24.082.974-1.398 1.95-2.81 2.927-4.238 16.895-24.7 30-51.84 30-51.84s1.235 8.32 5.28 22.08c2.048 6.965 6.087 14.562 9.72 22.014-15.887 12.907-25.74 27.905-29.16 37.745-6.325 18.197-1.37 26.443 7.92 28.32 4.21.85 10.154-1.078 14.626-2.97 5.564-1.846 12.25-4.92 18.495-9.51 10.717-7.878 21.02-18.91 20.4-33.84-.284-6.797-2.127-13.543-4.628-20.024 13.466-5.608 30.9-8.727 53.108-6.134 47.64 5.563 56.986 35.31 55.2 47.76-1.787 12.45-11.78 19.293-15.12 21.36-3.34 2.066-4.36 2.783-4.08 4.32.406 2.234 1.95 2.148 4.8 1.668 3.92-.662 25.016-10.127 25.92-33.108 1.146-29.176-26.807-61.224-76.32-60.96z" id="Fill-1"/></g></g></svg>