<svg width="215" height="182" viewBox="0 0 215 182" version="1.1" xmlns="http://www.w3.org/2000/svg"><title>Fill 1</title><g id="About-Us" stroke="none" stroke-width="1" fill="none" fill-rule="evenodd"><g id="Page-1" fill="#383838"><g id="Group-3"><path d="M98.92 179.25H67.237c1.79-7.18 3.55-14.23 5.205-20.862-3.578 4.038-7.025 8.644-11.184 12.48-10.608 9.78-23.157 13.073-37.178 9.363-10.098-2.672-16.156-10.312-17.463-20.668-1.15-9.097.8-17.78 2.962-26.482 4.142-16.688 8.222-33.392 12.323-50.09.142-.58.23-1.173.397-2.027H0l6.79-25.156h53.733c-.174.835-.296 1.55-.472 2.253-7.027 27.963-14.096 55.916-21.044 83.9-.863 3.475-1.373 7.1-1.527 10.678-.226 5.24 2.72 8.146 8.014 8.186 8.05.06 14.965-3.054 20.902-8.27 6.347-5.575 10.76-12.352 12.77-20.745 3.917-16.358 8.13-32.643 12.213-48.96.143-.574.192-1.17.313-1.94H69.25c.366-1.43.66-2.64.982-3.843 1.752-6.526 3.527-13.046 5.256-19.578.29-1.1.568-1.844 2.013-1.84 15.345.06 30.688.043 46.032.052.22 0 .44.08.88.165l-5.847 26.765c.09.04.183.078.274.117 1.438-2.144 2.8-4.345 4.33-6.42 6.582-8.922 14.49-16.333 24.874-20.6 19.98-8.214 39.96 2.955 44.1 24.554 1.832 9.567.92 19.022-1.59 28.345-3.378 12.54-6.932 25.034-10.235 37.594-.658 2.5-.853 5.224-.696 7.81.365 6.04 5.84 8.704 10.818 5.235 1.918-1.338 3.678-3.21 4.866-5.218 2.13-3.602 3.782-7.49 5.615-11.265.356-.733.63-1.506 1.014-2.44l12.444 4.79c-4.2 13.2-9.11 25.92-22.132 32.727-11.226 5.87-22.858 5.53-33.713-1.265-7.522-4.71-10.05-12.414-10.508-20.902-.407-7.564 1.63-14.73 3.667-21.897 2.607-9.17 5.338-18.314 7.62-27.567.96-3.88 1.344-8.023 1.22-12.023-.27-8.785-6.584-14.73-15.386-15.116-9.447-.413-16.512 3.61-21.547 11.47-4.086 6.377-5.88 13.6-7.682 20.82-5.55 22.22-11.114 44.436-16.672 66.653-.09.354-.19.704-.326 1.213zM28.7 19.023C28.667 8.356 37.146-.017 47.965 0 58.672.018 67.137 8.335 67.17 18.873c.033 10.594-8.57 19.11-19.283 19.086-10.652-.026-19.152-8.414-19.186-18.937z" id="Fill-1"/></g></g></g></svg>