<svg width="131" height="148" viewBox="0 0 131 148" version="1.1" xmlns="http://www.w3.org/2000/svg"><title>Fill 1</title><g id="Page-1" stroke="none" stroke-width="1" fill="none" fill-rule="evenodd"><g id="js-black" fill="#383838"><path d="M109.055 86.49c0-11.677-7.892-14.787-24.507-16.983-16.788-2.222-18.495-3.367-18.495-7.3 0-3.245 1.446-7.577 13.88-7.577 11.107 0 15.2 2.393 16.884 9.88.148.705.79 1.22 1.518 1.22h7.016c.437 0 .85-.187 1.145-.497.296-.332.454-.758.413-1.203-1.086-12.897-9.655-18.907-26.975-18.907-15.415 0-24.608 6.504-24.608 17.413 0 11.834 9.148 15.1 23.94 16.565 17.7 1.733 19.074 4.32 19.074 7.803 0 6.043-4.85 8.62-16.24 8.62-14.305 0-17.452-3.592-18.507-10.708-.12-.763-.772-1.323-1.553-1.323h-6.99c-.866 0-1.562.69-1.562 1.557 0 9.107 4.956 19.967 28.613 19.967 17.132 0 26.955-6.748 26.955-18.526zM65.402 148c-1.975 0-3.94-.516-5.67-1.517l-18.05-10.68c-2.694-1.51-1.378-2.042-.49-2.352 3.597-1.246 4.324-1.534 8.162-3.712.4-.224.93-.138 1.34.103l13.868 8.236c.504.278 1.213.278 1.675 0l54.063-31.204c.502-.288.825-.868.825-1.464v-62.39c0-.612-.323-1.182-.838-1.492L66.247 10.35c-.5-.293-1.163-.293-1.666 0L10.555 41.535c-.525.3-.857.888-.857 1.48v62.392c0 .596.332 1.162.853 1.444l14.81 8.558c8.035 4.017 12.955-.714 12.955-5.47v-61.6c0-.87.7-1.557 1.57-1.557h6.856c.858 0 1.567.687 1.567 1.558v61.6c0 10.727-5.84 16.877-16.007 16.877-3.125 0-5.585 0-12.453-3.385L5.67 115.27C2.168 113.246 0 109.46 0 105.408v-62.39c0-4.055 2.168-7.84 5.67-9.855l54.063-31.24c3.42-1.935 7.968-1.935 11.362 0l54.057 31.24c3.503 2.025 5.68 5.8 5.68 9.854v62.39c0 4.053-2.177 7.825-5.68 9.863l-54.057 31.213c-1.728 1-3.69 1.517-5.693 1.517z" id="Fill-1"/></g></g></svg>