<svg width="50" height="50" viewBox="0 0 50 50" version="1.1" xmlns="http://www.w3.org/2000/svg"><title>Rectangle 57</title><g id="About-Us" stroke="none" stroke-width="1" fill="none" fill-rule="evenodd"><g id="About-Us---Desktop" fill="#383838"><g id="Process"><g id="TRELLO-+-Rectangle-39-+-Rectangle-57"><path d="M0 7.005C0 3.135 3.128 0 7.005 0h35.99C46.865 0 50 3.128 50 7.005v35.99C50 46.865 46.872 50 42.995 50H7.005C3.135 50 0 46.872 0 42.995V7.005zm10 3.997C10 9.344 11.342 8 12.997 8h6.006C20.658 8 22 9.343 22 11.002v27.996C22 40.656 20.658 42 19.003 42h-6.006C11.342 42 10 40.657 10 38.998V11.002zm18-.008C28 9.34 29.342 8 30.997 8h6.006C38.658 8 40 9.343 40 10.994v14.012C40 26.66 38.658 28 37.003 28h-6.006C29.342 28 28 26.657 28 25.006V10.994z" id="Rectangle-57"/></g></g></g></g></svg>