<svg width="165" height="154" viewBox="0 0 165 154" version="1.1" xmlns="http://www.w3.org/2000/svg"><title>Group 17</title><g id="Page-1" stroke="none" stroke-width="1" fill="none" fill-rule="evenodd"><g id="hipchat_rgb_blue" fill="#383838"><g id="Group-17"><path d="M127.152 86.82c-.002-1.72-1.398-3.27-3.275-3.27-.758 0-1.533.26-2.17.83-8.284 7.445-22.383 14.03-39.435 14.072h-.07c-17.022-.043-30.717-6.89-39.436-14.07-.552-.454-1.574-.765-2.236-.765-2.026 0-3.204 1.724-3.206 3.62 0 1.463 1.024 2.685 1.868 3.952 4.888 7.338 20.05 19.8 42.867 19.8h.356c22.816 0 37.978-12.462 42.867-19.8.844-1.268 1.87-2.907 1.87-4.37" id="Fill-14"/><path d="M127.83 137.122c.257.343.394.634.394.95 0 .477-.452.805-1.02.805-4.12 0-16.814-6.84-23.496-12.478-.915-.772-2.195-1.055-4.012-.66-5.574 1.214-11.42 1.87-17.456 1.87-37.804 0-68.452-25.304-68.452-56.526 0-31.206 30.648-56.504 68.452-56.504 37.8 0 68.447 25.298 68.447 56.504 0 18.63-10.914 35.15-27.747 45.446-1.125.69-2.324 1.983-2.324 3.6 0 3.324 3.123 11.562 7.213 16.992zm22.008 6.896c-5.81-3.308-11.322-8.904-13.848-16.572-.495-1.503-.055-2.718 1.104-3.613 16.806-12.994 27.38-31.857 27.38-52.866 0-39.18-36.818-70.945-82.233-70.945C36.82.022 0 31.786 0 70.967c0 39.2 36.82 70.97 82.24 70.97 5.935 0 11.72-.543 17.3-1.574 1.368-.253 2.48.07 3.392.628 11.255 6.908 28.015 12.7 42.713 12.7 4.735 0 6.556-3.003 6.556-5.738 0-1.764-.955-3.132-2.362-3.934z" id="Fill-16"/></g></g></g></svg>