<svg width="563" height="500" viewBox="0 0 563 500" version="1.1" xmlns="http://www.w3.org/2000/svg"><title>React.js_logo</title><g id="Page-1" stroke="none" stroke-width="1" fill="none" fill-rule="evenodd"><g id="React.js_logo" fill="#383838"><circle id="Oval" cx="281.529" cy="249.628" r="50.167"/><path d="M281.53 159.628c64.817 0 126.39 9.138 173.2 25.253 51.988 17.9 83.7 44.36 83.7 64.748 0 21.718-34.248 49.912-89.857 68.337-44.27 14.668-103.504 22.663-167.044 22.663-66.752 0-126.652-7.84-170.41-22.796-27.394-9.363-50.017-21.532-65.523-34.81-13.934-11.934-20.97-23.78-20.97-33.394 0-20.457 30.5-46.55 81.367-64.285 46.83-16.326 109.91-25.715 175.535-25.715zm0-24c-68.176 0-133.898 9.782-183.437 27.053C38.613 183.42.628 215.918.628 249.63c0 34.817 40.778 69.74 102.73 90.914 46.567 15.917 108.986 24.086 178.17 24.086 65.937 0 127.66-8.33 174.593-23.88 64.406-21.34 106.31-55.837 106.31-91.12 0-33.833-39.21-66.55-99.888-87.44-49.48-17.033-113.668-26.56-181.013-26.56z" id="Shape"/><path d="M203.13 204.917c32.382-56.15 71.06-104.923 108.404-137.423 41.476-36.095 80.24-50.347 97.902-40.162 18.814 10.85 26.13 54.604 14.31 111.98-9.412 45.68-32.077 100.984-63.82 156.027-33.346 57.824-70.06 105.797-104.878 136.23-21.797 19.054-43.64 32.573-62.89 39.37-17.298 6.11-31.076 6.286-39.403 1.484-17.72-10.22-25.09-49.675-15.04-102.6 9.25-48.722 32.63-108.055 65.416-164.907zm-20.79-11.99c-34.06 59.06-58.417 120.88-68.203 172.42-11.75 61.885-2.575 111.026 26.628 127.867 30.163 17.394 80.785-.485 130.078-43.573 37.053-32.388 75.31-82.378 109.874-142.31 32.94-57.12 56.558-114.752 66.534-163.176 13.69-66.45 4.74-119.987-25.824-137.612-29.31-16.902-77.24.72-125.648 42.848-39.474 34.353-79.794 85.2-113.437 143.537z" id="Shape"/><path d="M203.206 295.47c-32.474-56.095-55.414-113.962-64.92-162.547-10.558-53.96-3.546-94.662 14.1-104.877 18.794-10.88 60.355 4.633 104.16 43.528 34.875 30.965 71.47 78.22 103.305 133.212 33.444 57.77 56.67 113.536 65.65 158.9 5.622 28.4 6.425 54.075 2.7 74.148-3.345 18.037-10.074 30.06-18.393 34.877-17.705 10.25-55.567-3.07-96.4-38.21-37.59-32.346-77.32-82.234-110.2-139.03zm-20.77 12.024c34.158 59.003 75.552 110.98 115.317 145.2C345.5 493.78 392.656 510.37 421.83 493.48c30.134-17.443 39.927-70.23 27.214-134.454-9.556-48.277-33.76-106.39-68.423-166.264-33.035-57.065-71.17-106.308-108.14-139.134C221.747 8.58 170.896-10.402 140.36 7.276c-29.28 16.95-37.95 67.277-25.628 130.255 10.05 51.357 33.963 111.682 67.704 169.964z" id="Shape"/></g></g></svg>