<svg width="294" height="290" viewBox="0 0 294 290" version="1.1" xmlns="http://www.w3.org/2000/svg"><title>Fill 39</title><g id="Page-1" stroke="none" stroke-width="1" fill="none" fill-rule="evenodd"><g id="rails" fill="#383838"><path d="M197.344 263.784l-6.577-15.96-24.277-4.54 6.393 18.365 24.46 2.134zm-16.25-170.02l10.638 14.616 6.576-9.575-9.283-14.414-7.93 9.375zm31.728-28.33l5.215 12.472 9.672-5.214-3.58-11.51-11.308 4.253zm-4.2-45.152C151.41 17.5 48.997 71.722 34.29 289.242h140.284c-31.456-81.49-27.807-142.975-6.178-184.64 31.453-60.598 78.268-64.61 121.977-39.067 1.545-3.67 3.67-8.32 3.67-8.32-24.944-23.98-48.293-35.132-85.424-36.933zm49.452 46.033l11.89.58.1-5.52-12.38-2.516.39 7.455zM166.69 127.32l-3.97 13.642 14.315 13.16 3.578-12.68-13.924-14.123zM55.955 137.29l-22.24-9.674-7.544 22.045 22.826 8.51 6.958-20.88zM275.478 29.175l-16.242-11.61v7.54l15.66 9.682.582-5.612zm-65.38-15.287l-3.67-12.172L187.09.163l5.605 13.343 17.402.382zm-58.792 10.446L139.898 9.446l-16.05 9.474 13.343 14.514 14.116-9.1zm-54.54 44.298l-17.79-13.16-12.38 16.83 19.534 12.19 10.637-15.86zM0 243.732l27.206 3.097 5.933-25.285-26.05-4.625L0 243.73zm158.46-49.87l20.89 9.573-2.124-14.887-19.056-10.246.29 15.56z" id="Fill-39"/></g></g></svg>