<svg width="278" height="39" viewBox="0 0 278 39" version="1.1" xmlns="http://www.w3.org/2000/svg"><title>Pair Shaped Logo</title><g id="Homepage" stroke="none" stroke-width="1" fill="none" fill-rule="evenodd"><g id="Homepage---Desktop" fill="#9B59B6"><g id="Navigation---Desktop-(transparent)"><g id="Pair-Shaped-Logo"><path d="M63.313 10C68.193 10 71 12.39 71 16.624c0 4.45-2.808 7.03-7.687 7.03H59.85V29H55V10h8.313zm-3.462 9.854h3.218c2.126 0 3.353-1.06 3.353-3.068 0-1.98-1.226-2.986-3.352-2.986H59.85v6.054z" id="Fill-1"/><path d="M81.6 25.5L80.162 29H75l8.518-19h5.16L97 29h-5.36l-1.41-3.5H81.6zm4.344-10.695l-2.877 7.03h5.697l-2.82-7.03z" id="Fill-2"/><path d="M103 10h5v19h-5V10z" id="Fill-3"/><path d="M125.664 23.653h-3.815V29H117V10h8.528c5.04 0 7.927 2.39 7.927 6.624 0 2.904-1.226 4.994-3.46 6.107L134 29h-5.503l-2.833-5.347zm-.136-3.8c2.097 0 3.323-1.06 3.323-3.067 0-1.98-1.225-2.986-3.322-2.986h-3.68v6.054h3.68z" id="Fill-4"/><path d="M155.51 11.75l-.978 2.018c-1.815-1.132-3.945-1.59-5.557-1.59-2.59 0-4.29.916-4.29 2.504 0 4.845 11.343 2.315 11.315 9.15 0 3.15-2.965 5.168-7.285 5.168-2.937 0-5.815-1.183-7.715-2.88l1.036-1.937c1.87 1.695 4.433 2.664 6.708 2.664 2.908 0 4.722-1.103 4.722-2.907.03-4.95-11.315-2.314-11.315-9.07 0-2.96 2.795-4.87 6.97-4.87 2.33 0 4.72.7 6.39 1.75" id="Fill-5"/><path d="M177.802 29v-8.36h-11.6V29H164V10h2.2v8.577h11.602V10H180v19h-2.198" id="Fill-6"/><path d="M192.59 24.196L190.395 29H188l8.845-19h2.34L208 29h-2.45l-2.197-4.804H192.59zm5.355-11.725l-4.397 9.636h8.847l-4.45-9.635z" id="Fill-7"/><path d="M221.36 10c4.84 0 7.64 2.334 7.64 6.38 0 4.207-2.8 6.622-7.64 6.622h-5.12V29H214V10h7.36zm-5.12 10.91h5.037c3.524 0 5.568-1.517 5.568-4.477 0-2.876-2.044-4.343-5.568-4.343h-5.037v8.82z" id="Fill-8"/><path d="M239.297 12.09v6.243h10.126v2.09h-10.126v6.514H251V29h-14V10h13.628v2.09h-11.33" id="Fill-9"/><path d="M267.922 10c5.71 0 10.078 4.1 10.078 9.5 0 5.402-4.394 9.5-10.164 9.5H260V10h7.922zm-5.683 16.937h5.71c4.366 0 7.783-3.174 7.783-7.41 0-4.26-3.47-7.437-7.866-7.437h-5.628v14.847z" id="Fill-10"/><path d="M18.965.346c-.806-.46-2.124-.46-2.93 0L1.465 8.67C.66 9.13 0 10.257 0 11.177v16.645c0 .92.66 2.05 1.465 2.51l14.57 8.323c.806.46 2.124.46 2.93 0l14.57-8.323c.806-.46 1.465-1.59 1.465-2.51V11.178c0-.92-.66-2.05-1.465-2.51L18.965.347zM7.387 26.952c-.805-.46-1.465-1.59-1.465-2.51v-9.88c0-.922.66-2.052 1.465-2.51l8.648-4.94c.806-.46 2.124-.46 2.93 0l8.648 4.94c.805.458 1.465 1.588 1.465 2.51v8.754c0 .92-.76 1.674-1.69 1.674h-8.195c-.93 0-1.693.753-1.693 1.673v4.39c0 .922-.66 1.297-1.465.838l-8.648-4.938z" id="Fill-11"/></g></g></g></g></svg>