<svg width="180" height="26" viewBox="0 0 180 26" version="1.1" xmlns="http://www.w3.org/2000/svg"><title>Pair Shaped Logo</title><g id="Blog-Detail-/-Project-Detail" stroke="none" stroke-width="1" fill="none" fill-rule="evenodd"><g id="Blog-Detail---Mobile" fill="#FFF"><g id="Navigation---Mobile"><g id="Pair-Shaped-Logo"><path d="M41.417 6.76c3.24 0 5.106 1.572 5.106 4.358 0 2.928-1.865 4.625-5.106 4.625h-2.3v3.517h-3.222V6.76h5.522zm-2.3 6.483h2.137c1.412 0 2.227-.697 2.227-2.018 0-1.304-.814-1.965-2.226-1.965h-2.137v3.983z" id="Fill-1"/><path d="M53.005 16.957l-.924 2.303H48.77l5.468-12.5h3.313l5.34 12.5h-3.44l-.905-2.303h-5.54zm2.788-7.036l-1.847 4.626h3.657l-1.81-4.625z" id="Fill-2"/><path d="M66.928 6.76h3.223v12.5H66.93V6.76z" id="Fill-3"/><path d="M81.303 15.743h-2.535v3.517h-3.223V6.76h5.667c3.35 0 5.27 1.572 5.27 4.358 0 1.91-.816 3.286-2.3 4.018l2.66 4.124h-3.656l-1.883-3.517zm-.09-2.5c1.393 0 2.208-.697 2.208-2.018 0-1.304-.814-1.965-2.208-1.965h-2.444v3.983h2.444z" id="Fill-4"/><path d="M100.718 7.867l-.616 1.34c-1.142-.75-2.48-1.055-3.495-1.055-1.63 0-2.697.608-2.697 1.662 0 3.214 7.133 1.535 7.115 6.072 0 2.09-1.865 3.428-4.582 3.428-1.846 0-3.656-.785-4.85-1.91l.65-1.286c1.177 1.125 2.788 1.768 4.22 1.768 1.828 0 2.968-.732 2.968-1.93.02-3.285-7.114-1.535-7.114-6.017 0-1.966 1.757-3.233 4.382-3.233 1.466 0 2.97.464 4.02 1.16" id="Fill-5"/><path d="M115.18 19.26v-5.5h-7.642v5.5h-1.45V6.76h1.45v5.643h7.64V6.76h1.448v12.5h-1.447" id="Fill-6"/><path d="M124.43 16.1l-1.412 3.16h-1.538l5.685-12.5h1.503l5.666 12.5h-1.574l-1.412-3.16h-6.918zm3.442-7.715l-2.826 6.34h5.686l-2.86-6.34z" id="Fill-7"/><path d="M143.184 6.76c3.132 0 4.944 1.535 4.944 4.197 0 2.768-1.812 4.357-4.944 4.357h-3.312v3.946h-1.45V6.76h4.762zm-3.312 7.18h3.26c2.28 0 3.6-1 3.6-2.948 0-1.892-1.32-2.857-3.6-2.857h-3.26v5.804z" id="Fill-8"/><path d="M154.846 8.135v4.107h6.39v1.375h-6.39v4.286h7.386v1.357h-8.836V6.76h8.6v1.375h-7.15" id="Fill-9"/><path d="M173.168 6.76c3.694 0 6.518 2.697 6.518 6.25 0 3.554-2.842 6.25-6.574 6.25h-5.068V6.76h5.124zm-3.676 11.143h3.694c2.824 0 5.034-2.088 5.034-4.875 0-2.803-2.245-4.893-5.088-4.893h-3.64v9.768z" id="Fill-10"/><path d="M12.653.49c-.528-.302-1.392-.302-1.92 0L1.18 5.93c-.53.3-.96 1.04-.96 1.64v10.88c0 .602.43 1.342.96 1.642l9.553 5.44c.528.3 1.392.3 1.92 0l9.553-5.44c.528-.3.96-1.04.96-1.64V7.57c0-.6-.432-1.34-.96-1.64L12.653.49zm-7.59 17.39c-.53-.3-.96-1.04-.96-1.64V9.782c0-.603.43-1.34.96-1.64l5.67-3.23c.528-.3 1.392-.3 1.92 0l5.67 3.23c.528.3.96 1.037.96 1.64v5.723c0 .602-.498 1.094-1.108 1.094h-5.372c-.61 0-1.11.49-1.11 1.093v2.87c0 .602-.432.847-.96.547l-5.67-3.23z" id="Fill-11"/></g></g></g></g></svg>