<?xml version="1.0" encoding="UTF-8" standalone="no"?>
<svg width="20px" height="20px" viewBox="0 0 20 20" version="1.1" xmlns="http://www.w3.org/2000/svg" xmlns:xlink="http://www.w3.org/1999/xlink" xmlns:sketch="http://www.bohemiancoding.com/sketch/ns">
    <!-- Generator: Sketch 3.4.1 (15681) - http://www.bohemiancoding.com/sketch -->
    <title>activity-feed-trello</title>
    <desc>Created with Sketch.</desc>
    <defs></defs>
    <g id="Page-1" stroke="none" stroke-width="1" fill="none" fill-rule="evenodd" sketch:type="MSPage">
        <g id="activity-feed-trello" sketch:type="MSLayerGroup" fill="#FFFFFF">
            <g id="Page-1" sketch:type="MSShapeGroup">
                <g id="icon-application-trello">
                    <g id="About-Us">
                        <g id="About-Us---Desktop">
                            <g id="Process">
                                <g id="TRELLO-+-Rectangle-39-+-Rectangle-57">
                                    <path d="M0,2.8019732 C0,1.25448612 1.25108956,0 2.8019732,0 L17.1980268,0 C18.745514,0 20,1.25108956 20,2.8019732 L20,17.1980268 C20,18.7455139 18.7489104,20 17.1980268,20 L2.8019732,20 C1.25448612,20 0,18.7489104 0,17.1980268 L0,2.8019732 L0,2.8019732 L0,2.8019732 Z M4,4.40094336 C4,3.73768068 4.53664912,3.2 5.1988608,3.2 L7.6011392,3.2 C8.26325172,3.2 8.8,3.73732496 8.8,4.40094336 L8.8,15.5990566 C8.8,16.2623193 8.26335088,16.8 7.6011392,16.8 L5.1988608,16.8 C4.53674828,16.8 4,16.262675 4,15.5990566 L4,4.40094336 L4,4.40094336 L4,4.40094336 Z M11.2,4.39768084 C11.2,3.73621996 11.7366491,3.2 12.3988608,3.2 L14.8011392,3.2 C15.4632516,3.2 16,3.7373248 16,4.39768084 L16,10.0023192 C16,10.66378 15.4633508,11.2 14.8011392,11.2 L12.3988608,11.2 C11.7367483,11.2 11.2,10.6626752 11.2,10.0023192 L11.2,4.39768084 L11.2,4.39768084 L11.2,4.39768084 Z" id="Rectangle-57"></path>
                                </g>
                            </g>
                        </g>
                    </g>
                </g>
            </g>
        </g>
    </g>
</svg>