<?xml version="1.0" encoding="UTF-8" standalone="no"?>
<svg width="100px" height="73px" viewBox="0 0 100 73" version="1.1" xmlns="http://www.w3.org/2000/svg" xmlns:xlink="http://www.w3.org/1999/xlink" xmlns:sketch="http://www.bohemiancoding.com/sketch/ns">
    <!-- Generator: Sketch 3.4.4 (17249) - http://www.bohemiancoding.com/sketch -->
    <title>Cannondale</title>
    <desc>Created with Sketch.</desc>
    <defs>
        <path id="path-1" d="M0,0.295212766 L99.5138298,0.295212766 L99.5138298,72.8723404 L0,72.8723404 L0,0.295212766 Z"></path>
        <path id="path-3" d="M0,0.295212766 L99.5138298,0.295212766 L99.5138298,72.8723404 L0,72.8723404 L0,0.295212766 Z"></path>
    </defs>
    <g id="Homepage" stroke="none" stroke-width="1" fill="none" fill-rule="evenodd" sketch:type="MSPage">
        <g id="Artboard-4" sketch:type="MSArtboardGroup" transform="translate(-292.000000, -628.000000)">
            <g id="Cannondale" sketch:type="MSLayerGroup" transform="translate(292.000000, 628.000000)">
                <path d="M53.0899468,0.295319149 C68.2553723,0.295319149 80.2553723,8.75276596 83.676117,20.4857447 L55.3181383,20.4857447 C51.3505851,20.4857447 47.6378191,22.6995745 46.9840957,25.5075532 L45.2303723,33.0415957 C44.5766489,35.8501064 47.1915426,38.0639362 53.1681383,38.0639362 L82.4548404,38.0639362 C77.0489894,50.8788298 62.4096277,60.3639362 46.3500532,60.3639362 C32.8000532,60.3639362 21.7771809,53.6112766 17.1420745,43.8048936 C22.1590957,49.8314894 30.8181383,53.7825532 41.076117,53.8634043 C48.7809043,53.9240426 56.1239894,51.79 62.0548404,48.2091489 L41.4729255,48.2091489 C33.5176064,48.2091489 26.2904787,42.6043617 27.8692021,34.6485106 L29.7426064,25.2064894 C31.3207979,17.2511702 37.8154787,11.0431915 50.8942021,11.0431915 L67.4904787,11.0431915 C62.3904787,7.03308511 55.2840957,4.55382979 47.1798404,4.49053191 C39.5809043,4.43095745 32.3330319,6.5043617 26.444734,9.99691489 C33.476117,4.03840426 43.0027128,0.295319149 53.0899468,0.295319149" id="Fill-1" fill="#383838" sketch:type="MSShapeGroup"></path>
                <path d="M65.6839362,59.0810106 L65.6839362,57.8081383 L65.1408511,57.8081383 L65.1408511,57.6379255 L66.4467021,57.6379255 L66.4467021,57.8081383 L65.9014894,57.8081383 L65.9014894,59.0810106 L65.6839362,59.0810106 Z" id="Fill-3" fill="#383838" sketch:type="MSShapeGroup"></path>
                <path d="M66.6631383,59.0810106 L66.6631383,57.6379255 L66.9913298,57.6379255 L67.3817553,58.660266 C67.4173936,58.7549468 67.4439894,58.8262234 67.4599468,58.8730319 C67.4785638,58.8214362 67.5078191,58.7432447 67.5477128,58.6416489 L67.9418617,57.6379255 L68.2354787,57.6379255 L68.2354787,59.0810106 L68.0253723,59.0810106 L68.0253723,57.8730319 L67.5466489,59.0810106 L67.3498404,59.0810106 L66.8737766,57.8528191 L66.8737766,59.0810106 L66.6631383,59.0810106 Z" id="Fill-5" fill="#383838" sketch:type="MSShapeGroup"></path>
                <g id="Group-9">
                    <mask id="mask-2" sketch:name="Clip 8" fill="white">
                        <use xlink:href="#path-1"></use>
                    </mask>
                    <g id="Clip-8"></g>
                    <path d="M9.735,65.8587766 L9.48074468,67.3268617 L5.74297872,67.3268617 C4.36,67.3268617 3.37595745,67.9273936 3.15414894,68.950266 L2.94829787,70.1683511 C2.79297872,71.1178191 3.6312766,71.3795213 4.80840426,71.3795213 L8.84723404,71.3795213 L8.64297872,72.8476064 L3.50893617,72.8476064 C1.1243617,72.8476064 -0.29,72.4087766 0.049893617,70.2417553 L0.359468085,68.4146277 C0.757340426,66.4667553 2.41212766,65.8587766 5.63340426,65.8587766 L9.735,65.8587766 Z" id="Fill-7" fill="#383838" sketch:type="MSShapeGroup" mask="url(#mask-2)"></path>
                </g>
                <path d="M10.7445213,65.8494149 L10.4631383,67.336117 L15.4195213,67.336117 C16.2126064,67.336117 17.139734,67.6839894 16.9514362,68.3531383 L16.8892021,68.723883 L12.3030319,68.723883 C10.7498404,68.723883 9.91473404,68.9419681 9.66792553,70.1382447 L9.48547872,71.1978191 C9.27164894,72.5951596 10.3567553,72.8472872 11.796117,72.8472872 L18.8360106,72.8472872 L19.5679255,68.8557979 C19.7306915,67.8776064 19.7540957,67.1409043 18.9907979,66.5153723 C18.1594149,65.8329255 15.7737766,65.8494149 15.7737766,65.8494149 L10.7445213,65.8494149 Z M16.6296277,70.0579255 L16.3487766,71.4456915 L13.058883,71.4456915 C12.5104787,71.4456915 12.0929255,71.3180319 12.1466489,70.9579255 C12.1519681,70.9265426 12.2163298,70.6026064 12.2232447,70.5722872 C12.2977128,70.2345213 12.7530319,70.0579255 13.3019681,70.0579255 L16.6296277,70.0579255 Z" id="Fill-10" fill="#383838" sketch:type="MSShapeGroup"></path>
                <path d="M76.242766,65.8494149 L75.9624468,67.336117 L80.9182979,67.336117 C81.7119149,67.336117 82.6385106,67.6839894 82.4496809,68.3531383 L82.3885106,68.723883 L77.8018085,68.723883 C76.248617,68.723883 75.4129787,68.9419681 75.1667021,70.1382447 L74.9842553,71.1978191 C74.7704255,72.5951596 75.8560638,72.8472872 77.2943617,72.8472872 L84.3826596,72.8472872 L85.0523404,68.8557979 C85.2156383,67.8776064 85.2523404,67.1409043 84.4901064,66.5153723 C83.6576596,65.8329255 81.2725532,65.8494149 81.2725532,65.8494149 L76.242766,65.8494149 Z M82.1284043,70.0579255 L81.8475532,71.4456915 L78.5576596,71.4456915 C78.0087234,71.4456915 77.5917021,71.3180319 77.6459574,70.9579255 C77.6502128,70.9265426 77.7151064,70.6026064 77.7214894,70.5722872 C77.7964894,70.2345213 78.2518085,70.0579255 78.8002128,70.0579255 L82.1284043,70.0579255 Z" id="Fill-12" fill="#383838" sketch:type="MSShapeGroup"></path>
                <path d="M26.4300532,65.8494149 C27.9598404,65.8494149 29.2699468,65.8180319 30.0167553,66.6339894 C30.4492021,67.1015426 30.5582447,67.4898404 30.4523936,68.0765426 L29.5885638,72.8643085 L26.7481383,72.8643085 L27.5848404,68.2244149 C27.675266,67.8137766 27.2045213,67.3818617 26.3263298,67.3818617 L23.5651596,67.3818617 L22.5731383,72.8472872 L19.7523936,72.8472872 L21.0273936,65.8494149 L26.4300532,65.8494149 Z" id="Fill-14" fill="#383838" sketch:type="MSShapeGroup"></path>
                <path d="M37.1769149,65.8494149 C38.7061702,65.8494149 40.0162766,65.8180319 40.763617,66.6339894 C41.1960638,67.1015426 41.3045745,67.4898404 41.1987234,68.0765426 L40.3348936,72.8643085 L37.495,72.8643085 L38.3317021,68.2244149 C38.4215957,67.8137766 37.9519149,67.3818617 37.0731915,67.3818617 L34.3120213,67.3818617 L33.32,72.8472872 L30.4987234,72.8472872 L31.7742553,65.8494149 L37.1769149,65.8494149 Z" id="Fill-16" fill="#383838" sketch:type="MSShapeGroup"></path>
                <path d="M59.7398936,65.8494149 C61.2696809,65.8494149 62.5797872,65.8180319 63.3265957,66.6339894 C63.7590426,67.1015426 63.8680851,67.4898404 63.762234,68.0765426 L62.8978723,72.8643085 L60.0579787,72.8643085 L60.8946809,68.2244149 C60.9845745,67.8137766 60.5148936,67.3818617 59.6361702,67.3818617 L56.875,67.3818617 L55.8824468,72.8472872 L53.0617021,72.8472872 L54.337234,65.8494149 L59.7398936,65.8494149 Z" id="Fill-18" fill="#383838" sketch:type="MSShapeGroup"></path>
                <path d="M42.0875,68.2471809 L41.6327128,70.6333511 C41.3593085,72.5567553 43.799734,72.8971809 46.7263298,72.858883 C49.6906915,72.808883 52.0428191,72.7998404 52.5412234,70.6333511 L52.9922872,68.3923936 C53.3375,66.1195213 51.299734,65.7673936 48.0545213,65.7673936 C45.3114362,65.7673936 42.5534574,65.8929255 42.0875,68.2471809 M47.7417553,67.3216489 C49.4268617,67.3216489 50.3757979,67.4679255 50.175266,68.5881383 L49.8928191,70.189734 C49.6827128,71.2828191 48.5965426,71.358883 46.9492021,71.358883 C45.5832447,71.3700532 44.1619681,71.2030319 44.3555851,70.1413298 L44.6816489,68.490266 C44.9226064,67.4189894 46.1821809,67.3216489 47.7417553,67.3216489" id="Fill-20" fill="#383838" sketch:type="MSShapeGroup"></path>
                <path d="M75.4454255,63.2521809 L72.9161702,63.2521809 L72.4996809,65.8495213 L69.1688298,65.8495213 C66.7470213,65.8495213 65.0103191,66.4798404 64.642766,68.2856915 L64.2491489,70.5910106 C63.9847872,72.3612234 65.4039362,72.8473936 67.817766,72.8473936 L73.88,72.8473936 L75.4454255,63.2521809 Z M71.4401064,71.3255851 L69.0167021,71.3255851 C67.6246809,71.3255851 66.855,71.0106915 67.0555319,69.7787766 L67.2555319,68.7718617 C67.4879787,67.8059043 68.4411702,67.3016489 69.7810638,67.3016489 L72.1842553,67.3016489 L71.4401064,71.3255851 Z" id="Fill-22" fill="#383838" sketch:type="MSShapeGroup"></path>
                <path d="M86.9044681,63.1981383 L89.7257447,63.1981383 L88.1044681,72.8720745 L85.2831915,72.8720745 L86.9044681,63.1981383 Z" id="Fill-24" fill="#383838" sketch:type="MSShapeGroup"></path>
                <g id="Group-28">
                    <mask id="mask-4" sketch:name="Clip 27" fill="white">
                        <use xlink:href="#path-3"></use>
                    </mask>
                    <g id="Clip-27"></g>
                    <path d="M94.0748936,67.315266 L95.6137234,67.315266 C97.4445745,67.315266 96.7647872,68.7051596 96.7647872,68.7051596 L92.5201064,68.7051596 C92.6482979,68.0248404 93.0951064,67.315266 94.0748936,67.315266 L94.0748936,67.315266 Z M99.4541489,68.3179255 C99.4541489,68.3179255 100.11,65.8014362 97.0860638,65.8014362 L94.3062766,65.8014362 C92.1770213,65.8014362 90.1068085,66.321117 89.7738298,68.3657979 L89.4312766,70.2168617 C89.0376596,72.4907979 90.7615957,72.8471809 92.9206383,72.8471809 L98.5935106,72.8471809 L98.8435106,71.4572872 L93.4264894,71.4572872 C92.4903191,71.4572872 92.1711702,70.765266 92.2967021,70.1886702 L99.1238298,70.1886702 L99.4541489,68.3179255 Z" id="Fill-26" fill="#383838" sketch:type="MSShapeGroup" mask="url(#mask-4)"></path>
                </g>
                <path d="M76.8105319,63.9430319 L76.8562766,63.6648404 L77.0408511,63.6648404 C77.1344681,63.6648404 77.2323404,63.6855851 77.2137234,63.7967553 C77.1908511,63.9334574 77.0871277,63.9430319 76.972234,63.9430319 L76.8105319,63.9430319 Z M76.7908511,64.0573936 L76.9467021,64.0573936 L77.1190426,64.4446277 L77.2706383,64.4446277 L77.0812766,64.0510106 C77.2158511,64.0345213 77.3270213,63.9648404 77.3541489,63.804734 C77.3828723,63.6281383 77.291383,63.5504787 77.0802128,63.5504787 L76.7392553,63.5504787 L76.5919149,64.4446277 L76.7270213,64.4446277 L76.7908511,64.0573936 Z M76.8376596,64.7733511 C77.26,64.7733511 77.6748936,64.4446277 77.7493617,63.9962234 C77.822766,63.5504787 77.5153191,63.2222872 77.0929787,63.2222872 C76.666383,63.2222872 76.2514894,63.5504787 76.1770213,63.9962234 C76.1041489,64.4446277 76.4105319,64.7733511 76.8376596,64.7733511 L76.8376596,64.7733511 Z M76.3334043,63.9962234 C76.3945745,63.6281383 76.7169149,63.3520745 77.072234,63.3520745 C77.4217021,63.3520745 77.6530851,63.6281383 77.5935106,63.9962234 C77.5307447,64.3690957 77.2089362,64.6440957 76.8584043,64.6440957 C76.503617,64.6440957 76.272234,64.3690957 76.3334043,63.9962234 L76.3334043,63.9962234 Z" id="Fill-29" fill="#383838" sketch:type="MSShapeGroup"></path>
            </g>
        </g>
    </g>
</svg>