<?xml version="1.0" encoding="UTF-8" standalone="no"?>
<svg width="100px" height="24px" viewBox="0 0 100 24" version="1.1" xmlns="http://www.w3.org/2000/svg" xmlns:xlink="http://www.w3.org/1999/xlink" xmlns:sketch="http://www.bohemiancoding.com/sketch/ns">
    <!-- Generator: Sketch 3.4.4 (17249) - http://www.bohemiancoding.com/sketch -->
    <title>TSN Logo</title>
    <desc>Created with Sketch.</desc>
    <defs>
        <path id="path-1" d="M0,0 L100,0 L100,24 L0,24"></path>
    </defs>
    <g id="Homepage" stroke="none" stroke-width="1" fill="none" fill-rule="evenodd" sketch:type="MSPage">
        <g id="Artboard-4" sketch:type="MSArtboardGroup" transform="translate(-142.000000, -652.000000)">
            <g id="TSN-Logo" sketch:type="MSLayerGroup" transform="translate(142.000000, 652.000000)">
                <g>
                    <path d="M2.88308351,0 L0,6 L31.117233,6 L34,0 L2.88308351,0 Z" id="Fill-1" fill="#383838" sketch:type="MSShapeGroup"></path>
                    <path d="M11.3329444,9 L4,24 L12.6744584,24 L20,9 L11.3329444,9 Z" id="Fill-2" fill="#383838" sketch:type="MSShapeGroup"></path>
                    <g id="Group-16">
                        <path d="M26,24 L28.9343844,17.8405081 L50.9233447,17.8405081 L52.7389294,14.3591933 C52.7389294,14.3591933 40.9851729,14.3541461 39.5105072,14.3591933 C37.7044632,14.3591933 33.6795831,14.492629 32.6968967,12.5166453 C32.0519491,11.2024773 33.3214909,9 33.3214909,9 L57.9179095,9 C59.4806671,9 60.8052267,9.32806881 61.5389023,10.2520241 C62.2283729,11.1226683 62.1841679,12.3702761 61.1369231,14.3591933 C60.5374526,15.5055414 58.9696066,19.0089378 58.5946592,19.7369982 C58.2273444,20.4783075 57.4577324,21.757145 55.4875892,22.676684 C53.5088595,23.5955921 51.904759,24 49.314792,24 L26,24 Z" id="Fill-3" fill="#383838" sketch:type="MSShapeGroup"></path>
                        <path d="M34,6 C34,6 35.226767,2.74680774 38.0152794,1.3113637 C40.675665,-0.0616697253 46.0506191,0.000427263787 46.5369912,0.000427263787 L67,0.000427263787 L64.1145956,6 L34,6 Z" id="Fill-5" fill="#383838" sketch:type="MSShapeGroup"></path>
                        <g id="Group-9">
                            <mask id="mask-2" sketch:name="Clip 8" fill="white">
                                <use xlink:href="#path-1"></use>
                            </mask>
                            <g id="Clip-8"></g>
                            <path d="M68,6.03555576 L70.7021696,0.00611880021 L89.7303136,0.00611880021 C89.7303136,0.00611880021 97.4326894,-0.428832742 98.8374285,6.03555576 C99.4646507,8.94657927 98.0777963,11.3996429 98.033555,11.501762 C97.9896275,11.5859157 92.1287559,24 92.1287559,24 L83.6309783,24 L90.1984554,10.3478797 C90.1984554,10.3478797 91.2059643,8.71523548 90.5166161,7.32212981 C89.8442114,5.92429642 87.8222907,6.01759037 87.6635241,6.03555576 C87.4950307,6.04438086 68,6.03555576 68,6.03555576" id="Fill-7" fill="#383838" sketch:type="MSShapeGroup" mask="url(#mask-2)"></path>
                        </g>
                        <path d="M67.3147269,9 L76,9 L68.6775517,24 L60,24 L67.3147269,9 Z" id="Fill-10" fill="#383838" sketch:type="MSShapeGroup"></path>
                        <path d="M96,22 L98,22 L98,22.2369584 L97.1636759,22.2369584 L97.1636759,24 L96.8265362,24 L96.8265362,22.2369584 L96,22.2369584 L96,22 Z" id="Fill-12" fill="#383838" sketch:type="MSShapeGroup"></path>
                        <path d="M99.7249617,24 L99.7249617,22.8216917 C99.7249617,22.7547893 99.7332312,22.5022104 99.7332312,22.3194813 L99.7249617,22.3194813 L99.1338438,24 L98.8624809,24 L98.2676876,22.3194813 L98.2584992,22.3194813 C98.2584992,22.5022104 98.2676876,22.7547893 98.2676876,22.8216917 L98.2676876,24 L98,24 L98,22 L98.4009188,22 L99.0006126,23.6931919 L99.5950995,22 L100,22 L100,24 L99.7249617,24 Z" id="Fill-14" fill="#383838" sketch:type="MSShapeGroup"></path>
                    </g>
                </g>
            </g>
        </g>
    </g>
</svg>