<?xml version="1.0" encoding="UTF-8" standalone="no"?>
<svg width="100px" height="22px" viewBox="0 0 100 22" version="1.1" xmlns="http://www.w3.org/2000/svg" xmlns:xlink="http://www.w3.org/1999/xlink" xmlns:sketch="http://www.bohemiancoding.com/sketch/ns">
    <!-- Generator: Sketch 3.4.4 (17249) - http://www.bohemiancoding.com/sketch -->
    <title>Kubota</title>
    <desc>Created with Sketch.</desc>
    <defs>
        <path id="path-1" d="M0,0.0896551724 L99.7586207,0.0896551724 L99.7586207,21.2643678 L0,21.2643678 L0,0.0896551724 Z"></path>
    </defs>
    <g id="Homepage" stroke="none" stroke-width="1" fill="none" fill-rule="evenodd" sketch:type="MSPage">
        <g id="Artboard-4" sketch:type="MSArtboardGroup" transform="translate(-442.000000, -803.000000)">
            <g id="Kubota" sketch:type="MSLayerGroup" transform="translate(442.000000, 803.000000)">
                <mask id="mask-2" sketch:name="Clip 2" fill="white">
                    <use xlink:href="#path-1"></use>
                </mask>
                <g id="Clip-2"></g>
                <path d="M29.0331034,6.4066092 L32.8486207,6.4066092 L32.8486207,13.7094828 L32.8486207,13.8106322 C32.7733333,17.2721264 29.4371264,21.2146552 25.3187356,21.2146552 C25.0158621,21.2146552 24.6871264,21.2146552 24.3836782,21.1635057 L24.3836782,17.2974138 C24.6871264,17.3732759 24.9905747,17.4238506 25.3187356,17.4238506 C27.3152874,17.4238506 28.931954,14.9727011 29.0331034,13.8106322 L29.0331034,6.4066092 Z M39.8986207,0.0899425287 L36.0831034,0.0899425287 L36.0831034,13.7094828 L36.0831034,13.8106322 C36.0831034,14.1893678 36.1331034,14.5939655 36.1842529,14.9474138 L40.1262069,14.9474138 C39.9744828,14.5939655 39.8986207,14.2146552 39.8986207,13.8106322 L39.8986207,13.4066092 C40.0503448,11.5112069 41.6670115,10.0198276 43.6129885,10.0198276 C45.6595402,10.0198276 47.302069,11.662931 47.302069,13.7094828 C47.302069,15.7566092 45.6595402,17.4238506 43.6129885,17.4238506 C43.2842529,17.4238506 42.956092,17.3732759 42.677931,17.2974138 L42.677931,21.1635057 C42.9813793,21.2146552 43.2842529,21.2146552 43.6129885,21.2146552 C47.7572414,21.2146552 51.0922989,17.8531609 51.0922989,13.7094828 C51.0922989,9.59109195 47.7572414,6.20431034 43.6129885,6.20431034 C42.273908,6.20431034 41.0101149,6.55833333 39.8986207,7.18994253 L39.8986207,0.0899425287 Z M75.198046,0.0899425287 L71.3578161,0.0899425287 L71.3578161,21.2393678 L75.198046,21.2393678 L75.198046,9.7933908 L79.1147126,9.7933908 L79.1147126,5.97787356 L75.198046,5.97787356 L75.198046,0.0899425287 Z M87.6549425,6.20431034 C91.7991954,6.20431034 95.1848276,9.59109195 95.1848276,13.7094828 L95.1848276,13.8106322 L95.1848276,21.2146552 L91.3698851,21.2146552 L91.3698851,20.2537356 C90.2578161,20.8600575 88.994023,21.2146552 87.6549425,21.2146552 C87.352069,21.2146552 87.0233333,21.2146552 86.7204598,21.1635057 L86.7204598,17.2974138 C87.0233333,17.3732759 87.3267816,17.4238506 87.6549425,17.4238506 C89.6009195,17.4238506 91.2175862,15.9077586 91.3698851,14.0123563 L91.3698851,13.8106322 L91.3698851,13.7094828 C91.3698851,11.662931 89.7014943,10.0198276 87.6549425,10.0198276 C85.6083908,10.0198276 83.9405747,11.662931 83.9405747,13.7094828 C83.9405747,14.1387931 84.0417241,14.5686782 84.1681609,14.9474138 L80.2514943,14.9474138 C80.1756322,14.5433908 80.1503448,14.1387931 80.1503448,13.7094828 C80.1503448,9.59109195 83.5112644,6.20431034 87.6549425,6.20431034 L87.6549425,6.20431034 Z M21.6296552,6.4066092 L21.6296552,13.8106322 C21.6296552,14.2146552 21.7055172,14.5939655 21.831954,14.9474138 L18.5468966,14.9474138 L17.9147126,14.9474138 C17.8394253,14.5939655 17.8141379,14.1893678 17.8141379,13.8106322 L17.8141379,13.7094828 L17.8141379,6.4066092 L21.6296552,6.4066092 Z M18.9262069,21.2646552 L14.0750575,21.2646552 L4.97850575,10.8795977 L14.4285057,0.0899425287 L19.3049425,0.0899425287 L9.82965517,10.8795977 L18.9262069,21.2646552 Z M60.9216092,6.20431034 C65.0652874,6.20431034 68.4514943,9.59109195 68.4514943,13.7094828 C68.4514943,17.8531609 65.0652874,21.2146552 60.9216092,21.2146552 C60.5928736,21.2146552 60.29,21.2146552 59.9865517,21.1635057 L59.9865517,17.2974138 C60.29,17.3732759 60.5928736,17.4238506 60.9216092,17.4238506 C62.9681609,17.4238506 64.635977,15.7566092 64.635977,13.7094828 C64.635977,11.662931 62.9681609,10.0198276 60.9216092,10.0198276 C58.8750575,10.0198276 57.2072414,11.662931 57.2072414,13.7094828 C57.2072414,14.1387931 57.2825287,14.5686782 57.4342529,14.9474138 L53.4928736,14.9474138 C53.4422989,14.5433908 53.3917241,14.1387931 53.3917241,13.7094828 C53.3917241,9.59109195 56.7773563,6.20431034 60.9216092,6.20431034 L60.9216092,6.20431034 Z M98.394023,19.2681034 C98.4698851,19.2939655 98.5457471,19.3445402 98.5457471,19.4451149 C98.5457471,19.5715517 98.4698851,19.6221264 98.394023,19.6221264 C98.3693103,19.6221264 98.344023,19.6474138 98.3187356,19.6474138 L98.2175862,19.6474138 L98.2175862,19.2681034 L98.2934483,19.2681034 L98.394023,19.2681034 Z M98.394023,20.1525862 L98.5457471,20.5066092 L99.0509195,20.5066092 L98.7227586,19.8244253 C98.9244828,19.7738506 99.0256322,19.6221264 99.0256322,19.4204023 C99.0256322,19.0658046 98.6721839,18.9905172 98.394023,18.9658046 L98.3693103,18.9658046 L97.7371264,18.9658046 L97.7371264,20.5066092 L98.2175862,20.5066092 L98.2175862,19.925 L98.2681609,19.925 L98.394023,20.1525862 Z M98.394023,18.358908 C99.152069,18.3841954 99.7589655,18.9905172 99.7589655,19.7738506 C99.7589655,20.5318966 99.152069,21.1635057 98.394023,21.1887931 L98.344023,21.1887931 C97.5854023,21.1887931 96.9537931,20.5318966 96.9537931,19.7738506 C96.9537931,18.9905172 97.5854023,18.358908 98.344023,18.358908 L98.394023,18.358908 Z M98.394023,20.8853448 C98.9750575,20.8853448 99.4808046,20.3801724 99.4808046,19.7738506 C99.4808046,19.1675287 98.9750575,18.6617816 98.394023,18.6617816 L98.344023,18.6617816 C96.8785057,18.6617816 96.9032184,20.8853448 98.344023,20.8853448 L98.394023,20.8853448 Z M3.81528736,0.0899425287 L-0.000229885057,0.0899425287 L-0.000229885057,15.3267241 L3.81528736,15.3267241 L3.81528736,0.0899425287 Z" id="Fill-1" fill="#383838" sketch:type="MSShapeGroup" mask="url(#mask-2)"></path>
            </g>
        </g>
    </g>
</svg>