<?xml version="1.0" encoding="UTF-8" standalone="no"?>
<svg width="100px" height="41px" viewBox="0 0 100 41" version="1.1" xmlns="http://www.w3.org/2000/svg" xmlns:xlink="http://www.w3.org/1999/xlink" xmlns:sketch="http://www.bohemiancoding.com/sketch/ns">
    <!-- Generator: Sketch 3.4.4 (17249) - http://www.bohemiancoding.com/sketch -->
    <title>Page 1</title>
    <desc>Created with Sketch.</desc>
    <defs>
        <path id="path-1" d="M0,0.0755319149 L99.5143617,0.0755319149 L99.5143617,40.4255319 L0,40.4255319 L0,0.0755319149 Z"></path>
        <path id="path-3" d="M0,0.0755319149 L99.5143617,0.0755319149 L99.5143617,40.4255319 L0,40.4255319 L0,0.0755319149 Z"></path>
        <path id="path-5" d="M0,0.0755319149 L99.5143617,0.0755319149 L99.5143617,40.4255319 L0,40.4255319 L0,0.0755319149 Z"></path>
    </defs>
    <g id="Homepage" stroke="none" stroke-width="1" fill="none" fill-rule="evenodd" sketch:type="MSPage">
        <g id="Artboard-4" sketch:type="MSArtboardGroup" transform="translate(-262.000000, -1059.000000)">
            <g id="Page-1" sketch:type="MSLayerGroup" transform="translate(262.000000, 1059.368421)">
                <path d="M78.9067553,32.8530319 L76.5306915,32.8530319 L77.2051596,29.8120745 L67.1716489,29.8120745 L66.4982447,32.8530319 L60.1610106,32.8530319 L60.8349468,29.8120745 L50.8019681,29.8120745 L50.1280319,32.8530319 L41.3769681,32.8530319 C42.9950532,32.0833511 44.5423936,31.0721809 45.9556915,29.8120745 L22.0636702,29.8110106 C22.1620745,29.915266 22.2620745,30.0179255 22.3636702,30.1195213 C22.7509043,30.5072872 23.1546277,30.8668617 23.5721809,31.2030319 L16.8849468,31.2030319 C17.1881383,31.4881383 17.5062234,31.7610106 17.8301596,32.0280319 L11.5817553,32.0280319 C11.8748404,32.3099468 12.1785638,32.583883 12.490266,32.8530319 L6.21845745,32.8530319 C6.5025,33.1322872 6.79398936,33.4078191 7.09452128,33.6780319 L97.2051596,33.6780319 L98.0626064,29.8120745 L79.5812234,29.8120745 L78.9067553,32.8530319 Z" id="Fill-1" fill="#383838" sketch:type="MSShapeGroup"></path>
                <path d="M79.9695745,28.0595745 L77.5935106,28.0595745 L78.2679787,25.0175532 L68.2344681,25.0175532 L67.5605319,28.0595745 L61.2238298,28.0595745 L61.897766,25.0175532 L51.8647872,25.0175532 L51.1908511,28.0595745 L47.6881915,28.0595745 C48.5296809,27.0984043 49.2626596,26.0792553 49.8807447,25.0175532 L18.9951064,25.0164894 C19.1865957,25.4914894 19.4094681,25.9537234 19.6482979,26.4095745 L13.2084043,26.4095745 C13.3541489,26.6893617 13.5110638,26.962234 13.672766,27.2345745 L7.86159574,27.2345745 C8.01531915,27.5132979 8.17702128,27.787234 8.34617021,28.0595745 L2.48606383,28.0595745 C2.64510638,28.3367021 2.81106383,28.612234 2.985,28.8835106 L98.2679787,28.8835106 L99.1259574,25.0175532 L80.6440426,25.0175532 L79.9695745,28.0595745 Z" id="Fill-3" fill="#383838" sketch:type="MSShapeGroup"></path>
                <path d="M62.2864894,23.2650532 L62.532766,22.1565426 L68.8689362,22.1565426 L68.6231915,23.2650532 L62.2864894,23.2650532 Z M91.0652128,23.2650532 L91.7391489,20.2240957 L81.7067021,20.2240957 L81.032234,23.2650532 L78.6561702,23.2650532 L79.3306383,20.2240957 L52.9274468,20.2230319 L52.2535106,23.2650532 L50.7790426,23.2650532 C51.226383,22.2719681 51.5859574,21.2549468 51.8487234,20.2240957 L17.8848936,20.2240957 C17.9210638,20.6916489 17.9838298,21.1549468 18.0588298,21.6150532 L11.5795745,21.6150532 C11.6269149,21.8927128 11.6848936,22.1677128 11.7465957,22.4400532 L6.05191489,22.4400532 C6.11095745,22.7177128 6.17691489,22.9916489 6.2487234,23.2650532 L0.537021277,23.2650532 C0.606170213,23.5416489 0.681702128,23.8166489 0.763617021,24.0900532 L99.3311702,24.0900532 L99.5141489,23.2650532 L91.0652128,23.2650532 Z" id="Fill-5" fill="#383838" sketch:type="MSShapeGroup"></path>
                <g id="Group-9">
                    <mask id="mask-2" sketch:name="Clip 8" fill="white">
                        <use xlink:href="#path-1"></use>
                    </mask>
                    <g id="Clip-8"></g>
                    <path d="M91.9448936,19.2962234 L92.8018085,15.429734 L82.7693617,15.429734 L82.0948936,18.4712234 L79.7193617,18.4712234 L80.3932979,15.429734 L53.9906383,15.430266 L53.3161702,18.4712234 L52.2028723,18.4712234 C52.3576596,17.4568617 52.4278723,16.4393085 52.4055319,15.429734 L18.1831915,15.429734 C18.0906383,15.8930319 18.0225532,16.3573936 17.9667021,16.8217553 L11.4688298,16.8217553 C11.4470213,17.0015426 11.4241489,17.180266 11.4081915,17.3616489 C11.3996809,17.4568617 11.398617,17.5515426 11.392234,17.6462234 L5.72042553,17.6462234 C5.70074468,17.9222872 5.68691489,18.1978191 5.67893617,18.4712234 L0.00340425532,18.4712234 C-0.0035106383,18.7478191 0.00127659574,19.0217553 0.00606382979,19.2962234 L91.9448936,19.2962234 Z" id="Fill-7" fill="#383838" sketch:type="MSShapeGroup" mask="url(#mask-2)"></path>
                </g>
                <path d="M93.0077128,14.502234 L93.8646277,10.6362766 L83.8321809,10.6357447 L83.1577128,13.677766 L80.7821809,13.677766 L81.456117,10.6357447 L71.4226064,10.6362766 L70.993883,12.5692553 L64.6577128,12.5692553 L65.0864362,10.6357447 L55.0534574,10.6362766 L54.3795213,13.677766 L52.2715426,13.677766 C52.1401596,12.6415957 51.9156915,11.6229787 51.5901596,10.6362766 L19.8566489,10.6357447 C19.6231383,11.0931915 19.4167553,11.5591489 19.2242021,12.027766 L12.7406915,12.027766 C12.6268617,12.3001064 12.5220745,12.5756383 12.4215426,12.852234 L6.72367021,12.852234 C6.6268617,13.1256383 6.5375,13.4006383 6.45398936,13.677766 L0.771542553,13.677766 C0.691223404,13.9511702 0.615159574,14.2256383 0.547074468,14.502234 L93.0077128,14.502234 Z" id="Fill-10" fill="#383838" sketch:type="MSShapeGroup"></path>
                <path d="M94.0704787,9.70824468 L94.9273936,5.84228723 L84.8949468,5.84228723 L84.2204787,8.8837766 L81.8444149,8.8837766 L82.5183511,5.84228723 L72.4853723,5.84228723 L71.8114362,8.8837766 L65.474734,8.8837766 L66.1492021,5.84228723 L56.1162234,5.84228723 L55.4422872,8.8837766 L50.8848404,8.8837766 C50.3789894,7.81143617 49.7523936,6.78856383 48.9928191,5.84175532 L23.3130319,5.84228723 C22.8742021,6.29015957 22.4704787,6.75771277 22.0837766,7.2337766 L15.5954787,7.2337766 C15.3805851,7.50452128 15.1763298,7.78005319 14.9757979,8.0587766 L9.18484043,8.0587766 C8.99867021,8.33111702 8.81994681,8.60611702 8.64760638,8.8837766 L2.87207447,8.8837766 C2.71143617,9.15664894 2.55505319,9.43111702 2.40664894,9.70824468 L94.0704787,9.70824468 Z" id="Fill-12" fill="#383838" sketch:type="MSShapeGroup"></path>
                <g id="Group-16">
                    <mask id="mask-4" sketch:name="Clip 15" fill="white">
                        <use xlink:href="#path-3"></use>
                    </mask>
                    <g id="Clip-15"></g>
                    <path d="M95.1332979,4.91473404 L95.9902128,1.04824468 L85.957766,1.04824468 L85.2832979,4.08973404 L82.907234,4.08973404 L83.5811702,1.04824468 L73.5481915,1.0487766 L72.8742553,4.08973404 L66.5375532,4.08973404 L67.2120213,1.04824468 L57.1790426,1.04824468 L56.5051064,4.08973404 L47.3402128,4.08973404 C42.0875532,-0.675159574 34.2045745,-1.16452128 27.7551064,2.44026596 L20.7455319,2.44026596 C20.3641489,2.70569149 19.9944681,2.98228723 19.6311702,3.26473404 L13.4769149,3.26473404 C13.1684043,3.53494681 12.8673404,3.80994681 12.5742553,4.08973404 L6.5487234,4.08973404 C6.28755319,4.36154255 6.03276596,4.63654255 5.78489362,4.91473404 L95.1332979,4.91473404 Z" id="Fill-14" fill="#383838" sketch:type="MSShapeGroup" mask="url(#mask-4)"></path>
                </g>
                <path d="M8.53712766,39.3907979 C8.66106383,39.6849468 8.87117021,39.9301596 9.16797872,40.1285638 C9.46478723,40.3269681 9.83234043,40.4253723 10.2695745,40.4253723 C10.7732979,40.4253723 11.2248936,40.3019681 11.6243617,40.0514362 C12.0232979,39.8019681 12.3392553,39.446117 12.5717021,38.9833511 C12.8046809,38.5200532 12.9211702,38.0413298 12.9211702,37.5466489 C12.9211702,36.9514362 12.7419149,36.4737766 12.3844681,36.1131383 C12.0270213,35.7525 11.5578723,35.5727128 10.9770213,35.5727128 C10.5435106,35.5727128 10.1573404,35.6610106 9.81797872,35.8365426 C9.47861702,36.0120745 9.19776596,36.2525 8.9743617,36.5546277 C8.75095745,36.8578191 8.58553191,37.2142021 8.47648936,37.6269681 C8.39297872,37.9344149 8.35148936,38.2264362 8.35148936,38.5035638 C8.35148936,38.8019681 8.41319149,39.0977128 8.53712766,39.3907979 M9.73978723,37.0386702 C10.0365957,36.5993085 10.4211702,36.3790957 10.8945745,36.3790957 C11.2030851,36.3790957 11.4568085,36.4849468 11.6562766,36.6950532 C11.8552128,36.9046277 11.9546809,37.1934574 11.9546809,37.5631383 C11.9546809,37.8939894 11.8759574,38.2322872 11.7185106,38.5817553 C11.5610638,38.9306915 11.3621277,39.190266 11.1211702,39.3615426 C10.8802128,39.5333511 10.6291489,39.6195213 10.3679787,39.6195213 C10.0467021,39.6195213 9.78765957,39.5104787 9.59031915,39.2929255 C9.39351064,39.0759043 9.29510638,38.8056915 9.29510638,38.483883 C9.29510638,37.9594149 9.44351064,37.4769681 9.73978723,37.0386702" id="Fill-17" fill="#383838" sketch:type="MSShapeGroup"></path>
                <path d="M16.883883,40.3465957 L15.990266,40.3465957 L14.7237766,37.1864894 L14.065266,40.3465957 L13.1716489,40.3465957 L14.1471809,35.6519149 L15.0407979,35.6519149 L16.3104787,38.8008511 L16.9663298,35.6519149 L17.8594149,35.6519149 L16.883883,40.3465957 Z" id="Fill-19" fill="#383838" sketch:type="MSShapeGroup"></path>
                <path d="M19.9143617,40.3465957 L18.9510638,40.3465957 L19.7638298,36.4359574 L18.3882979,36.4359574 L18.5473404,35.6519149 L22.2303191,35.6519149 L22.0712766,36.4359574 L20.7271277,36.4359574 L19.9143617,40.3465957 Z" id="Fill-21" fill="#383838" sketch:type="MSShapeGroup"></path>
                <path d="M24.6140426,40.3465957 L25.5284043,40.3465957 L24.7725532,35.6519149 L23.6858511,35.6519149 L21.0374468,40.3465957 L22.0337234,40.3465957 L22.6002128,39.3120213 L24.4603191,39.3120213 L24.6140426,40.3465957 Z M23.0294681,38.5285106 L24.0629787,36.6407447 L24.3432979,38.5285106 L23.0294681,38.5285106 Z" id="Fill-23" fill="#383838" sketch:type="MSShapeGroup"></path>
                <path d="M27.4857979,38.4028191 L27.8836702,38.4028191 C28.1139894,38.4028191 28.2756915,38.4342021 28.3682447,38.4964362 C28.5193085,38.6001596 28.6613298,38.8049468 28.7948404,39.1070745 C29.0405851,39.6693085 29.2054787,40.0815426 29.2895213,40.3464362 L30.3235638,40.3464362 C30.059734,39.6767553 29.8198404,39.1570745 29.6044149,38.7905851 C29.4959043,38.6086702 29.3799468,38.4629255 29.2560106,38.3517553 C29.7400532,38.2895213 30.1012234,38.1283511 30.3405851,37.8698404 C30.5794149,37.610266 30.6990957,37.2810106 30.6990957,36.8820745 C30.6990957,36.6022872 30.6373936,36.3645213 30.5139894,36.1682447 C30.3905851,35.9719681 30.228883,35.8368617 30.0283511,35.7629255 C29.8278191,35.6889894 29.5475,35.6517553 29.1879255,35.6517553 L27.0943085,35.6517553 L26.1182447,40.3464362 L27.0815426,40.3464362 L27.4857979,38.4028191 Z M27.8943085,36.4363298 L28.9650532,36.4363298 C29.2512234,36.4363298 29.4368617,36.4623936 29.5235638,36.5129255 C29.6629255,36.5980319 29.7331383,36.7272872 29.7331383,36.8975 C29.7331383,37.0427128 29.6842021,37.1810106 29.5879255,37.3139894 C29.491117,37.4469681 29.3576064,37.5437766 29.1868617,37.6049468 C29.0155851,37.6671809 28.6698404,37.6985638 28.1480319,37.6985638 L27.6320745,37.6985638 L27.8943085,36.4363298 Z" id="Fill-25" fill="#383838" sketch:type="MSShapeGroup"></path>
                <path d="M30.8006915,40.3465957 L31.7767553,35.6519149 L32.7400532,35.6519149 L31.7645213,40.3465957 L30.8006915,40.3465957 Z" id="Fill-27" fill="#383838" sketch:type="MSShapeGroup"></path>
                <path d="M33.1464894,39.3907979 C33.2704255,39.6849468 33.4805319,39.9301596 33.7773404,40.1285638 C34.0741489,40.3269681 34.4417021,40.4253723 34.8789362,40.4253723 C35.3826596,40.4253723 35.8342553,40.3019681 36.2337234,40.0514362 C36.6326596,39.8019681 36.948617,39.446117 37.1810638,38.9833511 C37.4140426,38.5200532 37.5305319,38.0413298 37.5305319,37.5466489 C37.5305319,36.9514362 37.3512766,36.4737766 36.9938298,36.1131383 C36.636383,35.7525 36.167234,35.5727128 35.586383,35.5727128 C35.1528723,35.5727128 34.7667021,35.6610106 34.4273404,35.8365426 C34.0879787,36.0120745 33.8071277,36.2525 33.5837234,36.5546277 C33.3608511,36.8578191 33.1943617,37.2142021 33.0858511,37.6269681 C33.0023404,37.9344149 32.9608511,38.2264362 32.9608511,38.5035638 C32.9608511,38.8019681 33.0230851,39.0977128 33.1464894,39.3907979 M34.3491489,37.0386702 C34.6459574,36.5993085 35.0305319,36.3790957 35.5044681,36.3790957 C35.8124468,36.3790957 36.0661702,36.4849468 36.2656383,36.6950532 C36.4645745,36.9046277 36.5640426,37.1934574 36.5640426,37.5631383 C36.5640426,37.8939894 36.4853191,38.2322872 36.3278723,38.5817553 C36.1704255,38.9306915 35.9714894,39.190266 35.7305319,39.3615426 C35.4895745,39.5333511 35.2385106,39.6195213 34.9773404,39.6195213 C34.6560638,39.6195213 34.3970213,39.5104787 34.1996809,39.2929255 C34.0028723,39.0759043 33.9044681,38.8056915 33.9044681,38.483883 C33.9044681,37.9594149 34.0523404,37.4769681 34.3491489,37.0386702" id="Fill-29" fill="#383838" sketch:type="MSShapeGroup"></path>
                <path d="M42.798883,38.2438298 L40.9776064,38.2438298 L40.5403723,40.3464894 L39.5770745,40.3464894 L40.5526064,35.6518085 L41.5164362,35.6518085 L41.1409043,37.4592553 L42.9621809,37.4592553 L43.3377128,35.6518085 L44.3010106,35.6518085 L43.3249468,40.3464894 L42.3616489,40.3464894 L42.798883,38.2438298 Z" id="Fill-31" fill="#383838" sketch:type="MSShapeGroup"></path>
                <path d="M44.7862766,39.3907979 C44.9102128,39.6849468 45.1203191,39.9301596 45.4171277,40.1285638 C45.7139362,40.3269681 46.0814894,40.4253723 46.5187234,40.4253723 C47.0224468,40.4253723 47.4740426,40.3019681 47.8735106,40.0514362 C48.2724468,39.8019681 48.5884043,39.446117 48.8208511,38.9833511 C49.0532979,38.5200532 49.1703191,38.0413298 49.1703191,37.5466489 C49.1703191,36.9514362 48.9910638,36.4737766 48.633617,36.1131383 C48.2761702,35.7525 47.8070213,35.5727128 47.2261702,35.5727128 C46.7926596,35.5727128 46.4064894,35.6610106 46.0671277,35.8365426 C45.727766,36.0120745 45.446383,36.2525 45.2235106,36.5546277 C45.0001064,36.8578191 44.8346809,37.2142021 44.7256383,37.6269681 C44.6421277,37.9344149 44.6006383,38.2264362 44.6006383,38.5035638 C44.6006383,38.8019681 44.6628723,39.0977128 44.7862766,39.3907979 M45.9889362,37.0386702 C46.2852128,36.5993085 46.6703191,36.3790957 47.1437234,36.3790957 C47.452234,36.3790957 47.7059574,36.4849468 47.9048936,36.6950532 C48.1043617,36.9046277 48.2038298,37.1934574 48.2038298,37.5631383 C48.2038298,37.8939894 48.1251064,38.2322872 47.9676596,38.5817553 C47.8107447,38.9306915 47.6112766,39.190266 47.3703191,39.3615426 C47.1293617,39.5333511 46.8782979,39.6195213 46.6165957,39.6195213 C46.2958511,39.6195213 46.0368085,39.5104787 45.8394681,39.2929255 C45.6421277,39.0759043 45.5442553,38.8056915 45.5442553,38.483883 C45.5442553,37.9594149 45.6921277,37.4769681 45.9889362,37.0386702" id="Fill-33" fill="#383838" sketch:type="MSShapeGroup"></path>
                <path d="M52.7847872,38.6531915 L53.7624468,38.8005319 C53.5730851,39.3276596 53.2885106,39.7303191 52.9092553,40.0090426 C52.5305319,40.287234 52.0869149,40.4255319 51.5773404,40.4255319 C51.0044681,40.4255319 50.5571277,40.2531915 50.2342553,39.9079787 C49.911383,39.562234 49.7502128,39.0606383 49.7502128,38.4037234 C49.7502128,37.8707447 49.8581915,37.3824468 50.0746809,36.9398936 C50.2911702,36.4973404 50.5911702,36.1590426 50.9752128,35.925 C51.3587234,35.6904255 51.7762766,35.5728723 52.2284043,35.5728723 C52.7353191,35.5728723 53.1464894,35.7079787 53.4597872,35.9792553 C53.7725532,36.25 53.9571277,36.6191489 54.0124468,37.0867021 L53.092234,37.175 C53.0401064,36.9037234 52.9417021,36.7074468 52.7948936,36.5856383 C52.6480851,36.4632979 52.4528723,36.4021277 52.2092553,36.4021277 C51.9411702,36.4021277 51.6911702,36.4840426 51.4592553,36.6462766 C51.2268085,36.8079787 51.0411702,37.0617021 50.9023404,37.4074468 C50.7629787,37.7515957 50.6932979,38.0962766 50.6932979,38.4404255 C50.6932979,38.8164894 50.7831915,39.106383 50.9635106,39.3117021 C51.1432979,39.5164894 51.367234,39.6191489 51.6358511,39.6191489 C51.8847872,39.6191489 52.1124468,39.5382979 52.3204255,39.375 C52.5284043,39.212234 52.6831915,38.9723404 52.7847872,38.6531915" id="Fill-35" fill="#383838" sketch:type="MSShapeGroup"></path>
                <path d="M54.1145745,40.3465957 L55.0906383,35.6519149 L56.0539362,35.6519149 L55.6390426,37.6455319 L57.7975532,35.6519149 L59.092766,35.6519149 L56.998617,37.4907447 L58.536383,40.3465957 L57.4331915,40.3465957 L56.2948936,38.1067021 L55.3762766,38.9109574 L55.0778723,40.3465957 L54.1145745,40.3465957 Z" id="Fill-37" fill="#383838" sketch:type="MSShapeGroup"></path>
                <path d="M58.8545213,40.3465957 L59.8300532,35.6519149 L63.2981383,35.6519149 L63.1396277,36.4359574 L60.6263298,36.4359574 L60.3965426,37.5051064 L62.8327128,37.5051064 L62.6736702,38.2896809 L60.2279255,38.2896809 L59.9529255,39.5620213 L62.6736702,39.5620213 L62.5023936,40.3465957 L58.8545213,40.3465957 Z" id="Fill-39" fill="#383838" sketch:type="MSShapeGroup"></path>
                <path d="M65.5709574,40.3465957 L64.6071277,40.3465957 L64.9879787,38.5162766 L63.6980851,35.6519149 L64.7315957,35.6519149 L65.3129787,36.9689362 C65.4507447,37.2848936 65.5432979,37.5125532 65.5901064,37.6529787 C65.6693617,37.5146809 65.7597872,37.3689362 65.8645745,37.2130851 L66.3081915,36.5971277 L66.967766,35.6519149 L68.0858511,35.6519149 L65.9331915,38.6093617 L65.5709574,40.3465957 Z" id="Fill-41" fill="#383838" sketch:type="MSShapeGroup"></path>
                <path d="M69.3115426,40.3465957 L70.2870745,35.6519149 L71.2503723,35.6519149 L70.4376064,39.5620213 L72.8237766,39.5620213 L72.6642021,40.3465957 L69.3115426,40.3465957 Z" id="Fill-43" fill="#383838" sketch:type="MSShapeGroup"></path>
                <path d="M73.2873936,40.3465957 L74.2639894,35.6519149 L77.7320745,35.6519149 L77.5735638,36.4359574 L75.0607979,36.4359574 L74.8299468,37.5051064 L77.266117,37.5051064 L77.1070745,38.2896809 L74.6618617,38.2896809 L74.3873936,39.5620213 L77.1070745,39.5620213 L76.9363298,40.3465957 L73.2873936,40.3465957 Z" id="Fill-45" fill="#383838" sketch:type="MSShapeGroup"></path>
                <path d="M80.878617,40.3465957 L81.7935106,40.3465957 L81.0376596,35.6519149 L79.9509574,35.6519149 L77.3020213,40.3465957 L78.2982979,40.3465957 L78.8653191,39.3120213 L80.7248936,39.3120213 L80.878617,40.3465957 Z M79.2945745,38.5285106 L80.3275532,36.6407447 L80.6078723,38.5285106 L79.2945745,38.5285106 Z" id="Fill-47" fill="#383838" sketch:type="MSShapeGroup"></path>
                <path d="M84.9749468,37.8345213 L87.0754787,37.8345213 L86.6568617,39.8531383 C86.4089894,40.0132447 86.1057979,40.1494149 85.7462234,40.2595213 C85.386117,40.3706915 85.0201596,40.4254787 84.6467553,40.4254787 C84.0664362,40.4254787 83.6217553,40.2946277 83.3121809,40.0329255 C82.8898404,39.6744149 82.6786702,39.1536702 82.6786702,38.4733511 C82.6786702,38.0164362 82.7690957,37.5792021 82.9499468,37.1600532 C83.1685638,36.6563298 83.4776064,36.2659043 83.8781383,35.9882447 C84.2792021,35.711117 84.7504787,35.5728191 85.2930319,35.5728191 C85.8339894,35.5728191 86.2696277,35.6983511 86.5967553,35.9499468 C86.923883,36.2026064 87.1409043,36.5690957 87.2478191,37.0510106 L86.3494149,37.1520745 C86.2712234,36.8893085 86.1435638,36.6909043 85.9685638,36.5579255 C85.7930319,36.423883 85.5722872,36.3573936 85.3063298,36.3573936 C84.9956915,36.3573936 84.711117,36.4382447 84.4515426,36.6004787 C84.1914362,36.7621809 83.9887766,37.0127128 83.8419681,37.3515426 C83.6951596,37.6903723 83.6217553,38.061117 83.6217553,38.461117 C83.6217553,38.8557979 83.711117,39.1478191 83.8898404,39.3355851 C84.0690957,39.5249468 84.3307979,39.6190957 84.6760106,39.6190957 C84.8823936,39.6190957 85.0940957,39.5893085 85.3116489,39.5318617 C85.5286702,39.4728191 85.7164362,39.4031383 85.8733511,39.3222872 L86.0190957,38.6190957 L84.8153723,38.6190957 L84.9749468,37.8345213 Z" id="Fill-49" fill="#383838" sketch:type="MSShapeGroup"></path>
                <g id="Group-53">
                    <mask id="mask-6" sketch:name="Clip 52" fill="white">
                        <use xlink:href="#path-5"></use>
                    </mask>
                    <g id="Clip-52"></g>
                    <path d="M88.4879787,35.6518085 L89.4512766,35.6518085 L88.8911702,38.2076596 L88.7565957,38.8326596 C88.7454255,38.8858511 88.7347872,38.9534043 88.7241489,39.0374468 C88.7241489,39.2060638 88.798617,39.3448936 88.9459574,39.455 C89.0938298,39.5640426 89.3081915,39.6193617 89.5895745,39.6193617 C89.842766,39.6193617 90.0518085,39.5757447 90.217234,39.4885106 C90.3826596,39.4012766 90.5097872,39.2714894 90.6007447,39.098617 C90.6917021,38.9262766 90.7826596,38.6331915 90.8762766,38.2209574 L91.4092553,35.6518085 L92.3725532,35.6518085 L91.8209574,38.311383 C91.7028723,38.8289362 91.567766,39.2246809 91.4151064,39.498617 C91.2624468,39.7730851 91.0310638,39.9964894 90.7214894,40.167766 C90.411383,40.3401064 90.0198936,40.4257447 89.5464894,40.4257447 C88.98,40.4257447 88.5454255,40.292766 88.2454255,40.0246809 C87.9443617,39.7576596 87.7938298,39.4135106 87.7938298,38.9938298 C87.7964894,38.9065957 87.8081915,38.8129787 87.8289362,38.7124468 C87.8353191,38.6438298 87.8720213,38.4496809 87.9385106,38.1294681 L88.4879787,35.6518085 Z" id="Fill-51" fill="#383838" sketch:type="MSShapeGroup" mask="url(#mask-6)"></path>
                </g>
                <path d="M92.2040957,40.3465957 L93.1796277,35.6519149 L96.6477128,35.6519149 L96.4892021,36.4359574 L93.9764362,36.4359574 L93.746117,37.5051064 L96.1822872,37.5051064 L96.0232447,38.2896809 L93.5775,38.2896809 L93.3025,39.5620213 L96.0232447,39.5620213 L95.8519681,40.3465957 L92.2040957,40.3465957 Z" id="Fill-54" fill="#383838" sketch:type="MSShapeGroup"></path>
            </g>
        </g>
    </g>
</svg>