<?xml version="1.0" encoding="UTF-8" standalone="no"?>
<svg width="55px" height="86px" viewBox="0 0 55 86" version="1.1" xmlns="http://www.w3.org/2000/svg" xmlns:xlink="http://www.w3.org/1999/xlink" xmlns:sketch="http://www.bohemiancoding.com/sketch/ns">
    <!-- Generator: Sketch 3.4.4 (17249) - http://www.bohemiancoding.com/sketch -->
    <title>Page 1</title>
    <desc>Created with Sketch.</desc>
    <defs>
        <path id="path-1" d="M0,0 L55,0 L55,86 L0,86 L0,0 Z"></path>
    </defs>
    <g id="Homepage" stroke="none" stroke-width="1" fill="none" fill-rule="evenodd" sketch:type="MSPage">
        <g id="Artboard-4" sketch:type="MSArtboardGroup" transform="translate(-614.000000, -922.000000)">
            <g id="Page-1" sketch:type="MSLayerGroup" transform="translate(614.000000, 922.000000)">
                <g id="Group-3">
                    <mask id="mask-2" sketch:name="Clip 2" fill="white">
                        <use xlink:href="#path-1"></use>
                    </mask>
                    <g id="Clip-2"></g>
                    <path d="M50,71.3477649 C50,72.4089015 49.8306,73.3735373 49.4883167,74.2095054 C49.1696833,74.9986176 48.6836667,75.7049883 48.0528167,76.3053756 C47.38255,76.9418344 46.5247333,77.4756565 45.512,77.886761 C44.4019167,78.3389572 43.1086833,78.6563499 41.66035,78.8183001 C38.8779,79.1375522 36.3559667,79.6168951 34.16,80.2498211 C32.3431667,80.7767637 30.7325833,81.4108053 29.37775,82.1366993 C28.8226167,82.4302922 28.3461333,82.7210961 27.9360167,83 C27.5282833,82.7210961 27.05345,82.4302922 26.4988667,82.1366993 C25.1425667,81.4108053 23.5327167,80.7767637 21.7138667,80.2498211 C19.52285,79.6168951 16.99835,79.1375522 14.2157167,78.8183001 C12.7670167,78.6563499 11.4701167,78.3389572 10.36315,77.886761 C9.34968333,77.4756565 8.49425,76.9418344 7.81885,76.3053756 C7.1869,75.7049883 6.76981667,74.9986176 6.44605,74.2095054 C6.1067,73.3735373 6,72.4089015 6,71.3477649 L6,37 L50,37 L50,71.3477649 Z M41,23 C40.6297686,26.6 37.4429068,29 34.0299439,29 L19.9675116,29 C16.557275,29 13.3724125,26.6 13,23 L41,23 Z M15.2275681,16.2184839 C15.7253903,15.7985323 16.3837006,15.3785806 16.7757424,15.1445645 C18.226497,14.2675806 19.9120769,12.2533387 20.9184447,11.0475968 C21.3250268,10.5632419 21.6163773,10.2305806 21.8364805,10.0151935 C22.8175846,9.05837097 23.8001428,9 23.9898932,9 L24.017338,9 L33.7589497,9 C34.4178053,9 34.9488884,9.51451613 34.9488884,10.1546452 C34.9488884,10.7937097 34.4178053,11.3064516 33.7589497,11.3064516 L24.768706,11.3064516 C24.4201032,11.3064516 24.0162474,11.5188226 23.6910908,11.8922903 C23.3006848,12.3404516 23.099484,12.9246935 23.1727305,13.3772903 C23.239434,13.7631774 23.2819642,14.6774194 25.8485022,14.6774194 L34.0299439,14.6774194 C37.4429068,14.6774194 40.6297686,16.8064516 41,20 L13,20 C13.1793905,18.4032258 14.0214534,17.1520645 15.2275681,16.2184839 L15.2275681,16.2184839 Z M0,0 C0,0 2.84353642,2.49950694 2.84353642,6.65100271 L2.84353642,70.959911 C2.84353642,76.6059232 6.70602198,80.2213504 13.5160445,80.9927078 C25.066332,82.2933271 27.5052183,86 27.5052183,86 C27.5052183,86 30.0004994,82.2933271 41.5513361,80.9927078 C48.3589784,80.2213504 52.280422,76.6059232 52.280422,70.959911 L52.280422,6.65100271 C52.280422,2.49950694 55,0 55,0 L0,0 Z" id="Fill-1" fill="#383838" sketch:type="MSShapeGroup" mask="url(#mask-2)"></path>
                </g>
                <path d="M28.425826,76 C28.425826,76 28.1372377,69.0393989 28.1372377,68.3485582 C28.1372377,67.6511933 28.7408006,67.4150533 29.4602417,67.5636602 C30.1892777,67.7207848 36.9556035,69.0393989 36.9556035,69.0393989 C36.9556035,69.0393989 36.4391338,67.6334329 36.0758151,66.5884729 C35.7185856,65.5433316 36.1874493,65.3579355 36.4391338,65.1451739 L44,58.8487731 L42.8013621,58.281711 C42.0784151,57.9600315 42.1944778,57.3732156 42.3055585,56.9855691 L43.6174913,52.5291751 C43.6174913,52.5291751 40.4668229,53.2143978 39.7287453,53.3205973 C39.145295,53.4088553 38.9421392,53.1478871 38.7592805,52.7571598 L37.8138032,50.5938424 L33.8623206,54.7774884 C33.1181539,55.426103 32.3994509,54.9304447 32.5350727,54.168019 C32.6601768,53.4771782 34.5123824,45.2543249 34.5123824,45.2543249 C34.5123824,45.2543249 32.4679076,46.4299502 31.7864775,46.8190465 C31.1129818,47.2056056 30.7520619,47.1439882 30.391511,46.518027 C30.0309601,45.8828232 27.4964019,41 27.4964019,41 C27.4964019,41 24.9660876,45.8828232 24.6064593,46.518027 C24.2449858,47.1439882 23.8853575,47.2056056 23.2076179,46.8190465 C22.5295091,46.4299502 20.481344,45.2543249 20.481344,45.2543249 C20.481344,45.2543249 22.3414839,53.4771782 22.4645583,54.168019 C22.599811,54.9304447 21.8787093,55.426103 21.133251,54.7774884 L17.1837981,50.5938424 L16.2381362,52.7571598 C16.0571227,53.1478871 15.8543359,53.4088553 15.2655346,53.3205973 C14.5294868,53.2143978 11.2489166,52.5291751 11.2489166,52.5291751 L12.6913047,56.9855691 C12.8047841,57.3732156 12.9156802,57.9600315 12.194394,58.281711 L11,58.8487731 L18.5588365,65.1451739 C18.8099674,65.3579355 19.2827061,65.5433316 18.92031,66.5884729 C18.5588365,67.6334329 18.0429203,69.0393989 18.0429203,69.0393989 C18.0429203,69.0393989 24.8121984,67.7207848 25.5333002,67.5636602 C26.2571697,67.4150533 26.8620242,67.6511933 26.8620242,68.3485582 C26.8620242,69.0393989 26.5708526,76 26.5708526,76 L28.425826,76 Z" id="Fill-4" fill="#4D4D4F" sketch:type="MSShapeGroup"></path>
            </g>
        </g>
    </g>
</svg>