<?xml version="1.0" encoding="UTF-8" standalone="no"?>
<svg width="100px" height="99px" viewBox="0 0 100 99" version="1.1" xmlns="http://www.w3.org/2000/svg" xmlns:xlink="http://www.w3.org/1999/xlink" xmlns:sketch="http://www.bohemiancoding.com/sketch/ns">
    <!-- Generator: Sketch 3.4.4 (17249) - http://www.bohemiancoding.com/sketch -->
    <title>NBC Sports</title>
    <desc>Created with Sketch.</desc>
    <defs>
        <path id="path-1" d="M0,0.372761194 L99.6309701,0.372761194 L99.6309701,98.5074627 L0,98.5074627"></path>
        <path id="path-3" d="M0,0.372761194 L99.6309701,0.372761194 L99.6309701,98.5074627 L0,98.5074627"></path>
    </defs>
    <g id="Homepage" stroke="none" stroke-width="1" fill="none" fill-rule="evenodd" sketch:type="MSPage">
        <g id="Artboard-4" sketch:type="MSArtboardGroup" transform="translate(-442.000000, -615.000000)">
            <g id="NBC-Sports" sketch:type="MSLayerGroup" transform="translate(442.000000, 615.000000)">
                <path d="M54.9535075,2.38402985 C56.588209,0.730671642 58.9923134,0.0228358209 61.1986567,0.539253731 C64.4721642,1.16313433 67.0680597,4.63067164 66.7214179,8.16350746 C66.6251493,9.69 66.1064925,11.1452239 65.4176866,12.4795522 C62.5008955,19.3993284 59.599403,26.3254478 56.6941791,33.251194 C56.4781343,33.0370149 56.5311194,32.6847761 56.4624627,32.4056716 C55.4964179,25.9239552 54.5206716,19.4429851 53.5464179,12.9612687 C53.4202985,12.1806716 53.2557463,11.3060448 53.6740299,10.59 C54.3184328,9.46238806 55.5053731,8.91164179 56.4647015,8.14223881 C56.2329851,7.90641791 55.921791,7.75492537 55.5960448,7.76052239 C54.6658209,7.73738806 53.7333582,7.79970149 52.8042537,7.73029851 C52.7829851,5.73477612 53.5650746,3.74037313 54.9535075,2.38402985" id="Fill-1" fill="#383838" sketch:type="MSShapeGroup"></path>
                <g id="Group-5">
                    <mask id="mask-2" sketch:name="Clip 4" fill="white">
                        <use xlink:href="#path-1"></use>
                    </mask>
                    <g id="Clip-4"></g>
                    <path d="M39.6400746,1.83123134 C41.1822388,0.580858209 43.2344776,0.132350746 45.1326119,0.493544776 C46.9997761,0.857723881 48.6702985,2.10473881 49.7247761,3.7666791 C50.6960448,5.42339552 51.0490299,7.4763806 50.6501493,9.3883209 C49.4721642,17.3409328 48.3285075,25.2998881 47.1329851,33.2510075 C46.53,32.1383209 46.0393284,30.963694 45.5501493,29.7901866 C42.8307463,23.3562313 40.1229104,16.9151866 37.4012687,10.4812313 C36.1199254,7.49876866 37.2311194,3.77936567 39.6400746,1.83123134" id="Fill-3" fill="#383838" sketch:type="MSShapeGroup" mask="url(#mask-2)"></path>
                </g>
                <path d="M25.2783955,13.2314925 C26.5433209,11.474403 28.6601119,10.3221642 30.8582463,10.3426866 C33.7257836,10.2143284 36.6104851,11.9665672 37.6761567,14.6169403 C41.0287687,22.0057463 44.3802612,29.3923134 47.7418284,36.7751493 C47.8276493,36.9210448 47.8451866,37.0755224 47.7944403,37.2363433 C40.8731716,32.5535075 33.9813806,27.8266418 27.0668284,23.1352239 C25.438097,22.1076119 24.2955597,20.366194 24.001903,18.4814925 C23.7022761,16.6583582 24.1507836,14.713209 25.2783955,13.2314925" id="Fill-6" fill="#383838" sketch:type="MSShapeGroup"></path>
                <path d="M68.036903,14.2591045 C69.1577985,11.9210448 71.7145149,10.3837313 74.3260821,10.343806 C77.6115299,10.1822388 80.8137687,12.5777612 81.5316791,15.7370896 C81.9697388,17.7755224 81.5376493,20.0169403 80.2454851,21.6852239 C79.3913806,22.816194 78.0895149,23.4691791 76.9745896,24.3046269 C70.9391418,28.388209 64.8962313,32.4598507 58.8577985,36.5397015 C58.5059328,36.7807463 58.153694,37.0214179 57.7857836,37.2363433 C57.9268284,36.5979104 58.2432463,36.0210448 58.5059328,35.4266418 C61.6816791,28.3695522 64.8622761,21.3165672 68.036903,14.2591045" id="Fill-8" fill="#383838" sketch:type="MSShapeGroup"></path>
                <path d="M20.7599627,27.6944776 C23.1972761,25.8370149 26.9032463,25.798209 29.3726493,27.6176119 C35.5196642,31.8191045 41.6804851,35.9997015 47.8226493,40.206791 C42.685709,40.2661194 37.5491418,40.1620149 32.4103358,40.1814179 C29.8454104,40.1795522 27.2801119,40.1825373 24.7151866,40.1814179 C22.4312313,40.1433582 20.2629478,38.8676119 19.0185448,37.0135075 C18.0782463,35.5422388 17.7554851,33.7258209 18.0260075,32.0172388 C18.3118284,30.2933582 19.3823507,28.7668657 20.7599627,27.6944776" id="Fill-10" fill="#383838" sketch:type="MSShapeGroup"></path>
                <path d="M76.8460075,26.7390299 C78.9475,25.9793284 81.4150373,26.1423881 83.3221269,27.3304478 C85.1553358,28.4875373 86.5191418,30.4625373 86.6594403,32.6241045 C86.7702612,34.1774627 86.4042164,35.7856716 85.5325746,37.0961194 C84.3127985,38.8573134 82.2616791,40.0834328 80.0739925,40.1797015 C74.8340672,40.2099254 69.591903,40.1435075 64.3534701,40.2233582 C61.8314552,40.2185075 59.3094403,40.2341791 56.7896642,40.2173881 C62.5825746,36.2099254 68.4299627,32.2729851 74.2441418,28.2908955 C75.0877985,27.7401493 75.8747388,27.0729851 76.8460075,26.7390299" id="Fill-12" fill="#383838" sketch:type="MSShapeGroup"></path>
                <path d="M70.7760075,47.0275 C73.5025,45.1282463 76.8551119,44.2782463 80.1409328,44.3383209 C83.1345896,44.3278731 86.2002612,44.9360821 88.7778731,46.5375746 C89.5715299,47.0275 90.3248881,47.5901866 91.019291,48.2166791 C89.691306,49.5622015 88.3924254,50.9360821 87.0584701,52.2756343 C85.3722761,50.9125746 83.4088433,49.8025 81.2394403,49.538694 C78.7133209,49.1595896 75.9834701,49.8763806 74.1200373,51.6901866 C72.4472761,53.2767537 71.5816045,55.6704104 71.8151866,57.9782463 C71.9965299,60.2517537 73.2297388,62.4159328 75.0957836,63.691306 C77.0961567,65.0935448 79.6804851,65.4118284 82.0293657,64.9338433 C84.0021269,64.5737687 85.7226493,63.4424254 87.258097,62.1901866 C88.5704104,63.3842164 89.9025,64.5566045 91.2062313,65.763694 C90.2282463,66.7233955 89.135709,67.5618284 87.9659328,68.2685448 C88.196903,67.7595896 88.1017537,67.1379478 87.6804851,66.7677985 C87.0461567,66.2125746 86.3159328,65.7797388 85.569291,65.4051119 C85.0319776,65.1353358 84.3995149,65.4204104 84.008097,65.8233955 C82.6103358,67.2148134 81.3092164,68.7043657 80.0551119,70.2293657 C76.8316045,70.3439179 73.5528731,69.4853358 70.8614552,67.6651866 C68.9099627,66.3457836 67.3025,64.4875746 66.3394403,62.3129478 C65.0610821,59.4308582 64.9666791,56.0401866 66.0424254,53.0775 C66.9297388,50.6159328 68.6424254,48.4950373 70.7760075,47.0275" id="Fill-14" fill="#383838" sketch:type="MSShapeGroup"></path>
                <path d="M13.9484328,45.2212313 C15.779403,45.2204851 17.6103731,45.2212313 19.440597,45.2204851 C19.6879851,45.1484701 19.8114925,45.3839179 19.9525373,45.5309328 C24.2040299,50.5171269 28.4685821,55.4906343 32.7234328,60.4745896 C32.7088806,55.3906343 32.7197015,50.3059328 32.7167164,45.2212313 C34.7637313,45.2204851 36.8088806,45.2212313 38.8558955,45.2212313 L38.8558955,70.1141418 L33.5502985,70.1141418 C29.0652239,64.8671269 24.5797761,59.623097 20.0868657,54.3839179 C20.0827612,56.7816791 20.1002985,59.5555597 20.0771642,61.9540672 C18.0107463,62.053694 15.9633582,62.4051866 13.9514179,62.8850373 C13.9454478,57.1227239 13.9502985,50.9850373 13.9484328,45.2212313" id="Fill-16" fill="#383838" sketch:type="MSShapeGroup"></path>
                <path d="M57.8645896,63.3729104 C56.9541418,63.9643284 55.7892164,64.1005224 54.6959328,64.1367164 L46.8272761,64.1367164 C46.8254104,62.4766418 46.8254104,60.8158209 46.8272761,59.1561194 C49.4504104,59.1579851 52.074291,59.1505224 54.6977985,59.1609701 C55.8224254,59.2210448 57.0455597,59.3497761 57.9530224,60.016194 C59.1011567,60.8169403 59.0429478,62.6139552 57.8645896,63.3729104 M46.8283955,49.193806 C48.7892164,49.1919403 50.7515299,49.1949254 52.7127239,49.1919403 C53.8470522,49.1919403 55.0828731,49.3061194 56.0082463,50.0064925 C57.0384701,50.7807463 57.051903,52.491194 56.0354851,53.2833582 C55.149291,53.9777612 53.9582463,54.1023881 52.8616045,54.1665672 C50.8496642,54.1803731 48.8388433,54.1695522 46.8272761,54.1706716 C46.8272761,52.5120896 46.8254104,50.8527612 46.8283955,49.193806 M63.5533955,59.5266418 C62.5339925,58.3117164 61.0552612,57.6139552 59.5895896,57.105 C60.3642164,56.6348507 61.1638433,56.1747761 61.7746642,55.4897015 C63.8119776,53.3415672 63.6466791,49.5094776 61.4384701,47.5397015 C59.6433209,45.8788806 57.126903,45.3277612 54.7608582,45.2117164 C50.1227985,45.2020149 45.4866045,45.2094776 40.8485448,45.2087313 L40.8485448,70.1143284 C45.6451866,70.1128358 50.4418284,70.1165672 55.2366045,70.1128358 C57.4746642,70.0173134 59.7754104,69.6441791 61.7429478,68.5072388 C63.1291418,67.7083582 64.2511567,66.3732836 64.5888433,64.7781343 C64.9739179,62.9960448 64.7451866,60.9647015 63.5533955,59.5266418" id="Fill-18" fill="#383838" sketch:type="MSShapeGroup"></path>
                <path d="M83.9760075,67.1898507 C84.2603358,66.9114925 84.6036194,66.5152239 85.0450373,66.6536567 C85.6435448,66.9133582 86.1961567,67.2715672 86.7275,67.651791 C86.9629478,67.8320149 87.2409328,68.0566418 87.2349627,68.3864925 C87.169291,68.7133582 86.8812313,68.9159701 86.6804851,69.1558955 C85.5752612,70.3771642 84.4946642,71.6208209 83.3957836,72.848806 C87.0054851,72.3021642 90.6133209,71.6797761 94.2618284,71.4581343 C95.6416791,71.4383582 97.0659328,71.3420896 98.3954104,71.7954478 C98.9457836,71.9749254 99.4420522,72.3689552 99.6308582,72.9398507 L99.6308582,73.4827612 C99.3151866,74.3476866 98.6170522,74.9943284 97.9211567,75.5525373 C97.663694,75.790597 97.2860821,75.7476866 97.0416791,75.518209 C97.3077239,75.2420896 97.6648134,74.9947015 97.7528731,74.596194 C97.7644403,74.2305224 97.3532463,74.0693284 97.0700373,73.9723134 C96.0610821,73.6741791 94.9954104,73.6756716 93.9536194,73.6540299 C91.4890672,73.6831343 89.0286194,73.8887313 86.5797388,74.1764179 C84.9002612,74.4394776 83.2170522,74.701791 81.5338433,74.9480597 C80.7047388,75.9204478 79.8058582,76.8305224 79.0383209,77.8551493 C77.5047388,79.8756716 76.0461567,81.9730597 74.9398134,84.2648507 C74.5711567,85.1014179 74.160709,85.9607463 74.1103358,86.8898507 C74.0577239,87.2805224 74.3181716,87.740597 74.7521269,87.7047761 C75.6125746,87.6648507 76.3431716,87.1398507 77.0476493,86.6939552 C79.2562313,85.2029104 81.1972761,83.3562687 83.1196642,81.5167164 C84.9226493,79.7174627 86.7118284,77.901791 88.4129478,76.0036567 C88.8405597,75.5226866 89.1342164,74.7775373 89.833097,74.6588806 C90.713694,74.8323881 91.4051119,75.5398507 91.9036194,76.26 C92.119291,76.5980597 91.8062313,76.8715672 91.5204104,76.9969403 C91.0491418,77.2454478 90.8722761,77.7876119 90.6901866,78.2540299 C90.1872015,79.6838806 89.9674254,81.1909701 89.6793657,82.6749254 C89.371903,84.2883582 89.1521269,85.9883582 88.2502612,87.3980597 C91.4812313,85.3857463 94.2931716,82.768209 97.0525,80.1588806 C97.360709,79.9674627 97.8853358,80.1525373 97.9066045,80.5510448 C97.9689179,80.9051493 97.6711567,81.1618657 97.4573507,81.3928358 C95.8995149,82.9342537 94.2894403,84.4185821 92.6275,85.8443284 C91.0554851,87.1398507 89.5058582,88.5947015 87.5215299,89.2032836 C86.0289925,89.6622388 84.2842164,89.7402239 82.9133209,88.879403 C82.2092164,88.4603731 81.5472761,87.8514179 81.3207836,87.0305224 C81.1950373,86.6342537 81.2595896,86.1073881 81.6644403,85.9047761 C82.3360821,85.4790299 83.1916791,86.0954478 83.3181716,86.8085075 C83.4349627,87.0838806 83.3842164,87.5779104 83.8006343,87.5700746 C84.3711567,87.3943284 84.6756343,86.8200746 84.9875746,86.3521642 C86.3364552,84.0114925 87.0375746,81.36 87.5077239,78.7122388 C85.6282463,80.6719403 83.7424254,82.6286567 81.7595896,84.4812687 C80.2185448,85.8935821 78.663694,87.3170896 76.8946642,88.4335075 C75.9312313,89.0092537 74.7084701,89.5085075 73.613694,89.0014179 C72.5028731,88.4103731 71.6756343,87.2551493 71.5666791,85.9775373 C71.4151866,84.721194 71.8801119,83.5114925 72.396903,82.3969403 C70.5599627,84.3510448 68.7901866,86.4047761 66.6446642,88.023806 C65.6745149,88.7368657 64.4498881,89.3670896 63.2248881,89.0040299 C61.9461567,88.5558955 60.9704104,87.1663433 61.1696642,85.7771642 C61.3215299,84.4566418 61.9890672,83.2715672 62.6924254,82.1756716 C63.4991418,81.0021642 64.2890672,79.8077612 65.2405597,78.7465672 C64.5946642,78.4070149 63.9465299,78.0697015 63.3204104,77.6928358 C61.7263806,79.4170896 59.8640672,81.0111194 57.610709,81.754403 C57.0797388,82.9312687 56.3771269,84.0223134 55.5674254,85.0226866 C54.3745149,86.5126119 52.9521269,87.86 51.2476493,88.7264179 C50.0760075,89.3226866 48.5797388,89.5312687 47.4226493,88.7913433 C46.3021269,88.0741791 45.2513806,87.0335075 44.9700373,85.6752985 C44.6032463,84.0842537 45.0140672,82.4137313 45.7633209,80.9976866 C46.9950373,78.679403 48.8084701,76.646194 51.0532463,75.2943284 C52.2819776,74.5450746 53.7644403,74.1502985 55.1939179,74.4264179 C56.1756343,74.7368657 56.9819776,75.4801493 57.558097,76.3279104 C57.9066045,76.8641045 58.1577239,77.6316418 57.7439179,78.204403 C57.558097,78.4835075 57.194291,78.3842537 56.9200373,78.3771642 C56.9625746,78.1454478 57.0092164,77.9159701 57.0558582,77.6861194 C56.9353358,77.4174627 56.8666791,77.015597 56.519291,76.9641045 C55.6823507,76.7891045 54.8495149,77.1409701 54.1021269,77.4857463 C51.7651866,78.6663433 49.9566045,80.7282836 48.7099627,83.0193284 C48.1681716,84.0697015 47.6427985,85.2029104 47.6778731,86.4133582 C47.6864552,87.0424627 48.1439179,87.726791 48.821903,87.7062687 C49.8338433,87.7032836 50.7263806,87.1122388 51.5062313,86.5167164 C53.3745149,85.0775373 54.6726493,83.0443284 55.7797388,80.9846269 C55.3651866,80.5883582 54.7812313,80.0320149 55.0983955,79.3995522 C55.3916791,78.6715672 56.3364552,78.6976866 56.9278731,79.0055224 C57.435709,79.2379851 57.6476493,79.801791 57.7875746,80.3085075 C59.513694,79.6756716 60.9569776,78.4573881 62.2110821,77.1323881 C61.4733955,76.0529104 61.9577239,74.543209 62.9483955,73.8163433 C63.5166791,73.4070149 64.4711567,73.5364925 64.7472761,74.240597 C65.0316045,75.0853731 64.569291,75.9387313 64.1625746,76.6558955 C65.2677985,77.4633582 66.5756343,77.9114925 67.8599627,78.3372388 C68.1457836,78.4476866 68.5566045,78.4775373 68.6401866,78.840597 C68.9573507,79.5185821 68.4360821,80.1670896 68.0748881,80.6976866 C66.7427985,82.3816418 65.2998881,84.0062687 64.3025,85.9279104 C64.0789925,86.4025373 63.7946642,86.9659701 64.0293657,87.490597 C64.2543657,87.7581343 64.6461567,87.5939552 64.9226493,87.5029104 C66.035709,86.9920896 66.963694,86.1626119 67.8872015,85.3704478 C70.3118284,83.215597 72.5297388,80.8383582 74.7230224,78.4469403 C75.4722761,77.5185821 76.1338433,76.5193284 76.8879478,75.5924627 C74.8420522,75.8808955 72.7898134,76.123806 70.7551119,76.4816418 C70.2036194,76.5902239 69.5730224,76.5312687 69.1599627,76.1107463 C68.7226493,75.6223134 68.5293657,74.9189552 68.6275,74.2719403 C68.9730224,74.1596269 69.2006343,74.6021642 69.5450373,74.5458209 C72.4946642,74.2958209 75.4498881,74.0480597 78.3853358,73.6502985 C80.158097,71.4200746 81.983097,69.2245522 83.9760075,67.1898507" id="Fill-20" fill="#383838" sketch:type="MSShapeGroup"></path>
                <path d="M13.9484328,68.2301866 C16.2316418,67.753694 18.5670896,67.4335448 20.921194,67.2484701 C20.9241791,68.2447388 20.921194,69.2406343 20.9223134,70.2372761 L13.9484328,70.2372761 L13.9484328,68.2301866 Z" id="Fill-22" fill="#383838" sketch:type="MSShapeGroup"></path>
                <g id="Group-26">
                    <mask id="mask-4" sketch:name="Clip 25" fill="white">
                        <use xlink:href="#path-3"></use>
                    </mask>
                    <g id="Clip-25"></g>
                    <path d="M19.9058582,83.0814179 C18.038694,84.953806 15.7543657,86.3556716 13.4498881,87.6392537 C11.196903,88.8437313 8.8025,89.8858955 6.25511194,90.2728358 C5.81070896,90.3284328 5.0275,90.4187313 4.98160448,89.7985821 C5.0905597,89.4172388 5.40100746,89.1381343 5.66369403,88.8575373 C6.4644403,88.1217164 7.38570896,87.5321642 8.29652985,86.9426119 C12.2222761,84.4769403 16.5275,82.6806716 20.8760075,81.0933582 C21.1181716,81.895597 20.3610821,82.5187313 19.9058582,83.0814179 M42.5816045,75.1776866 C41.7711567,74.7836567 40.8185448,74.9329104 40.0028731,75.2396269 C36.7241418,76.409403 33.9125746,78.5754478 31.2816045,80.8235821 C32.7196642,79.2332836 34.1129478,77.5959701 35.6666791,76.123209 C35.9457836,75.7993284 35.7827239,75.3265672 35.5021269,75.0664925 C34.9028731,74.4601493 34.2558582,73.9023134 33.5924254,73.3691045 C33.3946642,73.1888806 33.1401866,73.1291791 32.8808582,73.1183582 C32.8879478,73.3638806 32.9006343,73.6064179 32.9159328,73.8515672 C32.096903,75.1608955 30.5965299,75.7418657 29.2916791,76.4224627 C27.0707836,77.3086567 24.7890672,78.0347761 22.5424254,78.8552985 C21.5051119,78.0090299 20.1860821,77.6664925 18.9114552,77.3773134 C14.9069776,76.5448507 10.8028731,76.4795522 6.73869403,76.1929851 C5.60735075,76.0911194 4.46406716,76.0284328 3.35399254,75.7672388 C2.98048507,75.6545522 2.48496269,75.5179851 2.39429104,75.0698507 C2.33197761,74.6691045 2.58011194,74.3004478 2.80511194,73.9937313 C3.45996269,73.181791 4.2905597,72.5381343 5.12451493,71.926194 C7.81593284,69.9728358 10.9118284,68.6575373 14.091306,67.7564179 C17.9304851,66.7291791 21.9625746,66.0474627 25.9304851,66.6388806 C26.294291,66.751194 26.8789925,66.7370149 26.988694,67.1892537 C26.791306,67.584403 26.4301119,67.8571642 26.0819776,68.1123881 C23.8767537,69.6112687 21.5487687,70.9254478 19.1353358,72.0478358 C18.8812313,72.1433582 18.5920522,72.4739552 18.8939179,72.7071642 C19.3495149,73.0306716 19.933097,72.9470896 20.4547388,72.9075373 C22.7125746,72.6780597 24.9047388,71.9302985 26.9099627,70.8713433 C27.7398134,70.3903731 28.6450373,69.8426119 29.0390672,68.9161194 C29.2916791,67.9306716 29.0416791,66.901194 28.7517537,65.9508209 C28.4345896,64.851194 27.5301119,64.0239552 26.5278731,63.5508209 C25.0778731,62.8668657 23.4551119,62.645597 21.869291,62.6549254 C15.9379478,62.7855224 10.0390672,64.5142537 4.98458955,67.6653731 C3.85212687,68.3985821 2.71182836,69.1370149 1.72488806,70.0661194 C0.946529851,70.8146269 0.236455224,71.7075373 -0.000111940298,72.7903731 L-0.000111940298,73.7362687 C0.115932836,75.2235821 0.66369403,76.8773134 2.04839552,77.6191045 C3.37115672,78.2284328 4.83757463,78.4172388 6.26966418,78.5672388 C9.22264925,78.8683582 12.1883209,78.9623881 15.1480224,79.1605224 C16.7554851,79.2612687 18.3674254,79.4164925 19.9360821,79.8056716 C15.5808582,81.4642537 11.2338433,83.2541791 7.32152985,85.8340299 C6.39727612,86.4579104 5.47488806,87.1224627 4.77227612,88.0041791 C4.2394403,88.6668657 3.99578358,89.5929851 4.2666791,90.4202239 C4.65175373,91.3896269 5.51369403,92.134403 6.52302239,92.3668657 C8.48123134,92.8347761 10.5304851,92.4112687 12.3905597,91.7332836 C15.5215299,90.5672388 18.3745149,88.6769403 20.7513806,86.315 C21.7084701,85.356791 22.6047388,84.2802985 23.0890672,82.9918657 C23.4689179,82.009403 23.4939179,80.9030597 23.2032463,79.8937313 C25.2872015,79.1627612 27.3916791,78.4922388 29.510709,77.8780597 C26.7166791,81.3228358 24.0513806,84.9295522 22.1028731,88.9444776 C21.1122015,91.0985821 20.1995149,93.4702239 20.5838433,95.8888806 C20.8054851,96.8866418 21.2834701,97.9433582 22.1603358,98.5075373 L22.6114552,98.5075373 C22.7383209,97.9209701 21.9051119,97.8209701 21.9506343,97.2459701 C21.9360821,95.6519403 22.516306,94.1164925 23.1640672,92.6858955 C23.7595896,91.1840299 24.7196642,89.8728358 25.6510075,88.570597 C27.4483955,86.0993284 29.6177985,83.9340299 31.944291,81.9765672 C34.2372015,80.0564179 36.7021269,78.3187313 39.3842164,77.001194 C40.069291,76.6974627 40.7834701,76.3000746 41.5558582,76.3926119 C41.9189179,76.5866418 41.8379478,77.073209 41.766306,77.4108955 C41.3282463,78.9967164 40.3804851,80.3646269 39.4174254,81.6661194 C38.2304851,83.2739552 36.9420522,84.8597761 35.3054851,86.0183582 C34.3733955,86.6392537 33.2409328,87.2638806 32.0950373,86.9023134 C31.2816045,86.6728358 30.9603358,85.7437313 31.0133209,84.9653731 C30.6334701,84.9974627 30.3931716,85.3280597 30.3845896,85.6963433 C30.3211567,86.8172388 30.810709,88.0202239 31.7898134,88.6105224 C32.9733955,89.3336567 34.4592164,89.2840299 35.741306,88.8773134 C37.5454104,88.3280597 38.9972761,87.048209 40.3804851,85.8112687 C42.4189179,83.9713433 44.0039925,81.5967164 44.7801119,78.9377612 C45.1151866,77.3276866 43.8122015,75.9713433 42.5816045,75.1776866" id="Fill-24" fill="#383838" sketch:type="MSShapeGroup" mask="url(#mask-4)"></path>
                </g>
            </g>
        </g>
    </g>
</svg>