<?xml version="1.0" encoding="UTF-8" standalone="no"?>
<svg width="100px" height="80px" viewBox="0 0 100 80" version="1.1" xmlns="http://www.w3.org/2000/svg" xmlns:xlink="http://www.w3.org/1999/xlink" xmlns:sketch="http://www.bohemiancoding.com/sketch/ns">
    <!-- Generator: Sketch 3.4.4 (17249) - http://www.bohemiancoding.com/sketch -->
    <title>Page 1</title>
    <desc>Created with Sketch.</desc>
    <defs>
        <path id="path-1" d="M0,0.0360946746 L99.5585799,0.0360946746 L99.5585799,79.8816568 L0,79.8816568 L0,0.0360946746 Z"></path>
    </defs>
    <g id="Homepage" stroke="none" stroke-width="1" fill="none" fill-rule="evenodd" sketch:type="MSPage">
        <g id="Artboard-4" sketch:type="MSArtboardGroup" transform="translate(-592.000000, -625.000000)">
            <g id="Page-1" sketch:type="MSLayerGroup" transform="translate(592.000000, 625.000000)">
                <g id="Group-3">
                    <mask id="mask-2" sketch:name="Clip 2" fill="white">
                        <use xlink:href="#path-1"></use>
                    </mask>
                    <g id="Clip-2"></g>
                    <path d="M96.7423669,58.8306509 C96.896213,57.5105325 95.9654438,56.8300592 95.9654438,56.8300592 C96.7902959,57.9963314 95.7932544,59.584497 95.7932544,59.584497 C94.9778698,60.0010651 94.1121893,59.4791716 94.1121893,59.4791716 C94.7814201,57.4022485 93.2323077,56.3010651 93.2323077,56.3010651 C94.0571598,57.5010651 93.2997633,59.2839053 93.2997633,59.2839053 C91.7222485,59.7963314 91.2104142,58.7933728 91.2104142,58.7933728 C91.8453254,56.680355 90.1731361,55.8560947 90.1731361,55.8560947 C91.4583432,57.1229586 90.2950296,58.5560947 90.2950296,58.5560947 C88.7861538,59.1093491 87.4843787,58.0939645 87.4843787,58.0939645 C86.8731361,57.2253254 86.4530178,56.2134911 86.4530178,56.2134911 C83.3021302,55.0253254 84.1133728,53.1217751 84.1133728,53.1217751 C80.7654438,52.6111243 77.4991716,50.0898225 75.9133728,48.6986982 C75.8968047,48.5312426 75.8855621,48.3484024 75.8772781,48.1590533 C75.8749112,48.0969231 75.8743195,48.0342012 75.8725444,47.9702959 C75.8701775,47.8253254 75.8707692,47.6773964 75.8743195,47.5247337 C75.8760947,47.4584615 75.8772781,47.3951479 75.8808284,47.328284 C75.9021302,46.8933728 75.9607101,46.4377515 76.0719527,45.9809467 C76.0778698,45.9566864 76.079645,45.932426 76.0861538,45.9081657 C76.0873373,45.9099408 76.0891124,45.911716 76.0908876,45.9134911 C76.2198817,45.4069822 76.4110059,44.9052071 76.7033136,44.4430769 C76.7033136,44.4430769 75.8577515,44.8099408 75.1175148,45.7732544 C75.0311243,45.8850888 74.9465089,46.0052071 74.8642604,46.1347929 C74.8577515,46.1454438 74.8500592,46.1549112 74.8429586,46.1661538 C74.7583432,46.3022485 74.6772781,46.4484024 74.6009467,46.6040237 C74.5873373,46.6318343 74.5743195,46.6620118 74.5613018,46.6898225 C74.500355,46.8182249 74.444142,46.9537278 74.392071,47.0951479 C74.3760947,47.1383432 74.3601183,47.1815385 74.344142,47.2259172 C74.2843787,47.4022485 74.2287574,47.5856805 74.183787,47.7821302 C73.4589349,47.7756213 72.7820118,47.7164497 72.1577515,47.6170414 C72.1080473,47.3868639 72.0725444,47.1643787 72.0429586,46.9454438 C72.031716,46.8643787 72.0240237,46.7856805 72.0151479,46.7063905 C72.0009467,46.563787 71.9897041,46.4229586 71.9826036,46.2850888 C71.9784615,46.2069822 71.9731361,46.128284 71.9713609,46.0519527 C71.9672189,45.8702959 71.9689941,45.6915976 71.9766864,45.5182249 L71.9784615,45.5182249 C72.1246154,42.6194083 73.9192899,40.9904142 73.9192899,40.9904142 C71.7240237,41.4986982 70.5465089,43.2904142 70.083787,45.1525444 C69.927574,45.7839053 69.8512426,46.4253254 69.8465089,47.0259172 C68.7080473,46.6188166 67.8500592,46.1247337 67.2914793,45.7460355 C67.4536095,45.5057988 67.6080473,45.2572781 67.7571598,45.0040237 C67.8263905,44.8856805 67.8897041,44.763787 67.9559763,44.6424852 C68.3784615,43.8702959 68.7382249,43.0436686 68.9902959,42.1549112 C68.9902959,42.1549112 67.4985799,44.0383432 65.1287574,45.9566864 C65.4536095,44.8531361 65.3465089,44.0856805 65.3465089,44.0856805 C64.5287574,45.5182249 61.952426,47.8732544 61.2471006,48.5028402 C61.200355,48.5265089 61.1530178,48.5478107 61.104497,48.5714793 C62.5494675,47.0513609 63.9571598,44.9614201 64.1897041,42.6939645 C65.9394083,42.9880473 66.9471006,43.4069822 66.9471006,43.4069822 C67.379645,41.7543195 66.9364497,40.1093491 66.9364497,40.1093491 C67.9932544,40.3667456 68.787929,40.8791716 68.787929,40.8791716 C68.6749112,40.263787 68.2861538,38.9702959 68.2861538,38.9702959 C70.1240237,39.6886391 71.8062722,40.8951479 71.8062722,40.8951479 C72.1802367,34.4134911 68.9488757,29.8939645 68.9488757,29.8939645 C69.4104142,29.8501775 69.931716,29.8821302 70.3636686,29.9271006 C71.1186982,30.4643787 71.8050888,31.0608284 72.4281657,31.6856805 C72.9547929,32.972071 73.8885207,35.815858 73.3216568,38.7448521 C73.3216568,38.7448521 74.5938462,38.0288757 74.7536095,34.5046154 C76.0684024,36.4176331 76.8772781,38.2229586 77.2624852,39.1892308 C76.4328994,39.7407101 75.2589349,40.9708876 75.0346746,43.5957396 C75.0346746,43.5957396 76.5843787,41.0590533 78.9299408,40.3874556 C79.8577515,40.7626036 80.7571598,41.2578698 81.6080473,41.8312426 C80.4364497,42.5484024 78.1642604,44.4211834 78.0968047,48.1353846 C78.0950296,48.2247337 78.0914793,48.3140828 78.092071,48.4052071 C78.0950296,48.6430769 78.104497,48.8862722 78.1257988,49.1389349 C78.1257988,49.1389349 78.1311243,49.12 78.1394083,49.0915976 C78.1405917,49.084497 78.1405917,49.0850888 78.1435503,49.0768047 C78.1536095,49.0418935 78.1689941,48.9921893 78.1897041,48.9300592 C78.192071,48.92 78.1950296,48.9123077 78.1979882,48.9016568 C78.2192899,48.8371598 78.2447337,48.7614201 78.2760947,48.6750296 C78.2820118,48.659645 78.287929,48.6442604 78.2932544,48.628284 C78.3257988,48.5383432 78.3624852,48.4413018 78.4062722,48.3342012 C78.4127811,48.3164497 78.4210651,48.2981065 78.4287574,48.2797633 C78.4471006,48.2336095 78.4654438,48.1874556 78.4867456,48.1383432 C78.4873373,48.1389349 78.487929,48.1389349 78.4885207,48.1395266 C79.1394083,46.6087574 80.7512426,43.8418935 83.9577515,43.7205917 C84.3749112,44.1146746 84.7689941,44.5194083 85.135858,44.9300592 C84.2749112,45.2442604 82.6938462,46.115858 82.1826036,48.3809467 C82.1826036,48.3809467 84.2222485,46.3815385 86.2500592,46.3057988 C86.3542012,46.4472189 86.4559763,46.5904142 86.5506509,46.7318343 C88.7553846,49.9614201 90.8388166,51.472071 92.035858,52.1401183 C91.0382249,52.1910059 90.548284,52.4253254 90.548284,52.4253254 C93.4855621,53.0300592 95.1808284,53.7868639 96.1512426,54.4614201 C96.1500592,54.4602367 96.1500592,54.4590533 96.1494675,54.4578698 C96.34,54.5904142 96.5015385,54.7194083 96.64,54.8442604 C96.6583432,54.8608284 96.6749112,54.8768047 96.6932544,54.8945562 C96.744142,54.9418935 96.7932544,54.9892308 96.8376331,55.0353846 C96.8571598,55.055503 96.875503,55.0756213 96.8938462,55.0957396 C96.931716,55.1377515 96.9684024,55.1785799 97.0009467,55.2188166 C97.0169231,55.2389349 97.031716,55.2578698 97.0471006,55.2768047 C97.0778698,55.3176331 97.1068639,55.3566864 97.1328994,55.3951479 C97.144142,55.411716 97.1553846,55.4276923 97.1654438,55.4430769 C97.1926627,55.4856805 97.2163314,55.5259172 97.2376331,55.5649704 C97.2435503,55.5756213 97.2494675,55.5868639 97.2547929,55.5963314 C97.2802367,55.6454438 97.3021302,55.6927811 97.3198817,55.736568 C98.2950296,58.1998817 96.7423669,58.8306509 96.7423669,58.8306509 L96.7423669,58.8306509 Z M53.6743195,74.3708876 C46.8985799,74.3708876 40.5530178,72.4992899 35.1198817,69.2513609 C35.5731361,69.2856805 36.0985799,69.3040237 36.7198817,69.2933728 L36.7778698,69.2933728 L36.823432,69.2578698 C39.1719527,67.4785799 40.5979882,65.9685207 42.3672189,63.3371598 C44.3766864,65.1921893 48.7151479,63.9880473 48.7151479,63.9880473 C49.0263905,64.0768047 50.5435503,64.7472189 50.5435503,64.7472189 C51.2547929,64.6436686 51.8257988,64.4957396 52.2843787,64.3288757 C52.9252071,64.967929 52.9263905,65.7673373 52.9263905,65.7673373 C53.5293491,65.1661538 53.5293491,64.3708876 53.3897041,63.7472189 C53.7814201,63.4478107 53.9731361,63.1466272 54.0648521,62.9164497 C54.2139645,62.8389349 54.3536095,62.7531361 54.4808284,62.6655621 C55.1252071,63.1123077 55.427574,64.0389349 55.427574,64.0389349 C55.8914793,63.0004734 55.6695858,62.1981065 55.427574,61.7306509 C55.7352663,61.2986982 55.8471006,60.9572781 55.8471006,60.9572781 C55.8423669,60.9217751 55.8346746,60.8892308 55.8293491,60.8572781 C55.9299408,60.772071 56.0252071,60.6850888 56.1139645,60.5933728 C56.8127811,61.2436686 56.9636686,62.024142 56.9636686,62.024142 C57.5778698,60.8549112 57.283787,59.9271006 56.9778698,59.3981065 C57.1476923,59.0827219 57.2299408,58.8602367 57.2299408,58.8602367 C57.2340828,58.6910059 57.2204734,58.5288757 57.1926627,58.3744379 C57.3039053,58.2620118 57.4050888,58.1478107 57.4979882,58.0347929 C58.1944379,58.680355 58.1914793,59.4691124 58.1914793,59.4691124 C58.8127811,58.4454438 58.5465089,57.2253254 58.327574,56.580355 C58.5672189,55.9081657 58.5684024,55.4271006 58.5684024,55.4271006 C57.7660355,51.7998817 52.6843787,52.036568 52.6843787,52.036568 C50.5021302,53.2726627 48.6033136,53.4892308 47.7394083,53.5146746 L47.0104142,52.203432 C48.1050888,52.0927811 49.4914793,51.776213 51.2050888,51.0756213 C53.5139645,50.1336095 57.2613018,50.3312426 59.2820118,52.3513609 C59.2820118,52.3513609 62.7423669,50.8383432 65.6204734,47.8134911 C68.2589349,49.6484024 74.023432,49.4087574 74.023432,49.4087574 C76.9216568,52.6626036 82.1802367,54.3123077 82.1802367,54.3123077 C81.9074556,55.6708876 82.4121893,56.380355 82.983787,56.7489941 C82.900355,57.4016568 82.9039053,58.2833136 83.3405917,58.9413018 C76.7654438,68.2643787 65.9240237,74.3708876 53.6743195,74.3708876 L53.6743195,74.3708876 Z M33.2613018,51.2921893 C32.7388166,50.4898225 32.3009467,49.6217751 31.9902959,48.6910059 C31.8139645,48.1643787 31.5145562,47.5957396 31.0849704,47.1418935 C32.4346746,42.0389349 36.2145562,41.4276923 36.2145562,41.4276923 C32.9861538,40.9785799 30.7263905,44.1146746 30.0033136,45.2856805 C30.0737278,44.8010651 30.1737278,44.1768047 30.3121893,43.4631953 C33.5784615,38.1253254 38.2654438,37.3383432 38.2654438,37.3383432 C35.9500592,36.2052071 32.4932544,38.5004734 31.3766864,39.3205917 C32.0009467,37.4194083 32.8636686,35.4691124 34.0465089,33.9347929 C34.0465089,33.9347929 32.5737278,34.2910059 32.1725444,34.4702959 C32.1725444,34.4702959 33.0648521,31.7347929 35.0263905,29.9359763 C35.0263905,29.9359763 31.6376331,31.9732544 30.2547929,36.3418935 C30.2547929,36.3418935 30.9672189,36.1194083 31.2364497,36.0750296 C31.2364497,36.0750296 28.1021302,41.167929 28.0186982,47.4418935 C28.0186982,47.4418935 28.7287574,47.4105325 29.5364497,48.3649704 L29.5376331,48.3649704 C29.5405917,48.367929 29.544142,48.3732544 29.5471006,48.3773964 C29.6352663,48.4827219 29.7246154,48.5992899 29.8145562,48.7294675 C29.835858,48.759645 29.8571598,48.7963314 29.8784615,48.8288757 C29.9447337,48.9294675 30.0110059,49.0353846 30.0766864,49.1513609 C30.1098225,49.2087574 30.1423669,49.2702959 30.175503,49.3318343 C30.2328994,49.4401183 30.2897041,49.555503 30.3465089,49.676213 C30.3778698,49.7436686 30.4092308,49.8087574 30.4405917,49.8797633 C30.5257988,50.0744379 30.6092308,50.2797633 30.6908876,50.5063905 C29.5802367,51.2111243 27.7855621,52.4288757 25.7506509,54.1265089 C25.6133728,54.0105325 25.4731361,53.8821302 25.3311243,53.7478107 C25.3015385,53.7194083 25.2719527,53.6904142 25.2417751,53.6620118 C25.1246154,53.5478107 25.0068639,53.4276923 24.887929,53.3016568 C24.8577515,53.2697041 24.827574,53.2383432 24.7968047,53.2046154 C24.6660355,53.0620118 24.535858,52.9140828 24.4056805,52.7560947 L24.4074556,52.7543195 C23.6080473,51.7827219 22.8340828,50.5105325 22.2760947,48.8572781 C22.2760947,48.8572781 21.7636686,51.6389349 23.2340828,54.2626036 C23.3104142,54.3981065 23.3938462,54.532426 23.4802367,54.6667456 C23.5323077,54.7466272 23.5820118,54.8271006 23.6376331,54.9063905 C23.7885207,55.12 23.9488757,55.3312426 24.131716,55.5383432 C22.2352663,57.2649704 20.2388166,59.3649704 18.4459172,61.8140828 C18.423432,61.8010651 18.4033136,61.7862722 18.379645,61.7714793 C18.3802367,61.7702959 18.3808284,61.7685207 18.3814201,61.7673373 C17.8340828,61.4229586 17.4648521,60.9140828 17.1902959,60.2868639 C15.2985799,55.9898225 12.8210651,56.2750296 12.8210651,56.2750296 C14.5127811,56.9874556 15.0056805,59.3507692 15.2293491,60.3312426 C15.6021302,61.9726627 16.4394083,63.1330178 17.079645,63.8205917 C16.9494675,64.0276923 16.8210651,64.2377515 16.6932544,64.4484024 C15.6050888,64.0342012 14.4411834,63.3123077 13.5465089,62.0602367 C13.5465089,62.0602367 13.8370414,64.3773964 15.9826036,65.6850888 C15.8636686,65.9028402 15.7488757,66.1265089 15.6346746,66.3484024 C14.2766864,65.9992899 12.2216568,65.1294675 11.0127811,62.9655621 C11.0127811,62.9655621 11.0423669,64.8744379 12.5169231,66.3732544 C12.4979882,66.3655621 12.4826036,66.359645 12.4636686,66.3519527 C12.4636686,66.3519527 11.8500592,67.7981065 11.3352663,70.2087574 C10.6121893,70.3472189 9.19325444,70.3306509 7.55893491,68.7578698 C7.55893491,68.7578698 8.03704142,71.7022485 11.0246154,71.8756213 C10.9240237,72.52 10.8352663,73.2052071 10.7695858,73.9312426 C10.7530178,74.1111243 10.7222485,74.3566864 10.6831953,74.6229586 L10.683787,74.6229586 C10.6175148,75.0785799 10.5240237,75.5992899 10.4246154,75.9833136 C10.4246154,75.9850888 10.4240237,75.9862722 10.4240237,75.9874556 C10.400355,76.0773964 10.3766864,76.1578698 10.3530178,76.2300592 C10.3488757,76.2442604 10.344142,76.2572781 10.34,76.2702959 C10.3151479,76.3418935 10.2902959,76.4052071 10.2660355,76.4495858 C10.2660355,76.4495858 9.68792899,76.884497 8.87668639,77.0359763 C8.90153846,76.6359763 8.88733728,76.2330178 8.78142012,75.9460355 C8.78142012,75.9460355 8.39443787,77.0744379 7.76899408,77.4915976 C7.76899408,77.4915976 6.70272189,77.7572781 5.88201183,76.9992899 C6.09147929,76.5235503 6.26189349,75.9466272 6.28319527,75.2927811 C6.28319527,75.2927811 5.62934911,76.5099408 4.91573964,77.0146746 C4.91573964,77.0146746 3.8364497,76.9093491 3.36130178,75.9560947 C3.36130178,75.9560947 3.9547929,75.1815385 3.77786982,74.1128994 C3.77786982,74.1128994 3.6104142,74.3330178 3.23704142,74.7501775 C2.5252071,73.8430769 2.73940828,72.5566864 2.73940828,72.5566864 C3.0104142,72.3276923 3.26130178,72.0797633 3.50094675,71.8182249 C5.05005917,70.1288757 5.95183432,67.8691124 6.42639053,66.2294675 C6.97668639,66.7904142 7.96544379,67.3087574 9.6547929,66.8407101 C9.6547929,66.8407101 7.79029586,65.9383432 6.86366864,64.2945562 C6.91692308,63.9454438 6.97668639,63.6105325 7.04,63.2904142 C7.43053254,63.9040237 8.12047337,64.5288757 9.34236686,64.8342012 C9.34236686,64.8342012 7.89857988,63.2342012 7.52106509,61.3691124 C8.03467456,59.6785799 8.57195266,58.7691124 8.57195266,58.7691124 C9.04828402,59.0667456 11.1269822,58.2359763 11.1269822,58.2359763 C10.8506509,56.4028402 11.3494675,54.963787 12.1559763,53.8211834 C14.756568,53.5839053 16.0672189,55.9697041 16.0672189,55.9697041 C16.2613018,53.7253254 14.6530178,52.5726627 13.779645,52.115858 C14.5731361,51.4643787 15.3914793,50.9614201 16.0039053,50.5667456 C16.1861538,50.4489941 16.3672189,50.3253254 16.548284,50.1975148 C16.8672189,50.9300592 17.4855621,51.7673373 18.6269822,52.6371598 C19.7808284,53.5146746 20.7914793,54.4986982 20.8749112,55.4229586 C20.8749112,55.4229586 21.627574,54.1460355 19.4252071,51.0886391 C19.1547929,50.7111243 18.6423669,49.7413018 18.4826036,48.6176331 C19.7453254,47.4560947 20.9630769,46.0927811 22.1009467,44.6602367 C22.7512426,46.311716 24.0151479,48.359645 26.4630769,49.6904142 C26.4630769,49.6904142 24.4115976,47.2140828 23.5636686,42.7318343 C24.0192899,42.1022485 24.4613018,41.4702959 24.8808284,40.8489941 C25.1263905,41.7543195 25.7518343,42.9655621 27.3121893,43.8336095 C27.3121893,43.8336095 26.1033136,41.2306509 26.2459172,38.7614201 C26.8311243,37.8371598 27.3613018,36.9685207 27.823432,36.1986982 C27.7281657,37.1543195 27.756568,38.5111243 28.3376331,39.8643787 C28.3376331,39.8643787 28.6009467,36.0353846 29.7471006,33.0484024 C31.2624852,30.9460355 32.7648521,29.1259172 34.2370414,27.5572781 C35.2246154,27.784497 36.8169231,28.4833136 37.2760947,30.6377515 C37.2760947,30.6377515 38.623432,27.7063905 35.8518343,25.92 C36.2488757,25.5389349 36.6417751,25.1768047 37.031716,24.8312426 C37.5843787,25.0063905 38.4263905,25.4057988 38.7719527,26.2513609 C38.7719527,26.2513609 39.0867456,25.3590533 38.0405917,23.9691124 C38.5979882,23.5128994 39.1471006,23.0910059 39.6891124,22.6992899 C39.8417751,24.2833136 40.4157396,26.1513609 41.4299408,27.1099408 C40.5394083,27.1413018 39.6867456,27.2371598 38.9121893,27.4247337 C38.9121893,27.4247337 39.8985799,27.4424852 41.2512426,27.5235503 C40.7766864,28.0040237 39.8790533,28.9957396 39.5074556,29.9572781 C39.5074556,29.9572781 41.1175148,29.7643787 42.0731361,29.8294675 C42.0731361,29.8294675 41.5760947,30.5087574 40.983787,31.7342012 C39.9802367,31.8004734 38.3666272,32.1815385 36.035858,33.5040237 C36.035858,33.5040237 38.4536095,32.7495858 40.3062722,33.3164497 C39.5914793,35.2188166 38.948284,37.8128994 39.0364497,40.8951479 C39.0364497,40.8951479 40.275503,40.0111243 41.9133728,39.3099408 C41.992071,39.715858 42.0613018,40.136568 42.1192899,40.567929 C42.1169231,40.6726627 42.1228402,40.776213 42.1299408,40.8791716 C42.1299408,40.8791716 42.1394083,40.8726627 42.1547929,40.8620118 C42.1991716,41.2478107 42.2328994,41.6389349 42.2512426,42.0312426 C40.4086391,41.8963314 36.1908876,42.0685207 34.3737278,46.107574 C34.3737278,46.107574 38.575503,42.5702959 42.1287574,44.4525444 C42.0334911,45.0182249 41.8849704,45.559645 41.6689941,46.0626036 C41.6689941,46.0626036 42.1050888,46.7839053 42.7056805,47.8306509 C41.5476923,48.1773964 39.3139645,49.2093491 38.727574,52.0827219 C38.727574,52.0827219 40.9435503,49.2732544 43.6891124,49.5809467 C44.6459172,51.3271006 45.6642604,53.3205917 46.056568,54.5578698 C45.6169231,55.1513609 45.3701775,55.7389349 45.3701775,55.7389349 C46.083787,55.1590533 47.600355,54.7584615 47.600355,54.7584615 C50.8979882,54.8904142 52.8618935,53.4205917 52.8618935,53.4205917 L53.1370414,53.428284 C53.1760947,53.4300592 53.2115976,53.436568 53.2494675,53.4395266 C53.3352663,53.4454438 53.4186982,53.4531361 53.500355,53.463787 C53.5784615,53.4726627 53.6542012,53.4839053 53.7287574,53.4963314 C53.804497,53.5099408 53.8784615,53.5235503 53.9512426,53.5401183 C54.0246154,53.5560947 54.096213,53.5738462 54.1660355,53.5933728 C54.2328994,53.611716 54.2991716,53.6306509 54.3636686,53.6513609 C54.4323077,53.6738462 54.4985799,53.6975148 54.5648521,53.7229586 C54.623432,53.7454438 54.6826036,53.767929 54.7388166,53.7921893 C54.8027219,53.82 54.8642604,53.8495858 54.9246154,53.8791716 C54.9766864,53.9046154 55.0287574,53.9300592 55.0778698,53.9572781 C55.1370414,53.9886391 55.1926627,54.0217751 55.2476923,54.0560947 C55.2932544,54.0833136 55.3388166,54.1105325 55.3826036,54.1389349 C55.4352663,54.1744379 55.4855621,54.2099408 55.5352663,54.2460355 C55.5749112,54.2750296 55.6151479,54.3040237 55.652426,54.332426 C55.700355,54.3702959 55.744142,54.407574 55.7885207,54.4454438 C55.8222485,54.4744379 55.856568,54.5028402 55.8891124,54.5318343 C55.9311243,54.5702959 55.9701775,54.6081657 56.0086391,54.6466272 C56.0370414,54.6750296 56.0666272,54.7022485 56.0932544,54.7300592 C56.1299408,54.7685207 56.1630769,54.8052071 56.1968047,54.8430769 C56.2204734,54.8697041 56.2453254,54.8963314 56.2672189,54.9223669 C56.2979882,54.9590533 56.3257988,54.9939645 56.3536095,55.0288757 C56.3725444,55.0531361 56.3932544,55.0779882 56.4104142,55.1010651 C56.4370414,55.1359763 56.4595266,55.167929 56.4820118,55.1998817 C56.496213,55.22 56.5121893,55.2418935 56.5252071,55.2608284 C56.5465089,55.2927811 56.5648521,55.3205917 56.5826036,55.3489941 C56.592071,55.3649704 56.6039053,55.3815385 56.6127811,55.3957396 C56.6299408,55.424142 56.6429586,55.4472189 56.6559763,55.4697041 C56.6618935,55.4797633 56.6684024,55.4910059 56.6731361,55.4992899 C56.6867456,55.5229586 56.6950296,55.5395266 56.7027219,55.5543195 C56.704497,55.5578698 56.7074556,55.563787 56.7092308,55.5661538 C56.7163314,55.5821302 56.7204734,55.5898225 56.7204734,55.5898225 C56.6891124,56.0880473 56.4607101,56.4821302 56.2595266,56.7401183 C55.2855621,55.8330178 53.931716,55.4697041 53.931716,55.4697041 C55.492071,56.4525444 55.7151479,57.8342012 55.7151479,57.8342012 C55.5287574,58.2306509 55.2050888,58.6525444 54.9151479,58.9910059 C53.892071,57.8750296 52.4459172,57.6111243 52.4459172,57.6111243 C54.3772781,58.9046154 54.0968047,60.0188166 54.0968047,60.0188166 C53.9547929,60.5821302 53.6843787,61.0004734 53.3926627,61.303432 C52.2139645,59.9259172 50.6772781,59.7525444 50.6772781,59.7525444 C51.7323077,60.2868639 52.3104142,61.6253254 52.3104142,61.6253254 C51.6583432,63.0507692 50.0086391,63.0507692 50.0086391,63.0507692 C49.74,62.6939645 48.4607101,61.9809467 48.4607101,61.9809467 C48.1666272,62.0211834 47.8897041,62.0478107 47.6216568,62.0667456 C47.5382249,62.0726627 47.4589349,62.0756213 47.3778698,62.080355 C47.1932544,62.0898225 47.0145562,62.0957396 46.8423669,62.0957396 C46.7618935,62.0963314 46.6814201,62.0963314 46.6039053,62.0945562 C46.4192899,62.0904142 46.2423669,62.0797633 46.0719527,62.0649704 C46.0263905,62.0608284 45.9772781,62.059645 45.9328994,62.0549112 C45.7246154,62.0330178 45.5287574,62.0022485 45.3423669,61.9655621 C45.2885207,61.9543195 45.2394083,61.9407101 45.1873373,61.9288757 C45.0547929,61.8992899 44.927574,61.8655621 44.8068639,61.828284 C44.7488757,61.8105325 44.6926627,61.7921893 44.6376331,61.7726627 C44.5228402,61.7318343 44.4133728,61.6880473 44.3086391,61.6418935 C44.2666272,61.6229586 44.2222485,61.6052071 44.1814201,61.5856805 C44.0435503,61.5188166 43.9139645,61.4466272 43.7938462,61.3691124 C43.7684024,61.3531361 43.7465089,61.3342012 43.7222485,61.3176331 C43.6269822,61.2537278 43.5376331,61.1862722 43.4542012,61.115858 C43.4186982,61.0868639 43.3855621,61.055503 43.3518343,61.0247337 C43.2826036,60.9620118 43.2175148,60.8969231 43.1559763,60.8300592 C43.127574,60.7986982 43.0979882,60.767929 43.0713609,60.7359763 C42.9956213,60.6472189 42.9257988,60.5560947 42.8624852,60.4626036 C42.856568,60.4531361 42.8488757,60.4448521 42.8423669,60.4353846 C42.7743195,60.332426 42.7151479,60.2265089 42.6601183,60.1194083 C42.6417751,60.0833136 42.6257988,60.0478107 42.6086391,60.0111243 C42.5731361,59.9359763 42.54,59.8608284 42.5110059,59.784497 C42.4950296,59.7448521 42.479645,59.7052071 42.4654438,59.6649704 C42.4370414,59.5833136 42.4121893,59.5022485 42.3891124,59.4205917 C42.3802367,59.3886391 42.3695858,59.3584615 42.3618935,59.3265089 C42.3340828,59.2176331 42.3110059,59.1099408 42.292071,59.0016568 C42.2843787,58.9608284 42.279645,58.92 42.2731361,58.8791716 C42.2624852,58.8093491 42.2530178,58.7395266 42.2453254,58.6702959 C42.24,58.6211834 42.235858,58.572071 42.231716,58.5235503 C42.2269822,58.463787 42.223432,58.4046154 42.2204734,58.3460355 C42.2186982,58.3123077 42.2157396,58.2768047 42.2145562,58.2442604 C42.2151479,58.2478107 42.2163314,58.2519527 42.2169231,58.255503 C42.1849704,57.2336095 42.4281657,56.4069822 42.4281657,56.4069822 C42.1394083,57.1004734 41.9169231,57.7330178 41.7512426,58.311716 C41.5163314,58.2022485 40.7766864,57.8478107 39.796213,57.2566864 C39.5666272,54.7146746 41.1115976,53.5318343 41.1115976,53.5318343 C39.1849704,53.8791716 38.4074556,55.2992899 38.1098225,56.1519527 C37.3938462,55.6424852 36.6364497,55.0460355 35.9009467,54.367929 C35.5914793,53.9702959 35.2950296,53.5868639 35.0542012,53.2750296 C35.1447337,49.3146746 38.1488757,47.8910059 38.1488757,47.8910059 C34.9169231,47.7738462 33.5542012,50.5797633 33.2613018,51.2921893 L33.2613018,51.2921893 Z M29.4388166,62.0330178 C29.4388166,62.4448521 29.456568,62.880355 29.492071,63.3336095 C29.3435503,63.4697041 28.9110059,63.836568 28.379645,64.0649704 C27.2873373,63.0004734 26.2624852,61.867929 25.3098225,60.6732544 C26.8204734,59.484497 28.5175148,58.3105325 30.3500592,57.2945562 C29.8601183,58.3986982 29.4388166,59.9507692 29.4388166,62.0330178 L29.4388166,62.0330178 Z M9.99029586,52.0933728 C10.0500592,51.0111243 9.20923077,50.3430769 9.20923077,50.3430769 C9.35183432,50.8874556 8.84946746,51.7484024 8.47254438,52.2910059 C8.10982249,52.3063905 7.74473373,52.2981065 7.38023669,52.2602367 C6.7991716,52.2010651 5.96899408,51.9531361 5.19680473,51.4235503 C6.6956213,50.8531361 7.41278107,50.0028402 7.73289941,49.4797633 C8.36544379,49.6217751 9.45183432,49.6614201 11.1766864,49.1211834 C11.5435503,49.5046154 12.1181065,50.324142 11.8902959,51.5253254 C11.2991716,51.7531361 10.6583432,51.9537278 9.99029586,52.0933728 L9.99029586,52.0933728 Z M3.5956213,49.5099408 C3.2252071,48.6779882 3.05242604,47.6182249 3.23585799,46.2833136 C3.25656805,46.1330178 3.28852071,45.9691124 3.33171598,45.7951479 C4.2104142,47.0501775 5.3956213,47.2330178 6.10568047,47.2123077 C6.05360947,47.7549112 6.14650888,48.2975148 6.49266272,48.736568 C5.52461538,49.6318343 4.27727811,49.6093491 3.5956213,49.5099408 L3.5956213,49.5099408 Z M5.90568047,41.7809467 C6.82047337,43.1182249 7.73763314,42.8519527 7.73763314,42.8519527 C7.22461538,42.2904142 7.1252071,41.432426 7.13349112,40.8040237 C7.7104142,40.4046154 8.36721893,40.0205917 9.1104142,39.6673373 C8.8695858,40.8643787 9.41988166,41.811716 9.87727811,42.3643787 C8.82461538,42.9347929 7.81159763,43.7347929 7.0252071,44.8590533 C6.9287574,44.9951479 6.82047337,45.1702959 6.71337278,45.3685207 C5.37668639,45.0856805 4.72639053,44.015858 4.46071006,43.411716 C4.83704142,42.8750296 5.31337278,42.3211834 5.90568047,41.7809467 L5.90568047,41.7809467 Z M11.6216568,38.7105325 C12.4364497,38.4667456 13.323432,38.2519527 14.292071,38.0815385 C14.292071,38.0815385 13.8465089,38.5253254 13.7571598,38.7057988 C13.7571598,38.7057988 14.483787,38.5300592 15.3465089,38.4531361 C15.0163314,38.9560947 14.4938462,39.9732544 14.7861538,41.0010651 C14.0571598,41.0478107 12.9376331,41.1933728 11.7240237,41.5821302 C11.2891124,40.476213 11.4553846,39.3537278 11.6216568,38.7105325 L11.6216568,38.7105325 Z M15.6453254,37.3501775 C15.644142,37.3560947 15.644142,37.3620118 15.644142,37.3685207 L15.6287574,37.3685207 C15.6287574,37.3685207 15.6382249,37.3578698 15.6453254,37.3501775 L15.6453254,37.3501775 Z M14.6435503,49.8271006 C14.2731361,50.0478107 13.9287574,50.2702959 13.6115976,50.4915976 C13.5772781,49.9513609 13.3902959,49.2312426 12.7743195,48.5205917 C13.096213,48.3821302 13.4323077,48.2288757 13.7867456,48.055503 C14.1613018,48.3921893 14.6175148,48.9756213 14.6435503,49.8271006 L14.6435503,49.8271006 Z M15.8453254,42.1442604 C15.9642604,43.2566864 16.1334911,44.3537278 16.3459172,45.4347929 C12.9660355,47.584497 9.42579882,49.259645 7.78201183,48.2022485 C7.15775148,47.8010651 7.29088757,46.1513609 8.40627219,44.9933728 C9.51988166,43.8336095 11.6163314,42.1377515 15.2713609,42.1377515 C15.435858,42.1377515 15.6323077,42.1418935 15.8453254,42.1442604 L15.8453254,42.1442604 Z M19.2465089,45.5981065 C18.331716,46.6294675 17.5216568,47.4661538 16.8518343,48.1081657 C16.8115976,47.7152663 16.6376331,47.2288757 16.1376331,46.7661538 C16.9973964,46.2489941 17.9323077,45.6442604 18.9465089,44.9342012 C19.0973964,45.0815385 19.2216568,45.2945562 19.2465089,45.5981065 L19.2465089,45.5981065 Z M56.0636686,18.4927811 C56.0636686,18.4927811 57.5624852,19.0377515 58.3263905,19.9188166 C57.6092308,20.0779882 56.935858,20.2489941 56.4115976,20.3779882 C54.9684024,19.3779882 52.3299408,19.4418935 52.3299408,19.4418935 C52.5749112,19.6170414 52.7891124,19.7578698 52.9642604,20.0028402 C51.4648521,19.6602367 49.6802367,19.3395266 48.6678107,19.6525444 C48.6678107,19.6525444 46.0897041,20.472071 45.6133728,20.7797633 C45.6133728,20.7797633 44.7855621,20.507574 43.7607101,20.2602367 C45.8328994,19.2691124 47.7370414,18.7371598 49.4133728,18.5205917 C53.0459172,18.0874556 55.1411834,18.6466272 56.2737278,19.2111243 L56.0636686,18.4927811 Z M68.0376331,25.7910059 C68.0376331,25.7910059 68.2328994,24.0927811 68.0885207,23.3253254 C68.0885207,23.3253254 67.4500592,23.2732544 65.6352663,24.6572781 C65.6352663,24.6572781 65.9897041,25.1359763 66.4553846,25.784497 C65.0985799,25.780355 63.7902959,25.9608284 62.6405917,26.2069822 C62.4252071,25.9963314 62.1885207,25.8093491 61.9453254,25.6407101 C61.6127811,25.411716 61.2719527,25.2170414 60.9328994,25.0626036 C60.7790533,25.0194083 60.6476923,24.9063905 60.5743195,24.7661538 C60.4707692,24.5631953 60.5595266,24.372071 60.7719527,24.3377515 C60.9873373,24.3057988 61.2447337,24.4436686 61.3500592,24.6466272 C61.387929,24.7194083 61.3991716,24.7898225 61.3902959,24.8537278 L62.3737278,24.4022485 L63.7950296,24.4643787 L64.5778698,24.4998817 C64.6488757,24.5312426 64.692071,24.5407101 64.6784615,24.5040237 L61.9820118,22.7850888 L58.5968047,24.2489941 L56.2459172,23.776213 L57.5601183,24.7069822 L53.383787,24.7069822 L54.6968047,23.776213 L52.3459172,24.2489941 L48.9618935,22.7850888 L46.2636686,24.5040237 C46.2506509,24.5407101 46.2950296,24.5312426 46.3660355,24.4998817 L47.1471006,24.4643787 L48.5678107,24.4022485 L49.5506509,24.8543195 C49.5423669,24.7898225 49.5547929,24.7194083 49.5914793,24.6466272 C49.6968047,24.4436686 49.9553846,24.3057988 50.1707692,24.3377515 C50.3831953,24.372071 50.4701775,24.5631953 50.3684024,24.7661538 C50.3210651,24.8584615 50.24,24.9336095 50.1494675,24.9874556 C50.1115976,25.0052071 50.048284,25.0347929 50.0104142,25.0519527 C49.6897041,25.2063905 49.3133728,25.4022485 48.9370414,25.6247337 C48.6571598,25.7880473 48.3713609,25.967929 48.0902959,26.1655621 C46.9855621,25.9413018 45.7453254,25.780355 44.4618935,25.784497 C44.9281657,25.1359763 45.2831953,24.6572781 45.2831953,24.6572781 C43.9589349,22.5886391 42.3394083,21.632426 42.3394083,21.632426 C43.4346746,21.7347929 44.683787,22.1756213 45.6991716,22.6584615 L45.8695858,23.5809467 C47.1453254,22.1969231 49.0110059,21.2738462 49.0110059,21.2738462 C51.4618935,20.5046154 55.4589349,22.1566864 55.4589349,22.1566864 C55.4589349,22.1566864 59.4547929,20.5046154 61.9056805,21.2738462 C61.9056805,21.2738462 63.4536095,21.9401183 64.6784615,23.1697041 C64.6784615,23.1697041 67.596213,21.580355 69.2654438,21.4276923 C69.2654438,21.4276923 69.6559763,24.1501775 68.0376331,25.7910059 L68.0376331,25.7910059 Z M63.1269822,26.7708876 C64.3110059,26.4424852 65.6725444,26.1951479 66.64,26.0430769 C66.8873373,26.3915976 67.1536095,26.772071 67.4115976,27.1472189 C66.1080473,27.2276923 64.7885207,27.4099408 63.5618935,27.6294675 C63.4613018,27.3164497 63.3104142,27.0312426 63.1269822,26.7708876 L63.1269822,26.7708876 Z M55.4589349,26.2697041 L52.852426,25.5318343 L58.0642604,25.5318343 L55.4589349,26.2697041 Z M58.9784615,35.5827219 C60.2299408,33.472071 58.875503,30.8489941 58.875503,30.8489941 C59.879645,30.6549112 60.8328994,31.4052071 60.8328994,31.4052071 C60.9731361,34.7495858 58.9784615,35.5827219 58.9784615,35.5827219 L58.9784615,35.5827219 Z M57.6695858,32.1182249 L56.9015385,31.7898225 L56.427574,32.0768047 L55.9352663,31.7898225 L55.4589349,32.0768047 L54.9855621,31.7898225 L54.4902959,32.0768047 L54.0151479,31.7898225 L53.2476923,32.1182249 C52.3719527,31.2714793 53.0843787,30.6560947 53.0843787,30.6560947 L54.0695858,31.1951479 L56.8476923,31.1951479 L57.8328994,30.6560947 C57.8328994,30.6560947 58.5465089,31.2714793 57.6695858,32.1182249 L57.6695858,32.1182249 Z M53.3867456,33.3164497 C55.2648521,32.6134911 55.4447337,35.7057988 55.4589349,36.5915976 C55.4731361,35.7057988 55.6530178,32.6134911 57.531716,33.3164497 C57.531716,33.3164497 56.3240237,35.7164497 57.2820118,37.2969231 C58.1956213,38.8093491 57.4127811,41.2099408 56.8512426,41.3892308 C56.527574,41.4981065 56.2151479,41.5229586 55.4589349,41.5229586 C54.7027219,41.5229586 54.3891124,41.4981065 54.0666272,41.3892308 C53.5062722,41.2099408 52.7228402,38.8093491 53.6376331,37.2969231 C54.5938462,35.7164497 53.3867456,33.3164497 53.3867456,33.3164497 L53.3867456,33.3164497 Z M51.8175148,40.615858 C52.3997633,42.2513609 53.8831953,43.1460355 53.8831953,43.1460355 L54.4630769,42.7620118 L55.0228402,43.1460355 L55.4589349,42.7620118 L55.8956213,43.1460355 L56.4547929,42.7620118 L57.035858,43.1460355 C57.035858,43.1460355 58.5192899,42.2513609 59.100355,40.615858 C59.100355,40.615858 59.7660355,42.4235503 58.0666272,44.0205917 L57.0127811,43.7312426 C57.0127811,43.7312426 56.4192899,44.0205917 55.4589349,44.0205917 C54.4979882,44.0205917 53.904497,43.7312426 53.904497,43.7312426 L52.8512426,44.0205917 C51.152426,42.4235503 51.8175148,40.615858 51.8175148,40.615858 L51.8175148,40.615858 Z M51.94,35.5827219 C51.94,35.5827219 49.9435503,34.7495858 50.0826036,31.4052071 C50.0826036,31.4052071 51.0382249,30.6549112 52.04,30.8489941 C52.04,30.8489941 50.687929,33.472071 51.94,35.5827219 L51.94,35.5827219 Z M61.5092308,27.2235503 L61.8328994,27.2016568 C61.879645,27.1827219 61.9287574,27.163787 61.9772781,27.1448521 C62.1808284,27.3507692 62.3346746,27.5856805 62.4145562,27.8501775 C59.8092308,28.384497 57.8666272,29.0105325 57.8666272,29.0105325 L62.2536095,29.1229586 C62.0630769,29.52 61.7423669,29.9631953 61.2494675,30.4620118 L56.7346746,29.6389349 L56.1033136,28.1892308 C56.8139645,27.2063905 59.8607101,25.9620118 59.8607101,25.9620118 C60.2831953,26.128284 60.7589349,26.3217751 61.1891124,26.5643787 C59.5749112,27.0229586 58.5204734,27.5128994 58.5204734,27.5128994 L61.5092308,27.2235503 Z M49.7938462,26.5827219 C50.2334911,26.3318343 50.7240237,26.1312426 51.1547929,25.9620118 C51.1547929,25.9620118 54.2021302,27.2063905 54.9139645,28.1892308 L54.2808284,29.6389349 L49.7648521,30.4620118 C49.2719527,29.9620118 48.9500592,29.5188166 48.7607101,29.1217751 L53.0500592,29.0105325 C53.0500592,29.0105325 51.1536095,28.3992899 48.5950296,27.8702959 C48.6701775,27.6081657 48.8175148,27.3768047 49.0110059,27.1732544 C49.035858,27.1827219 49.0618935,27.1933728 49.0843787,27.2016568 L49.4098225,27.2235503 L52.3997633,27.5128994 C52.3997633,27.5128994 51.3719527,27.0359763 49.7938462,26.5827219 L49.7938462,26.5827219 Z M43.5074556,27.1472189 C43.7630769,26.772071 44.0305325,26.3904142 44.2778698,26.0430769 C45.1476923,26.1797633 46.3352663,26.3933728 47.4287574,26.6732544 C47.1252071,26.9300592 46.8411834,27.2052071 46.5938462,27.4998817 C45.5926627,27.3413018 44.5447337,27.2111243 43.5074556,27.1472189 L43.5074556,27.1472189 Z M69.8328994,37.7945562 C69.8328994,37.7945562 68.4743195,37.0318343 66.6181065,37.0217751 C66.6181065,37.0217751 66.9488757,37.8418935 67.0068639,38.3016568 C67.0068639,38.3016568 65.3021302,37.8714793 64.4465089,37.8418935 C64.4465089,37.8418935 65.1867456,39.872071 64.7388166,41.0513609 C64.7388166,41.0513609 63.5305325,40.4371598 61.3056805,40.6128994 C61.3056805,40.6128994 62.2015385,45.0631953 60.0547929,46.0436686 C59.279645,46.4004734 57.6210651,46.9969231 55.4589349,46.9969231 C53.2956213,46.9969231 51.7944379,46.4235503 50.8630769,46.0436686 C48.8500592,45.284497 49.6192899,40.6128994 49.6192899,40.6128994 C48.2985799,40.4424852 46.5607101,41.0513609 46.5607101,41.0513609 C46.1133728,39.872071 46.8618935,37.8418935 46.8618935,37.8418935 C45.735858,37.9898225 43.6678107,38.7738462 43.6678107,38.7738462 C43.5115976,38.1874556 44.1334911,36.5182249 44.1334911,36.5182249 C42.5802367,36.8134911 41.3808284,37.7010651 41.3808284,37.7010651 C41.6926627,31.3744379 44.8021302,28.767929 44.8021302,28.767929 C43.875503,28.4146746 42.5802367,28.5868639 42.5802367,28.5868639 C42.7293491,28.3265089 42.931716,28.0081657 43.1559763,27.667929 C44.1802367,27.7626036 45.2465089,27.8951479 46.1802367,28.0744379 C45.7181065,28.8347929 45.5263905,29.6998817 45.8447337,30.6572781 C45.8447337,30.6572781 43.8240237,32.5052071 42.9435503,35.684497 C42.9435503,35.684497 43.6678107,35.02 45.735858,34.507574 C45.735858,34.507574 45.5417751,35.2773964 45.1151479,37.0081657 C45.1151479,37.0081657 46.2388166,36.6921893 47.9861538,36.3454438 C47.9861538,36.3454438 47.5968047,37.8910059 47.4417751,39.6294675 C47.4417751,39.6294675 49.7435503,39.0164497 50.627574,39.476213 C50.4973964,40.1306509 49.627574,44.6750296 52.64,45.4626036 C53.0808284,45.5785799 53.3376331,45.384497 53.5968047,45.3081657 C53.8530178,45.2318343 54.7104142,44.9785799 55.4589349,44.9785799 C56.2068639,44.9785799 57.0648521,45.2318343 57.3210651,45.3081657 C57.5784615,45.384497 57.8376331,45.5785799 58.2784615,45.4626036 C61.2897041,44.6750296 60.4311243,40.6495858 60.2991716,39.9975148 C60.1672189,39.3430769 60.1991716,37.4010651 60.1991716,37.4010651 C60.5737278,37.3915976 61.8642604,37.6312426 61.8642604,37.6312426 C60.3808284,34.2276923 63.6926627,32.4377515 63.6926627,32.4377515 C63.6204734,31.6702959 62.9589349,30.9779882 62.9589349,30.9779882 C63.5701775,29.9549112 63.7713609,29.0708876 63.704497,28.311716 C64.8240237,28.0040237 66.3328994,27.8016568 67.7607101,27.667929 C67.9849704,28.0093491 68.1873373,28.3265089 68.3376331,28.5868639 C68.3376331,28.5868639 67.4985799,28.5910059 66.5098225,28.767929 C66.5098225,28.767929 70.0216568,34.0383432 69.8328994,37.7945562 L69.8328994,37.7945562 Z M53.6743195,1.79869822 C73.6826036,1.79869822 89.9607101,18.076213 89.9607101,38.0850888 C89.9607101,41.2649704 89.5459172,44.3495858 88.7743195,47.2927811 C88.1382249,46.5560947 87.6997633,45.9430769 87.4630769,45.5714793 C83.1861538,38.8543195 78.6157396,38.0815385 78.6157396,38.0815385 C76.3293491,32.3649704 72.904497,29.1454438 70.5222485,27.4779882 C71.4145562,27.436568 72.0062722,27.4247337 72.0062722,27.4247337 C71.3861538,27.2744379 70.7163314,27.1833136 70.0169231,27.136568 C69.900355,27.0602367 69.7849704,26.9868639 69.675503,26.9194083 C71.2500592,25.1649704 71.6346746,21.1608284 70.9411834,20.1957396 C70.2068639,19.1702959 65.3056805,20.7797633 65.3056805,20.7797633 C64.8269822,20.472071 62.2512426,19.6525444 62.2512426,19.6525444 C61.8642604,19.5330178 61.3648521,19.5063905 60.8104142,19.536568 C59.6139645,18.328284 57.1186982,16.2915976 53.7553846,16.0986982 C53.7553846,16.0986982 54.0423669,16.5608284 54.227574,17.124142 C53.9743195,17.0874556 53.7062722,17.0525444 53.4181065,17.0247337 C49.004497,16.5768047 44.9092308,17.8484024 41.3500592,19.8602367 C40.7015385,19.8300592 40.1790533,19.9128994 39.975503,20.1957396 C39.8678107,20.3466272 39.787929,20.5708876 39.7334911,20.8478107 C33.9246154,24.6513609 29.8009467,30.1833136 28.4867456,32.4927811 C26.8429586,35.380355 25.1772781,37.928284 23.6027219,40.1176331 C22.5488757,40.9815385 20.3820118,42.7105325 17.9476923,44.3773964 C17.8074556,43.5874556 17.6885207,42.7904142 17.6015385,41.9839053 C18.5660355,41.7519527 19.4405917,41.1862722 19.5979882,39.8205917 C19.7027219,38.9134911 19.1737278,37.8466272 17.4050888,37.4868639 C17.7263905,17.7549112 33.8678107,1.79869822 53.6743195,1.79869822 L53.6743195,1.79869822 Z M96.1370414,52.8087574 C95.9394083,52.7430769 95.7512426,52.6850888 95.5654438,52.6306509 C93.3210651,51.4915976 91.5269822,50.0726627 90.183787,48.7779882 C91.1802367,45.3833136 91.7246154,41.7975148 91.7246154,38.0850888 C91.7246154,17.1040237 74.6553846,0.0359763314 53.6743195,0.0359763314 C33.1459172,0.0359763314 16.3719527,16.3815385 15.6607101,36.7401183 C12.7050888,37.1383432 1.69443787,39.176213 1.82816568,47.403432 C1.84710059,48.5442604 2.29739645,53.5093491 7.73822485,53.8697041 C8.45360947,53.9152663 9.32224852,53.9176331 10.4766864,53.6128994 C9.33763314,55.4708876 9.69857988,56.8105325 9.69857988,56.8105325 C9.34236686,57.2850888 7.43881657,57.5815385 7.43881657,57.5815385 C6.48792899,58.5915976 5.63053254,62.6306509 5.47668639,64.0620118 C4.92994083,69.2128994 1.4435503,71.9436686 1.4435503,71.9436686 C1.28970414,72.7105325 1.32639053,73.3714793 1.45183432,73.9247337 C0.93704142,74.7164497 -0.000236686391,74.9714793 -0.000236686391,74.9714793 C0.87964497,75.3288757 1.51337278,75.2401183 1.90804734,75.0880473 C2.06189349,75.3525444 2.21751479,75.5560947 2.34059172,75.6975148 C2.24887574,75.7910059 2.1547929,75.8874556 2.05301775,75.9874556 C2.05301775,75.9874556 2.17846154,76.576213 2.61633136,77.1702959 C2.24769231,78.0128994 1.77786982,78.4519527 1.77786982,78.4519527 C2.65242604,78.511716 3.25301775,78.2904142 3.64118343,78.0501775 C4.00568047,78.2359763 4.45005917,78.3590533 4.99207101,78.3738462 C4.99207101,78.3738462 5.06011834,78.3022485 5.16366864,78.1779882 C5.32343195,78.2874556 5.51633136,78.4081657 5.73763314,78.5194083 C5.53408284,79.2856805 5.13467456,79.672071 5.13467456,79.672071 C6.04650888,79.607574 6.59443787,79.2259172 6.90745562,78.8868639 C7.34828402,78.936568 7.82461538,78.8874556 8.30213018,78.6614201 C8.24769231,79.1880473 7.9808284,79.5714793 7.9808284,79.5714793 C8.98260355,79.2063905 9.47136095,78.5572781 9.69857988,78.12 C10.4991716,77.9809467 11.4666272,77.6773964 12.1370414,77.0223669 C12.1370414,77.0223669 12.1334911,77.2915976 12.5204734,73.4578698 C12.9056805,69.6253254 13.4447337,68.1046154 13.4447337,68.1046154 C13.4447337,68.1046154 15.435858,69.0549112 17.9323077,67.8957396 C17.9323077,67.8957396 20.2340828,64.9507692 23.9471006,61.7904142 C24.887929,62.9691124 25.8932544,64.0927811 26.9654438,65.1495858 C26.5891124,66.1134911 26.0636686,67.9377515 26.0636686,70.6288757 C26.0636686,71.5235503 25.8530178,73.7833136 23.8991716,75.4839053 L23.8305325,75.5395266 L23.8352663,75.6288757 C23.8364497,75.6531361 23.8707692,76.0146746 24.2891124,76.4691124 C24.1843787,77.3134911 23.6897041,77.8288757 23.6897041,77.8288757 C24.3749112,77.815858 24.9181065,77.503432 25.2861538,77.2040237 C25.3098225,77.2170414 25.3305325,77.2306509 25.3553846,77.2418935 C25.3624852,77.4022485 25.3979882,78.2188166 25.3979882,78.2188166 L25.427574,78.2614201 C25.4405917,78.2791716 25.6204734,78.5294675 26.148284,78.7436686 C26.1175148,79.4217751 25.8589349,79.8815385 25.8589349,79.8815385 C26.5056805,79.8306509 27.0417751,79.3951479 27.3908876,79.0223669 C27.5956213,79.0413018 27.8210651,79.0513609 28.0713609,79.0513609 L28.1293491,79.0513609 C28.1293491,79.0513609 28.6885207,78.6407101 28.8944379,78.4892308 C28.9394083,79.1519527 28.7133728,79.7134911 28.7133728,79.7134911 C29.5636686,79.2975148 30.0127811,78.7726627 30.2488757,78.3779882 C30.4033136,78.3448521 30.5713609,78.2992899 30.7553846,78.2418935 L30.8192899,78.2217751 C30.8192899,78.2217751 31.1027219,77.7608284 31.3145562,77.42 C31.3985799,77.8921893 31.3553846,78.3176331 31.3553846,78.3176331 C31.9246154,77.7768047 32.2293491,77.1549112 32.3944379,76.6489941 C32.5512426,76.5578698 32.7121893,76.455503 32.8624852,76.3389349 L32.9169231,76.2969231 L32.9287574,76.228284 C32.9542012,76.084497 33.4222485,73.3892308 33.4222485,70.8164497 C33.4222485,70.628284 33.4127811,70.4466272 33.4068639,70.2614201 C39.279645,73.9750296 46.2281657,76.1336095 53.6743195,76.1336095 C66.7944379,76.1336095 78.3826036,69.459645 85.2257988,59.3294675 C85.6666272,59.7602367 86.1985799,60.0401183 86.7471006,60.2105325 C86.5849704,60.9714793 85.9772781,61.5046154 85.9772781,61.5046154 C87.275503,61.6898225 88.2198817,60.9495858 88.6826036,60.467929 C89.4914793,60.4578698 90.0802367,60.3294675 90.0802367,60.3294675 C90.2506509,60.5081657 90.4181065,60.6560947 90.5814201,60.780355 C90.4447337,61.6123077 89.9370414,62.1081657 89.9370414,62.1081657 C91.3210651,62.4673373 92.0991716,61.707574 92.4039053,61.3022485 C92.8843787,61.2306509 93.1867456,61.0223669 93.1867456,61.0223669 C93.3973964,61.1584615 93.600355,61.2620118 93.7979882,61.3413018 C93.5914793,61.8797633 93.1695858,62.1626036 93.1695858,62.1626036 C94.3050888,62.3969231 95.0056805,61.9140828 95.3808284,61.4992899 C95.9181065,61.3910059 96.2411834,61.1507692 96.2411834,61.1507692 C96.3269822,61.1353846 96.4204734,61.0839053 96.5139645,61.0205917 C96.3867456,61.3531361 96.2618935,61.5661538 96.2618935,61.5661538 C97.0583432,61.6910059 97.6891124,60.7537278 98.0240237,60.1123077 C98.9772781,59.4572781 99.6216568,58.3921893 99.5536095,57.0957396 C99.3979882,54.1939645 97.0494675,53.1111243 96.1370414,52.8087574 L96.1370414,52.8087574 Z" id="Fill-1" fill="#383838" sketch:type="MSShapeGroup" mask="url(#mask-2)"></path>
                </g>
                <path d="M64.5874556,29.4465089 C65.2602367,30.7719527 65.5560947,33.087929 65.4963314,33.4636686 C65.4963314,33.4636686 64.9519527,33.3973964 63.8886391,33.5334911 C63.8886391,33.5334911 64.3146746,34.8098225 64.263787,35.3465089 C64.263787,35.3465089 62.9448521,35.2098225 62.4791716,35.4062722 C62.4791716,35.4062722 63.6134911,37.5056805 63.7170414,39.492071 C63.7170414,39.492071 63.8501775,37.1121893 63.6691124,36.4263905 C64.4981065,36.3766864 65.8921893,36.6471006 65.8921893,36.6471006 C65.8921893,36.1802367 65.5785799,35.0423669 65.5785799,35.0423669 C66.3205917,35.035858 67.3123077,35.0902959 67.9318343,35.2388166 C67.9318343,35.2388166 66.7874556,31.2163314 64.5874556,29.4465089" id="Fill-4" fill="#383838" sketch:type="MSShapeGroup"></path>
                <path d="M52.3082249,23.6926036 L53.4851479,23.1050296 L50.4330769,22.3310651 L52.3082249,23.6926036 Z" id="Fill-6" fill="#383838" sketch:type="MSShapeGroup"></path>
                <path d="M58.634497,23.6926036 L60.5102367,22.3310651 L57.4581657,23.1050296 L58.634497,23.6926036 Z" id="Fill-8" fill="#383838" sketch:type="MSShapeGroup"></path>
                <path d="M23.9026627,25.5700592 C24.1068047,25.664142 29.993787,28.355858 29.993787,28.355858 L30.8535503,26.4759763 C30.8535503,26.4759763 24.9677515,23.7848521 24.7618343,23.6907692 C24.85,23.4990533 25.7494083,21.5315976 25.7494083,21.5315976 L24.0612426,20.7611834 L21.2275148,26.9570414 L22.9162722,27.7292308 C22.9162722,27.7292308 23.814497,25.7629586 23.9026627,25.5700592" id="Fill-10" fill="#383838" sketch:type="MSShapeGroup"></path>
                <path d="M33.4683432,22.3552071 L26.5115385,17.378284 L25.3085799,19.0605325 L32.2653846,24.0362722 L33.4683432,22.3552071 Z" id="Fill-12" fill="#383838" sketch:type="MSShapeGroup"></path>
                <path d="M37.4644379,18.5673964 C38.4685799,17.7135503 39.1999408,16.7330769 39.6372189,15.6526036 L39.6644379,15.5863314 L36.7259763,12.1313018 L34.0679882,14.3910651 L35.3153254,15.8591124 C35.3153254,15.8591124 36.3005325,15.0212426 36.4520118,14.8922485 C36.5709467,15.0313018 37.1200592,15.6774556 37.2011243,15.7733136 C37.0821893,16.0697633 36.8165089,16.5881065 36.2159172,17.1005325 C35.6804142,17.5555621 35.0673964,17.7685799 34.4419527,17.718284 C33.7904734,17.6656213 33.1638462,17.3212426 32.6756805,16.7466864 C32.1881065,16.1739053 31.9478698,15.4981657 32.0011243,14.8466864 C32.0514201,14.2218343 32.3608876,13.6514201 32.8969822,13.1957988 C33.5472781,12.6425444 34.2354438,12.4147337 34.9815976,12.5259763 L35.062071,10.3739053 C33.9395858,10.3111834 32.7650296,10.7798225 31.6478698,11.7289349 C30.6253846,12.5993491 30.0088166,13.7218343 29.9153254,14.8916568 C29.8236095,16.0318935 30.2135503,17.1526036 31.0472781,18.1318935 C32.757929,20.1449112 35.397574,20.3242012 37.4644379,18.5673964" id="Fill-14" fill="#383838" sketch:type="MSShapeGroup"></path>
                <path d="M46.8313609,13.2281065 L46.091716,11.4488166 C46.091716,11.4488166 42.5745562,12.910355 42.3710059,12.9949704 C42.2988166,12.8221893 41.8828402,11.8221893 41.8112426,11.6476331 C42.0130178,11.5642012 45.1431953,10.2653846 45.1431953,10.2653846 L44.4035503,8.48609467 C44.4035503,8.48609467 41.2733728,9.78550296 41.0715976,9.86893491 C41.0011834,9.69970414 40.6378698,8.82278107 40.5686391,8.6535503 C40.7704142,8.56893491 44.095858,7.18786982 44.095858,7.18786982 L43.356213,5.40976331 L37.9195266,7.66775148 L41.1994083,15.5671598 L46.8313609,13.2281065 Z" id="Fill-16" fill="#383838" sketch:type="MSShapeGroup"></path>
                <path d="M50.2995858,5.9056213 C50.8504734,5.84704142 51.209645,5.90266272 51.4321302,6.08195266 C51.5788757,6.19970414 51.6628994,6.37189349 51.6871598,6.60739645 C51.6924852,6.65118343 51.6942604,6.69142012 51.6942604,6.73106509 C51.6942604,6.90384615 51.6492899,7.04467456 51.5581657,7.15769231 C51.3114201,7.4647929 50.7380473,7.52692308 50.3599408,7.56775148 C50.3599408,7.56775148 49.586568,7.65 49.4013609,7.66952663 C49.3812426,7.47899408 49.2451479,6.21272189 49.2244379,6.02100592 C49.4143787,6.00088757 50.2995858,5.9056213 50.2995858,5.9056213 L50.2995858,5.9056213 Z M49.9481065,12.7511834 C49.9481065,12.7511834 49.6161538,9.66065089 49.5930769,9.44408284 C49.753432,9.42692308 50.2019527,9.37899408 50.3049112,9.36893491 C50.3812426,9.48136095 52.3889349,12.489645 52.3889349,12.489645 L54.8510651,12.2245562 C54.8510651,12.2245562 52.4960355,9.12100592 52.3339053,8.90739645 C53.2830178,8.56538462 53.8333136,7.78668639 53.8333136,6.74053254 C53.8333136,6.62633136 53.8273964,6.51094675 53.813787,6.3908284 C53.6297633,4.67248521 52.4126036,3.88313609 50.2960355,4.11153846 L46.978284,4.46775148 L47.8918935,12.9718935 L49.9481065,12.7511834 Z" id="Fill-18" fill="#383838" sketch:type="MSShapeGroup"></path>
                <path d="M58.2912426,8.01301775 L55.1823669,7.69526627 L55.0160947,9.33076923 L58.1243787,9.64792899 L58.2912426,8.01301775 Z" id="Fill-20" fill="#383838" sketch:type="MSShapeGroup"></path>
                <path d="M62.6320118,14.3331953 C63.850355,14.7450296 65.1479882,14.5976923 66.142071,13.8426627 L64.9260947,12.0793491 C64.4077515,12.5331953 63.6716568,12.6509467 63.0260947,12.4331953 C62.4923669,12.2521302 62.0604142,11.8746154 61.8101183,11.3681065 C61.5101183,10.7621893 61.4823077,10.0249112 61.7308284,9.29059172 C61.977574,8.56159763 62.4444379,7.99591716 63.0432544,7.70005917 C63.5704734,7.43852071 64.1497633,7.40360947 64.7213609,7.59769231 C65.3184024,7.79828402 65.7805325,8.22786982 65.9651479,8.78585799 L67.8864497,8.06514793 C67.4000592,6.59828402 65.9308284,5.97284024 65.506568,5.82846154 C64.2331953,5.39828402 62.9527219,5.44798817 61.902426,5.96869822 C60.8763905,6.47579882 60.1172189,7.38822485 59.7059763,8.60538462 C58.8592308,11.1089349 60.0627811,13.4645562 62.6320118,14.3331953" id="Fill-22" fill="#383838" sketch:type="MSShapeGroup"></path>
                <path d="M72.1613018,12.8481657 C72.0500592,13.2747929 71.6417751,14.8221302 71.5725444,15.0818935 C71.3618935,14.9268639 70.4228402,14.2357396 70.2115976,14.0813018 C70.4376331,13.9381065 71.7873373,13.0830769 72.1613018,12.8481657 L72.1613018,12.8481657 Z M67.0127811,16.1321893 C67.0127811,16.1321893 68.492071,15.2008284 68.6169231,15.1233136 C68.7352663,15.2108876 70.9737278,16.8582249 71.0908876,16.9446154 C71.056568,17.0848521 70.623432,18.7889941 70.623432,18.7889941 L72.4973964,20.1671006 L74.5689941,11.072426 L73.2246154,10.0830769 L65.1772781,14.7813018 L67.0127811,16.1321893 Z" id="Fill-24" fill="#383838" sketch:type="MSShapeGroup"></path>
                <path d="M72.7397633,20.9934911 L74.0545562,22.587574 L79.2226036,18.3272189 C79.3581065,18.4905325 80.7326627,20.1585799 80.7326627,20.1585799 L82.1646154,18.9781065 L77.8297041,13.7207101 L76.3977515,14.9005917 C76.3977515,14.9005917 77.7734911,16.5686391 77.9072189,16.7313609 L72.7397633,20.9934911 Z" id="Fill-26" fill="#383838" sketch:type="MSShapeGroup"></path>
                <path d="M80.6360355,21.4768639 C79.1324852,22.2176923 79.3472781,23.6330769 79.5200592,24.7709467 C79.6602959,25.6963905 79.722426,26.2762722 79.2395858,26.5135503 C78.7443195,26.7573373 78.2597041,26.226568 78.0555621,25.8117751 C77.7999408,25.2910651 77.7999408,24.562071 78.1188757,24.0082249 L76.01,23.4005325 C75.6567456,24.453787 75.7715385,25.5354438 76.2815976,26.5679882 C77.1733136,28.3804142 78.7543787,29.0555621 80.3111834,28.2904734 C81.9082249,27.5040828 81.6656213,26.1023077 81.470355,24.9756805 C81.3188757,24.1034911 81.2508284,23.5567456 81.7176923,23.3259763 C82.2064497,23.0863314 82.6780473,23.5987574 82.8768639,24.001716 C83.0543787,24.3644379 83.1721302,25.0366272 82.9064497,25.4591124 L84.9425444,26.0514201 C85.2165089,25.1650296 85.0916568,24.1419527 84.6200592,23.1815976 C83.9200592,21.7608876 82.374497,20.6212426 80.6360355,21.4768639" id="Fill-28" fill="#383838" sketch:type="MSShapeGroup"></path>
                <path d="M42.8575148,70.3928402 L43.7533728,70.657929 L44.4368047,68.3520118 L45.6332544,68.7046746 L45.8640237,67.9277515 L44.6669822,67.5709467 L45.0640237,66.2307101 L46.6657988,66.7052663 L46.8959763,65.9259763 L44.4013018,65.1863314 L42.8575148,70.3928402 Z" id="Fill-30" fill="#383838" sketch:type="MSShapeGroup"></path>
                <path d="M50.6711834,67.9028994 L50.3481065,70.6354438 C50.3013609,71.0389941 50.1587574,71.2194675 49.7847929,71.174497 C49.4108284,71.1301183 49.3143787,70.922426 49.361716,70.5188757 L49.6859763,67.7863314 C49.7333136,67.3827811 49.8765089,67.2023077 50.2492899,67.245503 C50.622071,67.2916568 50.7197041,67.4999408 50.6711834,67.9028994 M50.3445562,66.4395858 C49.3735503,66.3247929 48.8528402,66.8910651 48.7628994,67.6543787 L48.4339053,70.4324852 C48.3445562,71.1940237 48.7185207,71.8668047 49.6901183,71.9821893 C50.6593491,72.0957988 51.1818343,71.5313018 51.2723669,70.7679882 L51.6001775,67.9892899 C51.6907101,67.2277515 51.3155621,66.5549704 50.3445562,66.4395858" id="Fill-32" fill="#383838" sketch:type="MSShapeGroup"></path>
                <path d="M55.9659763,71.3260355 C55.5908284,71.3508876 55.458284,71.1633136 55.4298817,70.7591716 L55.2381657,68.0130178 C55.2109467,67.6076923 55.3168639,67.4047337 55.6920118,67.3786982 C56.066568,67.352071 56.1997041,67.5390533 56.2286982,67.9443787 L56.4198225,70.6905325 C56.4464497,71.0952663 56.3411243,71.2988166 55.9659763,71.3260355 M55.6352071,66.5686391 C54.6606509,66.6372781 54.2523669,67.2905325 54.3068047,68.0550296 L54.4997041,70.8455621 C54.5535503,71.6118343 55.045858,72.2029586 56.0233728,72.1349112 C56.9967456,72.0680473 57.4050296,71.4147929 57.3505917,70.6497041 L57.158284,67.8568047 C57.1038462,67.091716 56.6115385,66.5005917 55.6352071,66.5686391" id="Fill-34" fill="#383838" sketch:type="MSShapeGroup"></path>
                <path d="M61.7715976,66.4149112 L61.583432,65.6255621 L58.9207101,66.2569231 L59.108284,67.0468639 L59.9852071,66.8385799 L61.0514793,71.332071 L61.960355,71.1160947 L60.8934911,66.623787 L61.7715976,66.4149112 Z" id="Fill-36" fill="#383838" sketch:type="MSShapeGroup"></path>
                <path d="M66.4024852,68.8360947 L66.0421302,68.9852071 L65.3977515,67.4455621 L65.6752663,67.3307692 C66.1876923,67.1147929 66.4906509,67.2911243 66.7048521,67.804142 C66.9160947,68.3100592 66.8598817,68.643787 66.4024852,68.8360947 L66.4024852,68.8360947 Z M64.5379882,65.3928994 L64.8646154,65.2550296 C65.2468639,65.0970414 65.5273373,65.2627219 65.7220118,65.7278107 C65.8959763,66.1443787 65.7409467,66.4704142 65.4137278,66.6076923 L65.1013018,66.7390533 L64.5379882,65.3928994 Z M66.3876923,66.5769231 C66.7332544,66.2349112 66.7249704,65.7076923 66.5456805,65.2786982 C66.1876923,64.4248521 65.5817751,64.1236686 64.6592899,64.5094675 L63.3823669,65.0449704 L65.4764497,70.052071 L66.836213,69.4852071 C67.8149112,69.0757396 67.9214201,68.2964497 67.5770414,67.4710059 C67.3066272,66.8266272 66.9048521,66.5869822 66.3876923,66.5769231 L66.3876923,66.5769231 Z" id="Fill-38" fill="#383838" sketch:type="MSShapeGroup"></path>
                <path d="M69.5979882,63.154142 L71.1583432,64.9269231 L70.523432,65.3298817 L69.5855621,63.1636095 L69.5979882,63.154142 Z M68.5228402,62.554142 L70.5861538,67.6772189 L71.3488757,67.1931953 L70.844142,66.0878698 L71.7074556,65.5405325 L72.492071,66.4671598 L73.2547929,65.9849112 L69.5021302,61.9346154 L68.5228402,62.554142 Z" id="Fill-40" fill="#383838" sketch:type="MSShapeGroup"></path>
                <path d="M75.6688757,63.0033136 L72.6043787,59.5518343 L71.9061538,60.1695858 L75.5108876,64.2323077 L77.3055621,62.64 L76.7665089,62.0311243 L75.6688757,63.0033136 Z" id="Fill-42" fill="#383838" sketch:type="MSShapeGroup"></path>
                <path d="M78.9348521,59.6933728 L75.4159172,56.703432 L74.8123669,57.4146746 L78.9484615,60.9312426 L80.5028994,59.1022485 L79.8827811,58.5756213 L78.9348521,59.6933728 Z" id="Fill-44" fill="#383838" sketch:type="MSShapeGroup"></path>
                <path d="M84.0077515,64.9350296 L84.6302367,64.9350296 L84.6302367,66.6723077 L85.0213609,66.6723077 L85.0213609,64.9350296 L85.6438462,64.9350296 L85.6438462,64.6036686 L84.0077515,64.6036686 L84.0077515,64.9350296 Z" id="Fill-46" fill="#383838" sketch:type="MSShapeGroup"></path>
                <path d="M87.209645,66.1895858 L87.1942604,66.1895858 L86.6368639,64.603787 L86.0392308,64.603787 L86.0392308,66.6718343 L86.4315385,66.6718343 L86.4315385,64.9457988 L86.4415976,64.9457988 L87.0439645,66.6718343 L87.3587574,66.6718343 L87.961716,64.9457988 L87.9711834,64.9457988 L87.9711834,66.6718343 L88.3628994,66.6718343 L88.3628994,64.603787 L87.7652663,64.603787 L87.209645,66.1895858 Z" id="Fill-48" fill="#383838" sketch:type="MSShapeGroup"></path>
            </g>
        </g>
    </g>
</svg>