<?xml version="1.0" encoding="UTF-8" standalone="no"?>
<svg width="94px" height="87px" viewBox="0 0 94 87" version="1.1" xmlns="http://www.w3.org/2000/svg" xmlns:xlink="http://www.w3.org/1999/xlink" xmlns:sketch="http://www.bohemiancoding.com/sketch/ns">
    <!-- Generator: Sketch 3.4.4 (17249) - http://www.bohemiancoding.com/sketch -->
    <title>QMJHL</title>
    <desc>Created with Sketch.</desc>
    <defs></defs>
    <g id="Homepage" stroke="none" stroke-width="1" fill="none" fill-rule="evenodd" sketch:type="MSPage">
        <g id="Artboard-4" sketch:type="MSArtboardGroup" transform="translate(-295.000000, -917.000000)" fill="#383838">
            <g id="QMJHL" sketch:type="MSLayerGroup" transform="translate(295.000000, 917.000000)">
                <g id="Group" sketch:type="MSShapeGroup">
                    <path d="M36.0924167,5.12860707 C36.0924167,5.12860707 36.5447007,5.73072611 36.0924167,6.48337491 C35.790894,6.78443444 13.1766923,61.5772673 13.1766923,61.5772673 C13.3274536,61.8783268 13.3274536,62.4804458 13.930499,62.4804458 C16.9457259,62.4804458 19.0563847,61.8783268 22.0716116,61.8783268 C22.0716116,62.0288566 23.1269411,62.0288566 22.5238957,62.9320351 L20.5639982,67.4479279 C20.5639982,67.4479279 20.1117142,68.2005767 19.5086688,68.3511065 C18.9056234,68.5016363 10.0107041,68.652166 5.18634102,69.5553446 C4.58329564,69.7058743 4.13101161,69.5553446 3.67872757,69.2542851 C3.37720488,68.9532255 3.22644354,68.2005767 3.37720488,67.7489875 C3.52796623,67.7489875 31.418815,1.51589282 31.5695764,1.06430353 C31.8710991,0.462184493 32.3233831,1.06430353 32.3233831,1.06430353 L36.0924167,5.12860707" id="Shape"></path>
                    <path d="M43.1781999,11.9024463 C43.1781999,11.9024463 43.4797226,12.2035058 43.3289613,12.6550951 C43.1781999,12.9561546 35.9416554,30.5681366 35.9416554,30.5681366 C35.790894,31.0197259 36.0924167,31.4713152 36.6954621,31.6218449 C37.7507915,32.0734342 38.0523142,31.3207854 38.3538369,30.4176068 C38.3538369,30.4176068 45.1380974,14.0098629 45.2888587,13.4077439 C45.5903814,12.8056249 45.8919041,12.6550951 45.8919041,12.6550951 L53.4299714,8.13920228 C53.4299714,8.13920228 53.8822554,7.98867252 54.0330167,8.13920228 C54.1837781,8.28973204 54.0330167,8.89185108 54.0330167,8.89185108 C54.0330167,8.89185108 35.0370873,55.1044876 33.5294738,58.1150828 C33.3787125,58.2656125 33.2279512,58.7172018 33.0771898,58.8677316 C32.9264285,59.0182613 32.3233831,59.0182613 32.3233831,59.0182613 L27.1974974,59.1687911 C26.594452,59.0182613 26.7452133,58.5666721 27.046736,58.1150828 L34.8863259,38.9978032 C35.0370873,38.6967437 35.0370873,37.9440949 34.2832806,37.6430353 C33.3787125,37.3419758 32.9264285,37.7935651 32.7756671,38.3956841 L25.2375999,56.9108447 C24.6345545,58.1150828 24.4837932,59.1687911 23.7299864,59.1687911 L17.850294,59.3193209 C17.0964873,59.3193209 17.2472486,58.5666721 17.2472486,58.2656125 C17.2472486,58.2656125 38.0523142,7.83814276 38.2030755,7.53708324 C38.3538369,7.08549396 38.8061209,7.53708324 38.8061209,7.53708324 L43.1781999,11.9024463" id="Shape"></path>
                    <path d="M52.5254033,35.987208 C52.6761646,36.2882675 52.5254033,36.7398568 52.5254033,36.7398568 L40.3137344,65.7921006 C39.8614503,66.3942196 39.710689,67.1468684 38.9568823,67.2973982 C33.6802352,67.4479279 28.8558722,67.4479279 23.5792251,67.8995172 C23.1269411,67.7489875 23.1269411,67.4479279 23.4284637,66.5447494 C23.4284637,66.5447494 25.0868385,62.7815054 25.2375999,62.3299161 C25.5391226,61.5772673 26.2929293,61.5772673 26.2929293,61.5772673 L34.5848033,61.2762078 L35.1878486,60.9751482 C35.1878486,60.9751482 48.1533243,29.9660176 48.454847,29.664958 C48.6056083,29.3638985 49.0578924,29.3638985 49.2086537,29.5144283 C49.2086537,29.664958 52.3746419,35.6861485 52.5254033,35.987208" id="Shape"></path>
                    <path d="M63.5309815,40.352571 C63.5309815,40.352571 63.8325041,40.5031008 63.9832655,40.8041603 C64.1340268,41.1052198 65.4908789,43.8147555 65.4908789,43.8147555 C66.2446857,44.1158151 68.6568672,42.7610472 69.1091512,42.6105174 C69.5614352,42.4599877 70.0137193,42.6105174 70.0137193,42.6105174 L76.4964571,44.7179341 C77.2502638,45.0189936 77.7025479,46.0727019 77.4010252,46.8253507 L68.8076285,66.3942196 C68.8076285,66.3942196 68.6568672,67.2973982 67.9030605,67.2973982 L62.023368,67.2973982 C61.571084,67.1468684 61.7218453,66.3942196 61.8726067,65.9426303 L68.5061058,50.8896543 C68.8076285,50.438065 69.1091512,49.0832971 68.2045831,48.6317079 C66.9984924,48.0295888 66.5462084,49.3843567 66.5462084,49.3843567 L59.0081411,66.6952791 C59.0081411,66.6952791 58.7066184,67.1468684 58.103573,67.2973982 L52.826926,67.2973982 C52.0731193,66.9963387 52.3746419,66.5447494 52.6761646,65.7921006 L60.0634705,48.1801186 C60.3649932,47.4274698 60.2142319,46.8253507 59.6111865,46.5242912 C58.5558571,46.0727019 57.8020504,47.4274698 57.8020504,47.4274698 L50.4147445,65.3405113 C49.8116991,66.3942196 49.6609377,67.2973982 48.907131,67.2973982 C46.9472335,67.5984577 45.4396201,67.2973982 43.3289613,67.2973982 C42.7259159,67.1468684 42.5751545,66.6952791 42.7259159,66.0931601 L54.3345394,38.8472734 C54.6360621,38.0946246 55.8421529,37.9440949 56.5959596,38.2451544 L63.5309815,40.352571" id="Shape"></path>
                    <path d="M92.175637,50.1370055 C89.3111714,48.9327674 86.2959445,48.0295888 83.2807176,46.9758805 C81.4715815,46.3737615 79.963968,47.4274698 79.0594,48.9327674 L72.7274235,63.8352137 C72.4259008,64.5878625 71.8228554,65.6415708 72.1243781,66.5447494 C72.5766621,67.1468684 72.8781848,67.5984577 74.2350369,67.7489875 L81.1700588,68.050047 C81.1700588,68.050047 81.4715815,68.050047 81.6223428,68.2005767 C81.7731042,68.3511065 81.7731042,68.652166 81.7731042,68.652166 L82.5269109,73.6196481 L82.5269109,73.9207076 C82.3761496,74.0712374 82.3761496,74.0712374 82.3761496,74.2217672 C82.0746269,74.6733564 81.7731042,74.974416 81.4715815,75.2754755 C81.3208201,75.4260052 81.1700588,75.576535 81.0192975,75.7270648 C80.7177748,75.8775945 80.2654907,75.7270648 80.2654907,75.7270648 L72.8781848,75.4260052 L51.6208352,75.1249457 L37.4492688,75.2754755 L24.6345545,76.178654 L12.8751696,77.3828921 C12.8751696,77.3828921 5.7893864,78.5871302 5.33710237,78.73766 C4.88481833,78.8881897 5.03557968,79.4903088 5.33710237,79.4903088 C5.63862506,79.4903088 17.5487713,78.5871302 24.0315091,78.4366005 C24.0315091,78.4366005 32.7756671,78.4366005 41.9721092,78.5871302 C57.0482436,78.8881897 76.1949344,79.7913683 81.1700588,80.2429576 C81.4715815,80.2429576 81.6223428,80.3934873 81.9238655,80.2429576 C82.2253882,80.2429576 82.3761496,79.9418981 82.5269109,79.7913683 C84.336047,77.9850112 87.2005126,74.6733564 87.3512739,74.5228267 C87.6527966,74.3722969 87.5020353,73.9207076 87.5020353,73.9207076 C86.5974672,71.9638208 85.8436605,70.4585231 85.0898538,68.5016363 C85.0898538,68.3511065 84.9390924,68.2005767 85.0898538,68.2005767 C85.0898538,68.2005767 85.2406151,68.050047 85.3913765,68.050047 C86.4467059,68.050047 87.5020353,67.8995172 88.1050807,66.6952791 L92.7786823,55.7066066 C93.3817277,54.6528983 93.6832504,53.4486602 93.6832504,52.2444221 C93.3817277,51.4917733 92.9294437,50.5885948 92.175637,50.1370055 L92.175637,50.1370055 Z M82.2253882,62.9320351 C82.0746269,62.6309756 82.0746269,62.4804458 82.0746269,62.4804458 C81.7731042,62.1793863 80.7177748,62.6309756 80.5670134,62.9320351 C80.5670134,63.0825649 80.7177748,63.6846839 80.7177748,63.6846839 C80.2654907,63.3836244 79.963968,62.7815054 80.1147294,62.3299161 L83.7330017,53.59919 C83.883763,53.2981304 84.4868084,52.8465412 85.2406151,52.9970709 C86.1451832,53.2981304 86.1451832,54.201309 86.1451832,54.201309 C84.7883311,57.2119042 83.883763,59.9214399 82.2253882,62.9320351 L82.2253882,62.9320351 Z" id="Shape"></path>
                    <path d="M79.8132067,82.1998445 C79.0594,82.0493147 68.0538218,81.4471957 68.0538218,81.4471957 L46.7964722,81.2966659 L32.6249058,81.4471957 L19.9609528,82.0493147 L8.20156792,83.2535528 C8.20156792,83.2535528 1.11578471,84.4577909 0.663500678,84.6083206 C0.211216644,84.7588504 0.361977989,85.3609694 0.663500678,85.3609694 C0.965023368,85.3609694 12.8751696,84.4577909 19.3579074,84.4577909 C19.3579074,84.4577909 28.1020654,84.4577909 37.2985075,84.6083206 C52.3746419,84.9093802 71.21981,85.8125587 76.0441731,86.4146778 L76.6472185,86.4146778 C76.9487411,86.4146778 77.0995025,86.1136182 77.2502638,85.9630885 C79.0594,84.0062016 79.963968,83.103023 80.1147294,82.8019635 C80.2654907,82.8019635 80.5670134,82.3503742 79.8132067,82.1998445" id="Shape"></path>
                </g>
            </g>
        </g>
    </g>
</svg>