<?xml version="1.0" encoding="UTF-8" standalone="no"?>
<svg width="100px" height="63px" viewBox="0 0 100 63" version="1.1" xmlns="http://www.w3.org/2000/svg" xmlns:xlink="http://www.w3.org/1999/xlink" xmlns:sketch="http://www.bohemiancoding.com/sketch/ns">
    <!-- Generator: Sketch 3.4.4 (17249) - http://www.bohemiancoding.com/sketch -->
    <title>Pfizer</title>
    <desc>Created with Sketch.</desc>
    <defs>
        <path id="path-1" d="M0,0.142236025 L99.5279503,0.142236025 L99.5279503,62.7329193 L0,62.7329193 L0,0.142236025 Z"></path>
    </defs>
    <g id="Homepage" stroke="none" stroke-width="1" fill="none" fill-rule="evenodd" sketch:type="MSPage">
        <g id="Artboard-4" sketch:type="MSArtboardGroup" transform="translate(-592.000000, -783.000000)">
            <g id="Pfizer" sketch:type="MSLayerGroup" transform="translate(592.000000, 783.000000)">
                <mask id="mask-2" sketch:name="Clip 2" fill="white">
                    <use xlink:href="#path-1"></use>
                </mask>
                <g id="Clip-2"></g>
                <path d="M59.0632298,39.0679503 L53.6713043,39.0679503 L62.9595031,24.4281988 L49.4054658,24.4281988 L48.8508075,26.5195031 L54.2408696,26.5195031 L45.1085714,41.1586335 L58.5073292,41.1586335 L59.0632298,39.0679503 Z M68.6899379,28.9325466 C69.1663354,27.1623602 70.2303106,25.6344099 71.6309317,25.713913 C73.0004969,25.713913 73.3259627,27.1623602 72.848323,28.9325466 L72.248323,31.1859627 L68.0899379,31.1859627 L68.6899379,28.9325466 Z M67.5036025,33.4381366 L78.1458385,33.4381366 C78.2303106,33.1592547 78.2706832,32.9729193 78.3154037,32.713913 C79.4855901,27.1623602 76.7303106,23.6232298 72.3396273,23.6232298 C67.595528,23.6232298 63.2067081,25.2313043 61.3731677,32.713913 C60.1557764,37.6685714 62.8067081,41.6431056 67.5036025,41.8039752 C71.7228571,41.9486957 75.7135404,40.7741615 77.7004969,35.0468323 L71.2309317,35.0468323 L70.8445963,36.4934161 C70.0750311,39.3909317 69.043354,39.7120497 67.9036025,39.7120497 C66.7638509,39.7120497 66.2085714,38.2642236 66.6862112,36.4934161 L67.5036025,33.4381366 Z M96.722236,27.3878261 C96.722236,25.4903106 95.3048447,23.9462112 93.564472,23.9462112 C92.1638509,23.9462112 90.1762733,24.8629814 88.7595031,27.1480745 L89.4514286,24.4281988 L80.827205,24.4281988 L80.2719255,26.5195031 L82.5812422,26.5195031 L78.6868323,41.1586335 L85.0023602,41.1586335 C85.0023602,41.1586335 87.3725466,32.3281988 87.358882,32.3108075 C88.2973913,29.5778882 90.037764,26.3921739 90.5464596,26.8250932 C90.0067081,29.4163975 91.8862112,30.8313043 93.564472,30.8313043 C95.3048447,30.8313043 96.722236,29.2865839 96.722236,27.3878261 L96.722236,27.3878261 Z M18.522236,18.313913 C21.8346584,18.1840994 23.1129193,18.9729193 21.8346584,24.4281988 C20.1700621,31.4586335 18.1532919,31.3455901 15.0725466,31.3455901 L18.522236,18.313913 Z M12.453913,41.1586335 L14.5185093,33.4381366 C25.0992547,33.597764 27.1489441,31.04 28.611677,24.4281988 C29.6427329,19.7952795 27.0868323,16.2232298 22.4657143,16.2232298 L9.8352795,16.2232298 L9.28124224,18.313913 L12.053913,18.313913 L5.98372671,41.1586335 L12.453913,41.1586335 Z M99.5278261,31.4375155 C99.5278261,48.7213665 77.248323,62.7331677 49.764472,62.7331677 C41.6613665,62.7331677 34.0141615,61.5126708 27.2551553,59.3524224 L36.0669565,26.5195031 L40.3793789,26.5195031 L36.4824845,41.1586335 L42.7980124,41.1586335 L47.2489441,24.4281988 L36.6209938,24.4281988 L39.9949068,11.7182609 C40.416646,10.1281988 42.1352795,7.73006211 44.4762733,7.72881988 C45.864472,7.72757764 47.5874534,8.42136646 47.6650932,9.30521739 C45.8924224,9.30521739 44.4303106,10.9940373 44.4303106,12.8449689 C44.4303106,14.6946584 45.8924224,16.2232298 47.6650932,16.2232298 C48.8048447,16.2232298 51.4067081,14.9356522 51.253913,12.071677 C51.1619876,10.3021118 50.1278261,6.81142857 44.4762733,6.68285714 C37.9160248,6.53689441 33.3862112,12.3940373 31.7688199,18.313913 C30.8141615,21.8375155 28.437764,30.2437267 26.4091925,37.892795 L21.222236,57.0735404 C8.38993789,51.4145342 -0.000124223602,42.0431056 -0.000124223602,31.4375155 C-0.000124223602,14.1536646 22.2793789,0.142484472 49.764472,0.142484472 C77.248323,0.142484472 99.5278261,14.1536646 99.5278261,31.4375155 L99.5278261,31.4375155 Z" id="Fill-1" fill="#383838" sketch:type="MSShapeGroup" mask="url(#mask-2)"></path>
            </g>
        </g>
    </g>
</svg>