<?xml version="1.0" encoding="UTF-8" standalone="no"?>
<svg width="93px" height="100px" viewBox="0 0 93 100" version="1.1" xmlns="http://www.w3.org/2000/svg" xmlns:xlink="http://www.w3.org/1999/xlink" xmlns:sketch="http://www.bohemiancoding.com/sketch/ns">
    <!-- Generator: Sketch 3.4.4 (17249) - http://www.bohemiancoding.com/sketch -->
    <title>Page 1</title>
    <desc>Created with Sketch.</desc>
    <defs>
        <path id="path-1" d="M0,0.108931419 L92.8076555,0.108931419 L92.8076555,100 L0,100 L0,0.108931419 Z"></path>
        <path id="path-3" d="M0,0.108931419 L92.8076555,0.108931419 L92.8076555,100 L0,100"></path>
    </defs>
    <g id="Homepage" stroke="none" stroke-width="1" fill="none" fill-rule="evenodd" sketch:type="MSPage">
        <g id="Artboard-4" sketch:type="MSArtboardGroup" transform="translate(-296.000000, -764.000000)">
            <g id="Page-1" sketch:type="MSLayerGroup" transform="translate(296.000000, 764.000000)">
                <g id="Group-3">
                    <mask id="mask-2" sketch:name="Clip 2" fill="white">
                        <use xlink:href="#path-1"></use>
                    </mask>
                    <g id="Clip-2"></g>
                    <path d="M21.1903987,99.1489793 C19.9602552,99.8177193 18.8061882,100.000016 17.7430303,100.000016 C14.2803509,100.000016 12.4880064,97.8727432 12.4880064,94.9411643 C12.4880064,92.0713078 14.6146411,89.7328708 18.000925,89.7328708 C19.1251675,89.7328708 20.0363317,89.9138915 20.7350558,90.2032057 L20.7350558,92.3288836 C19.8994896,91.8890112 19.0036364,91.6617384 18.0620096,91.6617384 C15.9057097,91.6617384 14.963445,93.1942743 14.963445,94.9119777 C14.963445,96.7788038 16.148453,98.0708293 18.0313876,98.0708293 C19.079075,98.0708293 19.8088995,97.7671611 20.5527592,97.3256938 L21.1903987,99.1489793 Z" id="Fill-1" fill="#231F1F" sketch:type="MSShapeGroup" mask="url(#mask-2)"></path>
                </g>
                <path d="M29.4520893,95.609681 L28.9814354,94.2275439 C28.7536842,93.5444498 28.6318341,93.1192504 28.5559171,92.8005901 L28.525933,92.8005901 C28.4500159,93.1347209 28.3131738,93.5591228 28.0549601,94.2434928 L27.5538437,95.609681 L29.4520893,95.609681 Z M27.5839872,89.7935726 L29.4069537,89.7935726 L33.5527273,99.8479585 L31.1074322,99.8479585 L30.1508134,97.46311 L26.9008931,97.46311 L25.9894099,99.8479585 L23.6506539,99.8479585 L27.5839872,89.7935726 Z" id="Fill-4" fill="#383838" sketch:type="MSShapeGroup"></path>
                <path d="M36.545008,89.838453 L38.868453,89.838453 L42.8781818,94.8960287 C43.1971611,95.306874 43.4856778,95.6862998 43.7740351,96.1114992 L43.8046571,96.1114992 C43.7740351,95.5950718 43.7740351,94.8657257 43.7740351,94.4708293 L43.7740351,89.838453 L46.098118,89.838453 L46.098118,99.8480223 L43.9416587,99.8480223 L39.7952472,94.5776874 C39.4762679,94.1668421 39.1877512,93.7730622 38.8536204,93.3315949 L38.8229984,93.3315949 C38.868453,93.6662041 38.868453,94.3346252 38.868453,94.7598246 L38.868453,99.8480223 L36.545008,99.8480223 L36.545008,89.838453 Z" id="Fill-6" fill="#383838" sketch:type="MSShapeGroup"></path>
                <path d="M55.0342743,95.609681 L54.5633014,94.2275439 C54.3358692,93.5444498 54.2143381,93.1192504 54.1377831,92.8005901 L54.107799,92.8005901 C54.031882,93.1347209 53.8950399,93.5591228 53.6368262,94.2434928 L53.1363477,95.609681 L55.0342743,95.609681 Z M53.1664912,89.7935726 L54.9885008,89.7935726 L59.1352313,99.8479585 L56.6902552,99.8479585 L55.7329984,97.46311 L52.4827592,97.46311 L51.5712759,99.8479585 L49.2325199,99.8479585 L53.1664912,89.7935726 Z" id="Fill-8" fill="#383838" sketch:type="MSShapeGroup"></path>
                <path d="M65.4895694,97.9799043 C67.8136523,97.9799043 68.7702711,96.4749601 68.7702711,94.8352472 C68.7702711,92.891866 67.6008931,91.7068581 65.4447528,91.7068581 L64.3812759,91.7068581 L64.3812759,97.9799043 L65.4895694,97.9799043 Z M62.057193,89.838437 L65.671866,89.838437 C69.180638,89.838437 71.2461882,91.722488 71.2461882,94.7599681 C71.2461882,97.9191388 68.8163636,99.8480064 65.4294418,99.8480064 L62.057193,99.8480064 L62.057193,89.838437 Z" id="Fill-10" fill="#383838" sketch:type="MSShapeGroup"></path>
                <path d="M46.4894418,80.7790112 C46.4894418,78.6794896 45.3948644,77.6147368 43.8350558,77.6147368 C42.2760447,77.6147368 41.1817863,78.6794896 41.1817863,80.7790112 C41.1817863,82.8782137 42.2760447,83.9432855 43.8350558,83.9432855 C45.3948644,83.9432855 46.4894418,82.8782137 46.4894418,80.7790112 M38.7376077,80.7790112 C38.7376077,77.7798086 40.8207018,75.7109091 43.8350558,75.7109091 C46.8492504,75.7109091 48.9334609,77.7798086 48.9334609,80.7790112 C48.9334609,83.7782137 46.8492504,85.8471132 43.8350558,85.8471132 C40.8207018,85.8471132 38.7376077,83.7782137 38.7376077,80.7790112" id="Fill-12" fill="#383838" sketch:type="MSShapeGroup"></path>
                <path d="M51.7298565,75.8164434 L54.0241148,75.8164434 L54.0241148,83.8536045 L57.4129506,83.8536045 L57.4129506,85.6979426 L51.7298565,85.6979426 L51.7298565,75.8164434 Z" id="Fill-14" fill="#383838" sketch:type="MSShapeGroup"></path>
                <path d="M60.6104944,75.8164434 L66.5782775,75.8164434 L66.0234131,77.6607815 L62.9047528,77.6607815 L62.9047528,79.7445136 L65.9792344,79.7445136 L65.9792344,81.5888517 L62.9047528,81.5888517 L62.9047528,85.6979426 L60.6104944,85.6979426 L60.6104944,75.8164434 Z" id="Fill-16" fill="#383838" sketch:type="MSShapeGroup"></path>
                <path d="M35.8382137,85.0226156 C34.7734609,85.547177 33.3941946,85.847177 32.0154067,85.847177 C28.5658054,85.847177 26.6460287,83.7476555 26.6460287,80.9599362 C26.6460287,77.9750877 28.8654864,75.7108134 32.2992982,75.7108134 C33.4686762,75.7108134 34.4142903,75.8902392 35.2836683,76.1758852 L35.2836683,78.2910367 C34.4586284,77.9001276 33.5602233,77.6148006 32.4798405,77.6148006 C30.2308772,77.6148006 29.0903668,78.9345774 29.0903668,80.839681 C29.0903668,82.6841786 30.1704306,83.9431898 32.1347049,83.9431898 C32.6892504,83.9431898 33.2004147,83.8679107 33.5442743,83.7333014 L33.5442743,80.8092185 L35.8382137,80.8092185 L35.8382137,85.0226156 Z" id="Fill-18" fill="#383838" sketch:type="MSShapeGroup"></path>
                <path d="M35.8235726,82.0552313 L32.1138437,82.0552313 L32.0052313,80.3612919 L35.8235726,80.3612919 L35.8235726,82.0552313 Z" id="Fill-20" fill="#383838" sketch:type="MSShapeGroup"></path>
                <path id="Fill-22" fill="#383838" sketch:type="MSShapeGroup" d="M21.2955981,76.0119139 C21.5547687,76.2074482 21.8823604,76.3052153 22.2699203,76.3052153"></path>
                <path d="M86.4711005,31.9977671 L86.4452632,31.9977671 L86.4050718,31.9977671 C86.3508453,31.9939394 86.3237321,31.9977671 86.2888038,31.9977671 C80.3921531,31.9700159 74.8417544,32.9676236 70.9843381,36.1438596 L70.8872089,36.2111643 C70.7722169,36.2824561 70.5959809,36.3102073 70.4513238,36.3049442 C70.3218182,36.3036683 70.1605742,36.2441786 70.0959809,36.1940989 L69.9953429,36.1226475 C67.9607337,33.7497608 68.4285167,30.5154705 68.6961404,29.4373206 L68.6961404,29.3950558 C68.6961404,29.2866029 68.6108134,29.1980861 68.5052313,29.1980861 C68.4827432,29.1980861 68.3955024,29.2232855 68.3837002,29.2232855 L68.3360128,29.2497608 C62.8793939,31.8564593 58.0187879,40.0572568 55.6379266,39.0623604 C53.2577033,38.060925 59.2961404,22.3990431 62.7525997,16.0837321 L62.7803509,16.0295056 C62.8001276,15.9964912 62.8120893,15.9569378 62.8120893,15.9132376 C62.8120893,15.8036683 62.7261244,15.7151515 62.616555,15.7151515 L62.5793939,15.7151515 L62.570303,15.7191388 C56.7272408,17.3878788 53.3864115,21.239075 51.7460606,22.8760766 L51.6980542,22.9275917 C51.6120893,23.0320574 51.3980542,23.185327 51.1245295,23.185327 C50.862807,23.185327 50.6554705,23.0676236 50.5095375,22.8945774 L50.5095375,22.8985646 C46.777799,18.6191388 45.7498884,5.38181818 46.3074641,0.322807018 C46.3074641,0.309569378 46.3112919,0.296491228 46.3112919,0.281977671 C46.3112919,0.176236045 46.2503668,0.108931419 46.1422329,0.108931419 C46.0970973,0.108931419 46.0623285,0.122169059 46.032504,0.143221691 C41.2374482,3.59425837 37.1063477,10.814673 36.4626475,16.5963317 C37.2573844,16.6822967 38.3047528,17.6204147 38.755311,18.2821372 C39.7844976,18.9044657 40.570303,18.7379585 40.8872089,19.7606061 C40.9355343,20.6432217 40.0443062,20.7 39.7978947,20.7344498 C39.7978947,20.7344498 39.8763636,20.9100478 40.4412759,22.3290271 C41.4899203,22.2854864 42.3192663,22.0979266 43.9374482,21.5601276 C44.9187879,21.2814992 46.5186284,21.4940989 47.4548325,22.1547049 C48.1360128,22.576236 48.2455821,22.8311005 48.3776396,23.1574163 C48.5983732,23.7389155 48.0805104,24.1735247 47.9827432,24.791866 C47.9423923,25.0574163 47.1958214,25.6717703 46.4902392,26.2783094 C45.8371292,26.8424242 45.5014035,27.1567783 45.5014035,27.1567783 C45.5014035,27.1567783 53.2001276,36.4039872 53.4669537,41.7205742 C53.6176715,42.4011164 53.7854545,43.4250399 53.9585008,44.2401914 C56.716555,50.5767145 52.7060287,65.2637959 52.4707815,67.1280702 C52.4707815,67.1650718 52.447177,67.2125997 52.4524402,67.2416268 C62.0985327,67.9814992 67.4588198,72.3519936 68.6648804,72.0086124 C69.1929506,71.8606061 66.2036364,66.7065391 65.6420734,64.084051 C66.0305901,60.7200957 78.28689,51.807177 83.8642424,48.1022329 C83.8762041,48.0942584 83.8959809,48.0795853 83.9045933,48.0717703 C83.9567464,48.0347687 83.9964593,47.9778309 83.9964593,47.9118022 C83.9964593,47.8443381 83.9567464,47.791547 83.9140032,47.7547049 C83.47126,47.545933 79.9682297,46.9948963 78.2730144,46.776874 L78.0726954,46.6740032 C78.0251675,46.6435407 77.9452632,46.5722488 77.94,46.561563 C77.8718979,46.4810207 77.7569059,46.3752791 77.7207018,46.0754386 C77.7207018,46.0594896 77.7207018,45.945933 77.7272408,45.9339713 C79.7771611,39.1059011 85.2924721,34.2570973 86.6006061,32.391547 L86.6368102,32.2792663 C86.6368102,32.2792663 86.6494099,32.2355662 86.6494099,32.2250399 C86.6494099,32.1192982 86.5741308,32.0070175 86.4711005,31.9977671" id="Fill-24" fill="#383838" sketch:type="MSShapeGroup"></path>
                <path d="M41.6566986,41.3824242 C40.3072568,38.4439872 37.0633971,36.3894418 35.4318182,34.0510048 L32.1225678,46.4017225 C32.8354864,46.1929506 33.5700957,46.4017225 34.0307018,47.0344179 C34.6908293,47.9647209 34.8640351,49.2384051 34.26563,49.6465391 C33.6551037,50.0680702 32.1826954,50.2081021 31.1594099,48.9041148 C30.7123604,48.3360128 30.8295853,47.6451037 31.1002392,47.1613716 L34.8699362,33.100925 C34.7367624,32.8050718 34.6263955,32.5037959 34.557496,32.1985327 C34.3949761,31.5023604 34.5032695,29.8626475 34.3566986,29.3580223 C34.2093301,28.862488 33.788118,28.7277193 33.5342105,28.2521212 C34.1560606,27.4527592 35.3515949,26.5821053 35.3515949,26.5821053 L34.8970494,25.9994896 L34.5152313,25.9797129 C34.5152313,25.9797129 34.1756778,25.7762041 33.9940191,25.4511643 C33.5535088,25.5939075 32.1960925,24.5924721 32.6504785,23.893429 C32.3787081,23.3860925 32.0120415,22.9039553 31.7544657,22.2921531 C31.3330941,21.2773206 31.3389952,20.1755662 31.7447368,19.2454226 C28.604386,17.7285167 26.4153907,15.0730144 25.003748,15.3226156 C24.9069378,15.3345774 24.8338915,15.4191069 24.8338915,15.5155981 C24.4986443,30.2128868 30.4943381,37.2470175 28.8589314,38.416236 C26.3047049,40.2422329 18.6756778,24.6955024 17.4852472,25.4433493 C16.2994418,26.2002871 17.6260766,32.925327 15.9015152,33.909697 C11.0519139,35.2202233 3.58939394,33.5462201 0.26754386,32.6135247 L0.26754386,32.6042743 C0.246650718,32.6002871 0.225279107,32.5962998 0.203110048,32.5962998 C0.093062201,32.5962998 7.97448165e-05,32.6835407 7.97448165e-05,32.7932695 C7.97448165e-05,32.8037959 0.00263157895,32.8143222 0.00693779904,32.8208612 L0.00263157895,32.8208612 C0.664832536,38.2959809 3.35015949,42.2768421 9.97583732,49.0374482 C10.0085327,49.0785965 10.0326156,49.124689 10.0326156,49.18689 C10.0326156,49.2026794 10.0326156,49.2224561 10.0244817,49.2384051 C9.67264753,50.7736523 6.38508772,51.848134 5.31299841,52.8852951 C5.11794258,53.0688676 4.99545455,53.2525997 4.97934609,53.4376077 C4.96355662,53.5999681 4.99290271,53.7757257 5.06180223,53.9607337 C6.13213716,56.6916746 16.4751994,61.7798724 23.5104466,63.3690271 C23.6307018,63.3967783 23.765311,63.4194258 23.7905104,63.5092185 C23.8145933,63.5990112 23.7517544,63.6822648 23.6898724,63.7958214 C21.241547,68.6844976 20.3480861,74.2718979 21.7763158,75.3379266 C22.5547847,75.9208612 26.8546252,73.7050718 32.4972089,71.5130463 C33.7622807,69.1733333 35.6798246,66.3776396 38.0477671,65.2532376 C40.7828549,62.6768421 39.5305423,47.1494099 41.6566986,45.6340989 C41.7018341,44.8717384 41.8716906,44.0486124 42.0361244,43.4725359 C41.1879585,42.8569059 42.0445774,42.2267624 41.6566986,41.3824242" id="Fill-26" fill="#383838" sketch:type="MSShapeGroup"></path>
                <path d="M43.2942743,66.7065391 C43.1020893,66.9457735 42.553764,67.6287081 41.8114992,68.5602871 C43.4280861,68.1955343 45.0585486,67.923445 46.6706699,67.784689 C46.9574322,62.3913876 47.1958692,57.4567783 47.1958692,57.4567783 C47.1958692,57.4567783 45.2011324,62.8379585 43.2942743,66.7065391" id="Fill-28" fill="#383838" sketch:type="MSShapeGroup"></path>
                <path d="M43.2509729,66.7250718 C43.057193,66.9614354 42.5131738,67.6419777 41.7704306,68.575949 C43.3838278,68.2113557 45.0131738,67.9367145 46.6224242,67.8005104 C46.9111005,62.4206061 47.142201,57.4950877 47.142201,57.4950877 C47.142201,57.4950877 45.1540032,62.8617544 43.2509729,66.7250718" id="Fill-30" fill="#383838" sketch:type="MSShapeGroup"></path>
                <path d="M78.6792344,95.609681 L78.2082616,94.2275439 C77.9811483,93.5444498 77.8596172,93.1192504 77.7830622,92.8005901 L77.7524402,92.8005901 C77.6771611,93.1347209 77.540319,93.5591228 77.2821053,94.2434928 L76.7806699,95.609681 L78.6792344,95.609681 Z M76.8117703,89.7935726 L78.6337799,89.7935726 L82.7798724,99.8479585 L80.3355343,99.8479585 L79.3782775,97.46311 L76.1274003,97.46311 L75.216555,99.8479585 L72.8771611,99.8479585 L76.8117703,89.7935726 Z" id="Fill-32" fill="#383838" sketch:type="MSShapeGroup"></path>
                <path d="M74.8655024,67.1220893 L74.8655024,67.3329346 L74.2723604,67.3329346 L74.2723604,68.8814195 L74.0307337,68.8814195 L74.0307337,67.3329346 L73.4347209,67.3329346 L73.4347209,67.1220893 L74.8655024,67.1220893 Z" id="Fill-34" fill="#383838" sketch:type="MSShapeGroup"></path>
                <path d="M75.2527113,67.1220893 L75.596252,67.1220893 L76.1021531,68.6098086 L76.6055024,67.1220893 L76.9466507,67.1220893 L76.9466507,68.8814195 L76.7168262,68.8814195 L76.7168262,67.8440989 C76.7168262,67.8098086 76.7168262,67.7463317 76.7192185,67.6632376 C76.7233652,67.58126 76.7233652,67.488756 76.7233652,67.3978469 L76.2211324,68.8814195 L75.9847687,68.8814195 L75.4772727,67.3978469 L75.4772727,67.4504785 L75.4772727,67.6460128 C75.4838118,67.7372408 75.4838118,67.8018341 75.4838118,67.8440989 L75.4838118,68.8814195 L75.2527113,68.8814195 L75.2527113,67.1220893 Z" id="Fill-36" fill="#383838" sketch:type="MSShapeGroup"></path>
                <path d="M77.858118,67.1220893 L78.0365869,67.1220893 L77.4829984,68.8814195 L77.2952791,68.8814195 L77.858118,67.1220893 Z" id="Fill-38" fill="#383838" sketch:type="MSShapeGroup"></path>
                <path d="M78.340319,67.1220893 L78.6785965,67.1220893 L79.1873684,68.6098086 L79.6894418,67.1220893 L80.025008,67.1220893 L80.025008,68.8814195 L79.8002871,68.8814195 L79.8002871,67.8440989 L79.8002871,67.6632376 C79.801563,67.58126 79.801563,67.488756 79.801563,67.3978469 L79.3050718,68.8814195 L79.0658373,68.8814195 L78.5583413,67.3978469 L78.5583413,67.4504785 C78.5583413,67.49689 78.5596172,67.557496 78.5596172,67.6460128 C78.5648804,67.7372408 78.5648804,67.8018341 78.5648804,67.8440989 L78.5648804,68.8814195 L78.340319,68.8814195 L78.340319,67.1220893 Z" id="Fill-40" fill="#383838" sketch:type="MSShapeGroup"></path>
                <path d="M81.8114035,67.2482456 C81.9316587,67.365949 82.0002392,67.5005582 82.0136364,67.6525518 L81.7820574,67.6525518 C81.757177,67.5351675 81.7042265,67.4439394 81.6263955,67.3783892 C81.5469697,67.3136364 81.4440989,67.2799841 81.3011962,67.2799841 C81.1295853,67.2799841 80.9933812,67.3388357 80.889075,67.4622807 C80.7847687,67.587799 80.7316587,67.772807 80.7316587,68.0225678 C80.7316587,68.2326156 80.7780702,68.3976874 80.873126,68.5260766 C80.9697767,68.6568581 81.1110845,68.7147528 81.2921053,68.7147528 C81.4691388,68.7147528 81.5986443,68.65 81.6911483,68.5153907 C81.7359649,68.4453748 81.7689793,68.3487241 81.8019936,68.2326156 L82.0307018,68.2326156 C82.0094896,68.4228868 81.9447368,68.5787081 81.8273525,68.7029506 C81.6911483,68.8522329 81.5008772,68.927512 81.2669059,68.927512 C81.0594099,68.927512 80.8943381,68.8643541 80.7594099,68.7401116 C80.5772727,68.5787081 80.4858852,68.3238437 80.4858852,67.9849282 C80.4858852,67.7238437 80.5560606,67.5139553 80.6933812,67.3447368 C80.8377193,67.1651515 81.0397927,67.073764 81.3011962,67.073764 C81.5208134,67.073764 81.6911483,67.1308612 81.8114035,67.2482456" id="Fill-42" fill="#383838" sketch:type="MSShapeGroup"></path>
                <path d="M85.6416427,98.0867464 L85.6416427,98.2969537 L85.0510526,98.2969537 L85.0510526,99.8479904 L84.8089474,99.8479904 L84.8089474,98.2969537 L84.214689,98.2969537 L84.214689,98.0867464 L85.6416427,98.0867464 Z" id="Fill-44" fill="#383838" sketch:type="MSShapeGroup"></path>
                <path d="M86.0338278,98.0867464 L86.3733812,98.0867464 L86.8819936,99.5744657 L87.3842265,98.0867464 L87.7237799,98.0867464 L87.7237799,99.8479904 L87.4937959,99.8479904 L87.4937959,98.8057257 C87.4937959,98.7711164 87.4937959,98.7132217 87.4979426,98.6272568 C87.4979426,98.5452791 87.5003349,98.4586762 87.5003349,98.362504 L86.9982616,99.8479904 L86.7617384,99.8479904 L86.2559968,98.362504 L86.2559968,98.4144976 L86.2559968,98.6125837 C86.2599841,98.7014195 86.2599841,98.7658533 86.2599841,98.8057257 L86.2599841,99.8479904 L86.0338278,99.8479904 L86.0338278,98.0867464 Z" id="Fill-46" fill="#383838" sketch:type="MSShapeGroup"></path>
                <path d="M88.6327113,98.0867464 L88.815008,98.0867464 L88.2575917,99.8479904 L88.0751356,99.8479904 L88.6327113,98.0867464 Z" id="Fill-48" fill="#383838" sketch:type="MSShapeGroup"></path>
                <path d="M89.1161563,98.0867464 L89.4573046,98.0867464 L89.9632057,99.5744657 L90.466555,98.0867464 L90.8022807,98.0867464 L90.8022807,99.8479904 L90.5789952,99.8479904 L90.5789952,98.8057257 L90.5789952,98.6272568 C90.5789952,98.5452791 90.5826635,98.4586762 90.5826635,98.362504 L90.0780383,99.8479904 L89.8416746,99.8479904 L89.3370494,98.362504 L89.3370494,98.4144976 C89.3370494,98.4586762 89.3370494,98.524067 89.3394418,98.6125837 L89.3394418,98.8057257 L89.3394418,99.8479904 L89.1161563,99.8479904 L89.1161563,98.0867464 Z" id="Fill-50" fill="#383838" sketch:type="MSShapeGroup"></path>
                <g id="Group-54">
                    <mask id="mask-4" sketch:name="Clip 53" fill="white">
                        <use xlink:href="#path-3"></use>
                    </mask>
                    <g id="Clip-53"></g>
                    <path d="M92.5856778,98.2150877 C92.7099203,98.3324721 92.7748325,98.4645295 92.7879107,98.6154067 L92.5579266,98.6154067 C92.5330463,98.5016906 92.4813716,98.4107815 92.4033812,98.3458692 C92.3255502,98.2798405 92.2147049,98.2441148 92.0810526,98.2441148 C91.906571,98.2441148 91.7719617,98.3047209 91.6660606,98.4278469 C91.5617544,98.549378 91.506252,98.740925 91.506252,98.9873365 C91.506252,99.1978628 91.5552153,99.3616587 91.6464434,99.4925997 C91.74437,99.6208293 91.8869537,99.6857416 92.0757895,99.6857416 C92.2461244,99.6857416 92.3757895,99.6162041 92.4682935,99.4835088 C92.514386,99.410622 92.5461244,99.3128549 92.5713238,99.1994577 L92.8078469,99.1994577 C92.7866348,99.3841467 92.7164593,99.5414035 92.6043381,99.6670813 C92.4617544,99.8162041 92.2791388,99.8943541 92.0454864,99.8943541 C91.8405423,99.8943541 91.6729187,99.8335885 91.536874,99.710622 C91.3529825,99.5414035 91.2673365,99.2945136 91.2673365,98.9495375 C91.2673365,98.6879745 91.3319298,98.4752153 91.4666986,98.3101435 C91.6147049,98.1303987 91.8156619,98.0353429 92.0772249,98.0353429 C92.2938118,98.0353429 92.4682935,98.0973844 92.5856778,98.2150877" id="Fill-52" fill="#383838" sketch:type="MSShapeGroup" mask="url(#mask-4)"></path>
                </g>
            </g>
        </g>
    </g>
</svg>