<?xml version="1.0" encoding="UTF-8" standalone="no"?>
<svg width="100px" height="77px" viewBox="0 0 100 77" version="1.1" xmlns="http://www.w3.org/2000/svg" xmlns:xlink="http://www.w3.org/1999/xlink" xmlns:sketch="http://www.bohemiancoding.com/sketch/ns">
    <!-- Generator: Sketch 3.4.4 (17249) - http://www.bohemiancoding.com/sketch -->
    <title>Page 1</title>
    <desc>Created with Sketch.</desc>
    <defs>
        <path id="path-1" d="M0,0.0102339181 L99.8400585,0.0102339181 L99.8400585,75.7309942 L0,75.7309942 L0,0.0102339181 Z"></path>
    </defs>
    <g id="Homepage" stroke="none" stroke-width="1" fill="none" fill-rule="evenodd" sketch:type="MSPage">
        <g id="Artboard-4" sketch:type="MSArtboardGroup" transform="translate(-142.000000, -776.000000)">
            <g id="Page-1" sketch:type="MSLayerGroup" transform="translate(142.000000, 776.500963)">
                <path id="Fill-1" fill="#383838" sketch:type="MSShapeGroup" d="M53.2867544,15.4706725 C53.2867544,15.4706725 53.3130702,15.4619006 53.3598538,15.4484503 L53.2475731,15.410731 L53.2867544,15.4706725 Z"></path>
                <path d="M57.7098538,13.9224269 C56.7332456,14.3510819 55.912193,14.7800292 54.8382164,15.304883 C55.8642398,15.3788596 57.1662865,15.854883 57.9811988,17.5768129 C57.9829532,17.5776901 57.9914327,17.5861696 58.0025439,17.5978655 C67.9004971,10.8218421 67.9388012,8.74143275 57.7098538,13.9224269" id="Fill-3" fill="#383838" sketch:type="MSShapeGroup"></path>
                <g id="Group-7">
                    <mask id="mask-2" sketch:name="Clip 6" fill="white">
                        <use xlink:href="#path-1"></use>
                    </mask>
                    <g id="Clip-6"></g>
                    <path d="M94.2856725,40.8411696 L76.4947368,46.3645614 L85.978655,19.5405848 L93.8909357,17.0853216 L87.1225146,36.4844444 L96.7777778,33.5303509 L94.6809942,39.8192398 L94.2856725,40.8411696 Z M91.3251462,49.8812281 L22.0064327,71.5663158 L22.0766082,71.541462 C21.7789474,71.6461404 18.0333333,72.9300585 13.824269,73.6382456 C7.80292398,74.6522807 3.97426901,73.9478947 2.44385965,71.5470175 C-0.275146199,67.2797661 4.83011696,58.4976023 18.0505848,44.7063743 C18.194152,44.5572515 19.7233918,43.0774269 19.8681287,42.9268421 L19.8947368,42.9265497 L19.5581871,38.7253801 L28.3488304,36.0256725 L28.3599415,36.6057895 C26.9903509,37.9788889 24.6894737,40.3262573 22.3488304,42.892924 C21.5915205,43.7233333 20.8309942,44.5762573 20.095614,45.4271345 C19.9546784,45.59 19.8149123,45.7525731 19.6763158,45.9151462 L19.6166667,45.9797661 C11.3190058,55.4940936 7.11637427,62.9721637 8.6494152,65.4964327 C9.25233918,66.49 11.5692982,67.7508187 20.3087719,65.0347368 C34.6877193,60.5663158 92.0315789,42.967193 93.8134503,42.420117 L91.3251462,49.8812281 Z M20.3783626,60.5821053 C20.0099415,61.2625146 19.4561404,62.0867836 18.2979532,63.162807 C18.2979532,63.162807 15.2885965,65.4575439 10.1406433,65.8636842 C10.1406433,65.8636842 9.6128655,64.3364912 10.7903509,60.2145614 C10.7903509,60.2145614 17.251462,60.538538 19.4754386,56.9800585 C19.7,56.7537427 19.9073099,56.5075439 20.1040936,56.2455556 L20.1739766,57.3514035 L20.2929825,59.2347368 L20.3783626,60.5821053 Z M28.4853801,43.1549123 L28.5166667,44.7917544 L28.5883041,48.5245029 L28.6210526,50.2245029 L30.4877193,47.2625146 L30.6406433,47.020117 L36.3131579,38.0198246 L39.0567251,33.6666082 L42.6005848,32.5844444 L45.3467836,43.0724561 L49.6011696,33.8353216 C48.7763158,34.4245029 48.1780702,34.8461404 47.874269,35.0595906 C47.724269,35.1645614 47.6438596,35.2207018 47.6438596,35.2207018 C47.5377193,35.2721637 47.4149123,35.3440936 47.2845029,35.4256725 L45.7084795,38.9698246 L43.6953216,30.9926316 L43.4862573,31.0604678 L37.9684211,32.8487719 L35.9739766,35.9660234 L31.7660819,42.5426316 L29.730117,45.7253801 L29.8105263,42.7274269 L29.8576023,40.9692398 C30.7596491,39.5256725 31.4078947,38.4698246 31.3988304,38.4326901 C31.3400585,38.194386 30.1722222,37.2651462 30.730117,36.3467251 L30.7040936,36.392924 C30.7040936,36.392924 30.7400585,36.3110526 30.7488304,36.2911696 C30.3125731,35.9481871 29.8722222,35.4420468 29.8172515,34.7487719 C29.8114035,34.6607602 29.7807018,34.0376608 29.8046784,33.1014035 C29.8695906,30.6376608 30.9944444,26.2417544 33.3333333,23.4739181 C33.6210526,22.7163158 34.447076,20.2277193 37.4850877,18.5148538 C37.4561404,18.4473099 37.2345029,16.4353216 37.2561404,15.8192398 C37.1324561,15.6850292 37.0178363,15.5318129 36.9391813,15.3332749 C36.845614,15.0967251 36.8020468,14.8391228 36.8096491,14.5592982 C36.8245614,13.9695322 37.0736842,13.2765497 37.5435673,12.4724561 C37.7026316,12.0122222 38.3309942,10.4215789 39.6078947,9.79409357 L42.2692982,9.33239766 C43.2608187,9.14701754 44.3994152,9.27450292 44.9476608,10.0367836 C45.0637427,10.1519883 45.6365497,10.7867836 46.1979532,12.4718713 C46.1979532,12.4718713 46.4947368,13.6955556 46.4766082,14.0578363 C48.2909357,13.494386 49.2298246,13.5133918 51.1605263,14.088538 L51.3964912,14.1604678 C51.3964912,14.1604678 51.7570175,14.3408772 52.1555556,14.5660234 C68.1821637,4.88005848 72.5722222,3.95169591 73.8938596,3.40520468 C79.1672515,1.22450292 91.6210526,-0.646842105 76.0052632,14.7552047 C72.6807018,18.0335673 68.6064327,21.5107602 64.6040936,24.6888304 C63.6666667,25.4329825 62.7342105,26.1595906 61.8152047,26.8645614 C61.4824561,27.1198246 61.1520468,27.3718713 60.8236842,27.6207018 L59.130117,31.3125146 L54.5982456,41.191462 L52.504386,45.7560819 L49.5482456,52.2002339 L48.1950292,55.1502339 L40.9178363,57.4092982 L39.6230994,51.8800585 L38.2450292,45.9940936 L34.0497076,53.5057895 L29.9719298,60.8075439 L21.5704678,63.415731 L21.194152,59.0648538 L21.1266082,58.2861988 L21.0950292,57.9207018 L20.9423977,56.1575439 L20.851462,55.1057895 C20.8573099,55.095848 20.8634503,55.0861988 20.8692982,55.0762573 L20.1380117,45.9549123 C23.6815789,42.487076 25.2681287,41.1604678 26.9052632,39.8487719 C27.3818713,39.467193 27.8640351,39.0853216 28.3991228,38.6534503 L28.4853801,43.1549123 Z M71.0710526,23.9911696 L67.7444444,33.087076 L71.619883,31.815731 L74.9169591,22.7973099 L83.3754386,20.1712865 L73.5912281,47.265731 L65.4222222,49.8019883 L69.4497076,38.5923392 L65.5766082,39.8633918 L61.5055556,51.0177778 L52.9885965,53.6619298 L62.8078947,26.5926316 L64.2561404,26.1069591 L71.0710526,23.9911696 Z M90.5546784,33.3075439 L97.0576023,14.0323977 L71.2964912,21.9367836 L70.9076023,21.9815205 C73.3678363,19.84 75.9128655,17.7402924 77.8315789,15.8473099 C84.0339181,9.73035088 86.0631579,5.64877193 85.3853801,2.87684211 C85.298538,2.51807018 85.1561404,2.18122807 84.9614035,1.8651462 C82.994152,-1.3219883 76.5330409,0.292339181 73.3915205,1.5905848 L72.824269,1.79526316 C70.8818713,2.47070175 65.7660819,4.25842105 52.2918129,12.3435088 C52.255848,12.3239181 52.2192982,12.3043275 52.2192982,12.3043275 L52.1011696,12.2774269 L51.8657895,12.2052047 C50.4505848,11.7838596 49.1447368,11.5674854 47.9403509,11.520117 C47.3532164,9.81192982 46.7169591,8.97011696 46.4073099,8.63619883 C45.5222222,7.53005848 43.9438596,7.06982456 42.1400585,7.40637427 C42.1622807,7.4025731 39.5017544,7.86426901 39.5017544,7.86426901 L39.2365497,7.91017544 L38.9906433,8.03152047 C37.1926901,8.9151462 36.3210526,10.7800585 35.9891813,11.6826901 C35.4175439,12.7081287 35.1178363,13.6291813 35.0950292,14.4832749 C35.0862573,14.8306433 35.1207602,15.1660234 35.1994152,15.4859064 C35.2383041,15.644386 35.2871345,15.7984795 35.3464912,15.9481871 C35.4046784,16.0952632 35.4818713,16.2332749 35.5628655,16.370117 C35.5792398,16.7025731 35.6049708,17.114269 35.6415205,17.5326901 C33.1160819,19.3648538 32.1900585,21.5978947 31.8339181,22.5408772 C29.2192982,25.8525731 28.1549708,30.5759649 28.0906433,33.0253801 C28.0751462,33.6318129 28.0894737,34.1283041 28.0894737,34.1283041 L17.428655,37.3016959 C17.428655,37.3016959 17.7704678,41.2809357 17.871345,42.3768421 C17.8707602,42.3780117 16.8807018,43.3478947 16.8807018,43.3478947 C4.1625731,56.615731 -1.12046784,65.1803509 0.195906433,70.5707018 C0.35994152,71.2423392 0.626608187,71.8639766 0.993274854,72.4394152 C2.91315789,75.4531579 7.31666667,76.4034503 14.0815789,75.2651462 C18.1035088,74.588538 21.5897661,73.445848 22.5102339,73.1306433 L22.5105263,73.1338596 L92.9663743,51.0920468 L99.8400585,30.4569591 L90.5546784,33.3075439 Z" id="Fill-5" fill="#383838" sketch:type="MSShapeGroup" mask="url(#mask-2)"></path>
                </g>
                <path d="M96.4255556,54.3896784 C96.2866667,54.3010819 96.1618129,54.2098538 95.8755556,54.1326608 C95.022924,53.9037135 94.498655,54.3940643 94.3799415,54.837924 C94.1767251,55.5940643 94.6278947,56.0417251 95.2738012,56.2154094 C95.5375439,56.2861696 95.7711696,56.2858772 95.8869591,56.2841228 C95.9828655,56.2803216 96.0445614,56.2794444 96.0606433,56.2206725 L96.2495322,55.8697953 L96.1612281,55.8458187 C95.9822807,56.0619006 95.7293567,56.2233041 95.3577193,56.1235965 C94.7860819,55.9692105 94.6615205,55.4946491 94.8179532,54.933538 C94.9635673,54.4154094 95.3080117,54.0946491 95.8305263,54.2355848 C96.2673684,54.3525439 96.3571345,54.6466959 96.3188304,54.8779825 L96.414152,54.9037135 L96.5147368,54.5285673 C96.5267251,54.4858772 96.5045029,54.4338304 96.4255556,54.3896784" id="Fill-8" fill="#383838" sketch:type="MSShapeGroup"></path>
                <path d="M97.0428947,55.6069591 C96.8127778,56.4633918 95.8961111,57.0321053 95.0104386,56.7935088 C94.1010819,56.5496491 93.5928947,55.5970175 93.8230117,54.7408772 C94.0554678,53.8785965 94.9680409,53.3028655 95.8817836,53.5490643 C96.7803216,53.79 97.2765205,54.7391228 97.0428947,55.6069591 M95.9428947,53.3239181 C94.8545906,53.0315205 93.7899708,53.6353216 93.513655,54.6581287 C93.239386,55.6797661 93.8601462,56.7259649 94.9493275,57.0189474 C96.0206725,57.3069591 97.0765205,56.7116374 97.3519591,55.69 C97.6271053,54.667193 97.0142398,53.6125146 95.9428947,53.3239181" id="Fill-10" fill="#383838" sketch:type="MSShapeGroup"></path>
                <path d="M55.2024854,26.0044152 C55.7934211,25.5915497 56.369152,25.1868713 56.9290936,24.7909649 C83.7583333,5.81289474 75.6238304,5.77722222 74.6442982,5.80353801 C73.0258772,5.84739766 71.3989766,6.74535088 69.996345,7.1547076 C72.5501462,6.8424269 73.4907895,7.57078947 73.4337719,8.18511696 C73.1834795,10.8965205 65.3165205,17.0357018 58.0589181,22.156462 C57.7290936,22.3892105 57.400731,22.6196199 57.0738304,22.8479825 C56.180848,23.4716667 55.3024854,24.0772222 54.455117,24.6547076 L53.0074561,27.5272222 C53.7618421,27.0073392 54.4934211,26.4997368 55.2024854,26.0044152" id="Fill-12" fill="#383838" sketch:type="MSShapeGroup"></path>
                <path d="M52.1392982,25.9614327 L47.2846199,35.4254678 L49.6012865,33.8354094 L54.4550877,24.6547076 L52.1392982,25.9614327 Z" id="Fill-14" fill="#383838" sketch:type="MSShapeGroup"></path>
            </g>
        </g>
    </g>
</svg>