<?xml version="1.0" encoding="UTF-8" standalone="no"?>
<svg width="26px" height="25px" viewBox="0 0 26 25" version="1.1" xmlns="http://www.w3.org/2000/svg" xmlns:xlink="http://www.w3.org/1999/xlink" xmlns:sketch="http://www.bohemiancoding.com/sketch/ns">
    <!-- Generator: Sketch 3.3.3 (12081) - http://www.bohemiancoding.com/sketch -->
    <title>Imported Layers</title>
    <desc>Created with Sketch.</desc>
    <defs></defs>
    <g id="Page-1" stroke="none" stroke-width="1" fill="none" fill-rule="evenodd" sketch:type="MSPage">
        <g id="Desktop-HD" sketch:type="MSArtboardGroup" transform="translate(-661.000000, -158.000000)" fill="#FFFFFF">
            <path d="M677.893,183.013 C677.24,183.128 677.023,182.728 677.023,182.394 L677.023,178.869 C677.023,177.665 676.622,176.898 676.154,176.496 C679.012,176.179 682.019,175.093 682.019,170.164 C682.019,168.761 681.518,167.608 680.699,166.722 C680.833,166.388 681.267,165.085 680.565,163.314 C679.496,162.979 677.04,164.634 677.04,164.634 C676.021,164.35 674.918,164.199 673.832,164.199 C672.746,164.199 671.643,164.35 670.624,164.634 C670.624,164.634 668.168,162.979 667.082,163.314 C666.397,165.085 666.831,166.388 666.965,166.722 C666.146,167.608 665.645,168.761 665.645,170.164 C665.645,175.076 668.636,176.179 671.493,176.496 C671.125,176.829 670.791,177.382 670.674,178.216 C669.939,178.552 668.068,179.119 666.948,177.148 C666.247,175.927 664.977,175.828 664.977,175.828 C663.724,175.812 664.893,176.613 664.893,176.613 C665.728,176.997 666.313,178.484 666.313,178.484 C667.065,180.773 670.641,180.005 670.641,180.005 C670.641,181.074 670.657,182.093 670.657,182.394 C670.657,182.728 670.423,183.128 669.772,183.013 C664.676,181.308 661,176.496 661,170.832 C661,163.748 666.748,158 673.832,158 C680.916,158 686.664,163.748 686.664,170.832 C686.664,176.496 682.988,181.308 677.893,183.013" id="Imported-Layers" sketch:type="MSShapeGroup"></path>
        </g>
    </g>
</svg>