<?xml version="1.0" encoding="UTF-8" standalone="no"?>
<svg width="599px" height="124px" viewBox="0 0 599 124" version="1.1" xmlns="http://www.w3.org/2000/svg" xmlns:xlink="http://www.w3.org/1999/xlink" xmlns:sketch="http://www.bohemiancoding.com/sketch/ns">
    <!-- Generator: Sketch 3.4 (15588) - http://www.bohemiancoding.com/sketch -->
    <title>Fill 1</title>
    <desc>Created with Sketch.</desc>
    <defs></defs>
    <g id="About-Us" stroke="none" stroke-width="1" fill="none" fill-rule="evenodd" sketch:type="MSPage">
        <g id="Page-1" sketch:type="MSLayerGroup" transform="translate(-1.000000, 0.000000)" fill="#383838">
            <path d="M448.5293,116.623 C435.3593,104.663 422.3373,92.539 409.2623,80.473 C404.8513,76.401 400.4393,72.331 396.0283,68.26 C411.1733,85.57 426.7433,102.415 442.2643,119.304 C443.5613,120.715 444.5293,122.428 445.6493,124 L450.6493,124 C451.8843,120.979 450.9513,118.822 448.5293,116.623 M578.2812,65.5361 C578.0032,71.5321 574.4762,76.3441 568.4692,77.0291 C560.4452,77.9461 552.3102,77.9011 543.7052,78.2931 L543.7052,51.8351 C552.7312,52.4181 561.6422,52.4171 570.3442,53.7661 C575.8312,54.6181 578.5452,59.8491 578.2812,65.5361 M579.1242,92.1201 C580.2942,91.4141 580.8172,91.0621 581.3722,90.7691 C595.0942,83.5051 600.5692,71.7861 597.3222,56.6111 C594.6672,44.2041 583.7592,35.4501 569.5312,35.0921 C555.2152,34.7311 540.8832,34.9811 526.5572,34.9961 C525.7912,34.9971 525.0242,35.2951 524.3682,35.4321 L524.3682,122.9901 L543.7182,122.9901 L543.7182,94.9061 C547.3852,94.9061 550.4032,95.1491 553.3662,94.8471 C557.2932,94.4441 559.7372,95.8231 561.8342,99.2561 C566.1682,106.3531 570.8932,113.2211 575.6812,120.0251 C576.6912,121.4611 578.6262,123.0781 580.1942,123.1411 C586.6672,123.4021 593.1622,123.0971 599.6492,123.0001 L599.6492,121.0001 C592.8582,111.4441 586.0662,101.8881 579.1242,92.1201 M469.9131,113.6172 C452.8111,98.0182 435.8501,82.2652 418.8351,66.5722 C406.7071,55.3862 394.5711,44.2072 382.4391,33.0252 C408.7671,62.2412 435.4191,91.1092 462.0321,120.0132 C463.0951,121.1682 463.7851,122.6632 464.6491,124.0002 L471.6491,124.0002 C474.5421,119.9552 473.4241,116.8192 469.9131,113.6172 Z M75.5205,34.8545 C69.7515,34.1635 66.5815,36.4815 63.7815,41.4165 C57.9945,51.6195 51.5155,61.4295 45.0215,71.8825 C43.7005,69.9535 42.7295,68.6455 41.8715,67.2675 C35.8885,57.6645 29.9625,48.0265 23.9235,38.4585 C23.0945,37.1455 21.7845,35.2385 20.6215,35.1815 C14.0545,34.8645 7.4645,35.0285 0.9995,35.0285 L0.9995,122.9765 L19.8835,122.9765 L19.8835,67.8385 C20.2285,67.7795 20.5745,67.7185 20.9195,67.6585 C28.7545,79.5015 36.5905,91.3455 44.7655,103.7025 C53.1125,91.1125 60.9965,79.2215 68.8795,67.3315 C69.2755,67.5005 69.6715,67.6705 70.0675,67.8405 L70.0675,122.8085 L89.0905,122.8085 L89.0905,34.9585 C84.3945,34.9585 79.9005,35.3785 75.5205,34.8545 Z M133.001,87.2988 L174.181,87.2988 L174.181,69.8548 L132.9,69.8548 L132.9,51.9708 L180.081,51.9708 L180.081,35.2548 L113.886,35.2548 L113.886,122.9338 L180.351,122.9338 L180.351,105.8578 L133.001,105.8578 L133.001,87.2988 Z M322.1104,87.166 L363.1864,87.166 L363.1864,69.861 L322.0164,69.861 L322.0164,51.994 L368.6764,51.994 L368.6764,35.383 L303.0324,35.383 L303.0324,122.952 L369.3664,122.952 L369.3664,105.705 L322.1104,105.705 L322.1104,87.166 Z M205.1714,35.1943 L205.1714,53.0103 L231.7334,53.0103 L231.7334,122.9433 L251.1114,122.9433 L251.1114,52.7073 C259.1494,52.7073 266.4574,52.8233 273.7544,52.6053 C275.1524,52.5633 277.6404,51.2923 277.7034,50.4443 C278.0784,45.4043 277.8884,40.3213 277.8884,35.1943 L205.1714,35.1943 Z M487.6328,104.0391 C459.5188,77.5851 431.4038,51.1321 403.2898,24.6791 C394.8718,16.7581 386.4528,8.8391 378.0348,0.9191 C377.8628,1.0861 377.6918,1.2531 377.5198,1.4211 C377.8878,1.9021 378.2148,2.4221 378.6278,2.8601 C409.6568,35.8131 440.6938,68.7611 471.7278,101.7081 C475.2648,105.4631 478.4958,109.5981 482.4818,112.7931 C484.1418,114.1241 488.1398,114.5511 489.7788,113.4531 C492.6768,111.5131 491.9408,108.2501 489.4478,105.7521 C488.8618,105.1631 488.2378,104.6091 487.6328,104.0391 Z M497.3936,87.1553 C467.9096,59.9253 438.4176,32.7033 408.9276,5.4793 C408.8696,5.6283 408.8116,5.7763 408.7526,5.9253 C433.2796,32.4713 457.8036,59.0213 482.3356,85.5643 C485.6156,89.1123 488.6646,92.9523 492.3726,95.9823 C493.7956,97.1453 498.0636,97.3283 498.7386,96.3583 C499.9176,94.6653 499.4926,91.7243 499.3646,89.3273 C499.3246,88.5683 498.1256,87.8323 497.3936,87.1553 Z M449.1084,22.7129 C448.8724,22.9349 448.6354,23.1549 448.3994,23.3769 C464.6764,40.9629 480.9154,58.5859 497.3434,76.0279 C498.2114,76.9489 500.6974,76.3449 502.4294,76.4499 C502.0034,74.5989 502.2064,72.0789 501.0554,70.9959 C483.8444,54.7899 466.4554,38.7739 449.1084,22.7129 Z M427.5205,118.085 L429.2025,116.351 C422.2725,109.868 415.3415,103.387 408.4125,96.905 C414.5395,104.3 420.5075,111.734 427.5205,118.085 Z M497.9785,52.1865 C491.1365,45.7495 484.2935,39.3125 477.4525,32.8755 C477.2505,33.0235 477.0505,33.1715 476.8495,33.3205 L496.0745,54.0535 C496.7085,53.4315 497.3435,52.8085 497.9785,52.1865 Z" id="Fill-1" sketch:type="MSShapeGroup"></path>
        </g>
    </g>
</svg>