<?xml version="1.0" encoding="UTF-8" standalone="no"?>
<svg width="165px" height="154px" viewBox="0 0 165 154" version="1.1" xmlns="http://www.w3.org/2000/svg" xmlns:xlink="http://www.w3.org/1999/xlink" xmlns:sketch="http://www.bohemiancoding.com/sketch/ns">
    <!-- Generator: Sketch 3.4 (15588) - http://www.bohemiancoding.com/sketch -->
    <title>Group 17</title>
    <desc>Created with Sketch.</desc>
    <defs></defs>
    <g id="Page-1" stroke="none" stroke-width="1" fill="none" fill-rule="evenodd" sketch:type="MSPage">
        <g id="hipchat_rgb_blue" sketch:type="MSLayerGroup" fill="#383838">
            <g id="Group-17" sketch:type="MSShapeGroup">
                <path d="M127.152,86.82 C127.15,85.099 125.754,83.551 123.877,83.551 C123.119,83.551 122.344,83.809 121.708,84.38 C113.423,91.825 99.324,98.409 82.272,98.452 L82.203,98.452 C65.18,98.409 51.485,91.562 42.766,84.382 C42.214,83.928 41.192,83.617 40.53,83.617 C38.504,83.617 37.326,85.341 37.324,87.237 C37.323,88.7 38.348,89.922 39.192,91.189 C44.08,98.528 59.242,110.989 82.059,110.989 L82.416,110.989 C105.232,110.989 120.394,98.528 125.283,91.189 C126.127,89.922 127.153,88.283 127.152,86.82" id="Fill-14"></path>
                <path d="M127.829,137.122 C128.087,137.465 128.224,137.756 128.224,138.073 C128.224,138.549 127.772,138.877 127.204,138.877 C123.084,138.877 110.39,132.036 103.708,126.399 C102.793,125.628 101.513,125.345 99.696,125.741 C94.122,126.954 88.275,127.609 82.24,127.609 C44.436,127.609 13.788,102.306 13.788,71.084 C13.788,39.878 44.436,14.58 82.24,14.58 C120.041,14.58 150.687,39.878 150.687,71.084 C150.687,89.714 139.773,106.234 122.94,116.53 C121.815,117.219 120.616,118.513 120.616,120.131 C120.616,123.454 123.739,131.692 127.829,137.122 L127.829,137.122 Z M149.838,144.018 C144.029,140.71 138.516,135.114 135.99,127.446 C135.495,125.943 135.935,124.728 137.094,123.833 C153.9,110.839 164.475,91.976 164.475,70.967 C164.475,31.786 127.656,0.022 82.241,0.022 C36.821,0.022 0,31.786 0,70.967 C0,110.168 36.821,141.937 82.241,141.937 C88.175,141.937 93.961,141.394 99.539,140.363 C100.908,140.11 102.021,140.432 102.932,140.991 C114.187,147.898 130.947,153.69 145.645,153.69 C150.38,153.69 152.201,150.687 152.201,147.952 C152.201,146.188 151.245,144.82 149.838,144.018 L149.838,144.018 Z" id="Fill-16"></path>
            </g>
        </g>
    </g>
</svg>