<?xml version="1.0" encoding="UTF-8" standalone="no"?>
<svg width="95px" height="84px" viewBox="0 0 95 84" version="1.1" xmlns="http://www.w3.org/2000/svg" xmlns:xlink="http://www.w3.org/1999/xlink" xmlns:sketch="http://www.bohemiancoding.com/sketch/ns">
    <!-- Generator: Sketch 3.4.2 (15857) - http://www.bohemiancoding.com/sketch -->
    <title>icon-application-framer.svg</title>
    <desc>Created with Sketch.</desc>
    <defs></defs>
    <g id="Page-1" stroke="none" stroke-width="1" fill="none" fill-rule="evenodd" sketch:type="MSPage">
        <g id="icon-application-framer.svg" sketch:type="MSLayerGroup">
            <path d="M9.89998188,43 C9.43671155,45.2822403 7.41895791,47 5,47 C2.23857625,47 0,44.7614237 0,42 C0,39.2385763 2.23857625,37 5,37 C7.41895791,37 9.43671155,38.7177597 9.89998188,41 L34,41 L35,41 L35,43 L34,43 L9.89998188,43 Z" id="Oval-1" fill="#383838" sketch:type="MSShapeGroup"></path>
            <path d="M47,51 L47,51 C51.9705627,51 56,46.9705627 56,42 C56,37.0294373 51.9705627,33 47,33 C42.0294373,33 38,37.0294373 38,42 C38,46.9705627 42.0294373,51 47,51 L47,51 Z M47,56 L47,56 C39.2680135,56 33,49.7319865 33,42 C33,34.2680135 39.2680135,28 47,28 C54.7319865,28 61,34.2680135 61,42 C61,49.7319865 54.7319865,56 47,56 L47,56 Z" id="Shape" fill="#383838" sketch:type="MSShapeGroup"></path>
            <path d="M15,80 L15,80 C16.9852814,80 19,77.9852814 19,76 C19,73.0147186 16.9852814,71 15,71 C12.0147186,71 10,73.0147186 10,76 C10,77.9852814 12.0147186,80 15,80 L15,80 Z M15,84 L15,84 C9.80557963,84 6,80.1944204 6,76 C6,70.8055796 9.80557963,67 15,67 C19.1944204,67 23,70.8055796 23,76 C23,80.1944204 19.1944204,84 15,84 L15,84 Z" id="Shape" fill="#383838" sketch:type="MSShapeGroup"></path>
            <path d="M16,69 C15.9914972,68.7983614 16.0049813,68.4004239 16,68 C16.1153363,66.8806007 16.2403406,65.814864 16,65 C16.9911734,61.3831949 17.9917672,58.1021708 20,55 C19.952107,54.2453077 20.3950889,53.4665032 21,53 C22.3023408,50.4723154 24.224149,48.6498265 27,47 C28.3823908,46.0355603 30.380976,45.1772932 32,45 C33.0786939,44.3771534 33.7262596,44.2181714 34,44 C34.6458753,44.032672 34.8833904,43.9937764 35,44 L35,42 C34.5818726,42.0209931 34.2992365,42.0672777 34,42 C33.2769547,42.2734863 32.5721274,42.4465264 32,43 C29.6522132,43.3125694 27.4895893,44.2412808 25,46 C22.9278881,47.1092 20.791692,49.1349971 19,52 C18.6811083,52.4483949 18.2062452,53.2832496 18,54 C16.1177701,57.392212 15.0593439,60.8628731 14,64 C14.2659116,65.5459789 14.1335384,66.6745399 14,68 C14.0151134,68.3055031 14,68.7515263 14,69 L16,69 L16,69 Z" id="Shape" fill="#383838" sketch:type="MSShapeGroup"></path>
            <g id="Oval-1-+-Shape-+-Shape" transform="translate(78.000000, 23.500000) rotate(-180.000000) translate(-78.000000, -23.500000) translate(60.000000, 0.000000)" fill="#2D2D2D" sketch:type="MSShapeGroup">
                <path d="M10.9054715,6 C10.4422012,8.28224032 8.42444751,10 6.0054896,10 C3.24406585,10 1.0054896,7.76142375 1.0054896,5 C1.0054896,2.23857625 3.24406585,0 6.0054896,0 C8.42444751,0 10.4422012,1.71775968 10.9054715,4 L34.9968434,4 L35.9961573,4 L35.9961573,6 L34.9968434,6 L10.9054715,6 Z" id="Oval-1"></path>
                <path d="M15.5,43 L15.5,43 C17.9852814,43 20,40.9852814 20,38.5 C20,36.0147186 17.9852814,34 15.5,34 C13.0147186,34 11,36.0147186 11,38.5 C11,40.9852814 13.0147186,43 15.5,43 L15.5,43 Z M15.5,47 L15.5,47 C10.8055796,47 7,43.1944204 7,38.5 C7,33.8055796 10.8055796,30 15.5,30 C20.1944204,30 24,33.8055796 24,38.5 C24,43.1944204 20.1944204,47 15.5,47 L15.5,47 Z" id="Shape"></path>
                <path d="M16.9914972,32 C16.9914972,31.7983614 17.0049813,31.4004239 17.0460678,30.8345764 C17.1153363,29.8806007 17.2403406,28.814864 17.4350144,27.6658337 C17.9911734,24.3831949 18.9917672,21.1021708 20.5435502,18.0491212 C20.952107,17.2453077 21.3950889,16.4665032 21.873673,15.7151757 C23.3023408,13.4723154 25.224149,11.6498265 27.5233558,10.2043265 C29.3823908,9.03556027 31.380976,8.17729323 33.3798517,7.58442912 C34.0786939,7.37715337 34.7262596,7.21817144 35.3049824,7.10143487 C35.6458753,7.03267195 35.8833904,6.99377643 36,6.97855297 L35.7426769,5 C35.5818726,5.0209931 35.2992365,5.06727766 34.9119179,5.1454053 C34.2769547,5.27348634 33.5721274,5.4465264 32.8145465,5.67122399 C30.6522132,6.31256942 28.4895893,7.2412808 26.4648292,8.51423753 C23.9278881,10.1092 21.791692,12.1349971 20.194917,14.6417685 C19.6811083,15.4483949 19.2062452,16.2832496 18.7689071,17.1436888 C17.1177701,20.392212 16.0593439,23.8628731 15.4716029,27.3319194 C15.2659116,28.5459789 15.1335384,29.6745399 15.0598195,30.6898057 C15.0151134,31.3055031 15,31.7515263 15,32 L16.9914972,32 L16.9914972,32 Z" id="Shape"></path>
            </g>
        </g>
    </g>
</svg>