<?xml version="1.0" encoding="UTF-8" standalone="no"?>
<svg width="50px" height="50px" viewBox="0 0 50 50" version="1.1" xmlns="http://www.w3.org/2000/svg" xmlns:xlink="http://www.w3.org/1999/xlink" xmlns:sketch="http://www.bohemiancoding.com/sketch/ns">
    <!-- Generator: Sketch 3.4 (15588) - http://www.bohemiancoding.com/sketch -->
    <title>Rectangle 57</title>
    <desc>Created with Sketch.</desc>
    <defs></defs>
    <g id="About-Us" stroke="none" stroke-width="1" fill="none" fill-rule="evenodd" sketch:type="MSPage">
        <g id="About-Us---Desktop" sketch:type="MSArtboardGroup" transform="translate(-480.000000, -916.000000)" fill="#383838">
            <g id="Process" sketch:type="MSLayerGroup" transform="translate(179.000000, 686.000000)">
                <g id="TRELLO-+-Rectangle-39-+-Rectangle-57" transform="translate(238.000000, 217.000000)" sketch:type="MSShapeGroup">
                    <path d="M63,20.004933 C63,16.1362153 66.1277239,13 70.004933,13 L105.995067,13 C109.863785,13 113,16.1277239 113,20.004933 L113,55.995067 C113,59.8637847 109.872276,63 105.995067,63 L70.004933,63 C66.1362153,63 63,59.8722761 63,55.995067 L63,20.004933 Z M73,24.0023584 C73,22.3442017 74.3416228,21 75.997152,21 L82.002848,21 C83.6581293,21 85,22.3433124 85,24.0023584 L85,51.9976416 C85,53.6557983 83.6583772,55 82.002848,55 L75.997152,55 C74.3418707,55 73,53.6566876 73,51.9976416 L73,24.0023584 Z M91,23.9942021 C91,22.3405499 92.3416228,21 93.997152,21 L100.002848,21 C101.658129,21 103,22.343312 103,23.9942021 L103,38.0057979 C103,39.6594501 101.658377,41 100.002848,41 L93.997152,41 C92.3418707,41 91,39.656688 91,38.0057979 L91,23.9942021 Z" id="Rectangle-57"></path>
                </g>
            </g>
        </g>
    </g>
</svg>