<?xml version="1.0" encoding="UTF-8" standalone="no"?>
<svg width="46px" height="56px" viewBox="0 0 46 56" version="1.1" xmlns="http://www.w3.org/2000/svg" xmlns:xlink="http://www.w3.org/1999/xlink" xmlns:sketch="http://www.bohemiancoding.com/sketch/ns">
    <!-- Generator: Sketch 3.4.2 (15857) - http://www.bohemiancoding.com/sketch -->
    <title>Fill 16 + Fill 17</title>
    <desc>Created with Sketch.</desc>
    <defs></defs>
    <g id="Page-1" stroke="none" stroke-width="1" fill="none" fill-rule="evenodd" sketch:type="MSPage">
        <g id="Apple_User_Groups" sketch:type="MSLayerGroup" transform="translate(0.000000, -216.000000)" fill="#383838">
            <g id="Fill-16-+-Fill-17" transform="translate(0.000000, 216.000000)" sketch:type="MSShapeGroup">
                <path d="M37.9713286,29.2081811 C37.9048279,22.1468579 43.7411384,18.7448227 44.0036411,18.583821 C40.7276072,13.7782713 35.6140542,13.1202645 33.7922853,13.0432637 C29.4452403,12.6075092 25.3081975,15.6070402 23.1014246,15.6070402 C20.8999018,15.6070402 17.4926165,13.1097644 13.8893292,13.1815151 C9.14678011,13.2462658 4.77698485,15.9342936 2.33570957,20.1780876 C-2.58534139,28.7234261 1.07744654,41.3778071 5.87599623,48.3113789 C8.2192705,51.695914 11.0192995,55.5144535 14.6908375,55.3779521 C18.2311242,55.2379506 19.564638,53.0924284 23.8364322,53.0924284 C28.1117265,53.0924284 29.3122389,55.3779521 33.0572777,55.3062014 C36.8583171,55.2379506 39.2733421,51.8499156 41.6026162,48.4496303 C44.2923941,44.5120896 45.4019056,40.7005501 45.4666563,40.502798 C45.3844054,40.4730477 38.0483294,37.6572686 37.9713286,29.2081811" id="Fill-16"></path>
                <path d="M31.355486,8.91809236 C33.3067562,6.55381787 34.6157698,3.27253389 34.2570161,0 C31.448237,0.11200116 28.0427017,1.87426941 26.0319309,4.23154382 C24.2241622,6.3245655 22.6421458,9.66360008 23.0709002,12.8678833 C26.2034327,13.1111358 29.4024658,11.2788668 31.355486,8.91809236" id="Fill-17"></path>
            </g>
        </g>
    </g>
</svg>