<?xml version="1.0" encoding="utf-8"?>
<!-- Generator: Adobe Illustrator 16.0.0, SVG Export Plug-In . SVG Version: 6.00 Build 0)  -->
<!DOCTYPE svg PUBLIC "-//W3C//DTD SVG 1.1//EN" "http://www.w3.org/Graphics/SVG/1.1/DTD/svg11.dtd">
<svg version="1.1" id="Layer_1" xmlns="http://www.w3.org/2000/svg" xmlns:xlink="http://www.w3.org/1999/xlink" x="0px" y="0px"
	 width="30px" height="30px" viewBox="0 0 30 30" enable-background="new 0 0 30 30" xml:space="preserve">
<path fill="#E0E0E0" d="M16.114,0.266c-0.612-0.354-1.616-0.354-2.229,0L2.798,6.668c-0.613,0.354-1.115,1.223-1.115,1.93v12.804
	c0,0.708,0.502,1.577,1.115,1.931l11.088,6.402c0.612,0.354,1.616,0.354,2.229,0l11.088-6.402c0.613-0.354,1.115-1.223,1.115-1.931
	V8.598c0-0.708-0.502-1.576-1.115-1.93L16.114,0.266z M7.305,20.731C6.69,20.378,6.189,19.509,6.189,18.8v-7.599
	c0-0.708,0.501-1.578,1.115-1.931l6.581-3.8c0.612-0.354,1.616-0.354,2.229,0l6.581,3.8c0.613,0.354,1.115,1.223,1.115,1.931v6.734
	c0,0.709-0.579,1.289-1.287,1.289h-6.235c-0.709,0-1.288,0.578-1.288,1.286v3.378c0,0.708-0.502,0.997-1.114,0.645L7.305,20.731z"/>
</svg>
