<?xml version="1.0" encoding="UTF-8" standalone="no"?>
<svg width="28px" height="28px" viewBox="0 0 28 28" version="1.1" xmlns="http://www.w3.org/2000/svg" xmlns:xlink="http://www.w3.org/1999/xlink" xmlns:sketch="http://www.bohemiancoding.com/sketch/ns">
    <!-- Generator: Sketch 3.3.3 (12081) - http://www.bohemiancoding.com/sketch -->
    <title>Imported Layers</title>
    <desc>Created with Sketch.</desc>
    <defs></defs>
    <g id="Page-1" stroke="none" stroke-width="1" fill="none" fill-rule="evenodd" sketch:type="MSPage">
        <g id="Desktop-HD" sketch:type="MSArtboardGroup" transform="translate(-394.000000, -257.000000)" fill="#FFFFFF">
            <path d="M408,285 C400.271,285 394,278.728 394,271 C394,263.271 400.271,257 408,257 C415.729,257 422,263.271 422,271 C422,278.728 415.729,285 408,285 L408,285 Z M408.328,268.922 C402.166,270.763 396.26,270.616 396.06,270.616 C396.041,270.745 396.041,270.872 396.041,271 C396.041,274.062 397.208,276.868 399.104,278.984 C402.367,273.17 408.82,271.091 408.82,271.091 C408.984,271.036 409.147,271 409.294,270.944 C409.002,270.27 408.674,269.596 408.328,268.922 L408.328,268.922 Z M402.896,260.189 C399.56,261.758 397.081,264.839 396.297,268.539 C396.606,268.539 401.601,268.594 407.343,267.08 C405.266,263.398 403.06,260.408 402.896,260.189 L402.896,260.189 Z M410.114,272.933 C410.095,272.933 410.059,272.949 410.041,272.949 C410.041,272.949 402.95,275.43 400.653,280.425 C400.544,280.333 400.38,280.222 400.38,280.222 C402.458,281.919 405.102,282.958 408,282.958 C409.658,282.958 411.226,282.61 412.666,282.01 C412.484,280.953 411.791,277.308 410.114,272.933 L410.114,272.933 Z M405.102,259.406 C405.102,259.406 405.119,259.388 405.138,259.388 C405.119,259.388 405.119,259.388 405.102,259.406 L405.102,259.406 Z M408,259.041 C407.033,259.041 406.086,259.169 405.174,259.388 C405.356,259.625 407.616,262.596 409.658,266.352 C414.161,264.674 415.856,262.086 415.893,262.031 C413.796,260.172 411.025,259.041 408,259.041 L408,259.041 Z M417.241,263.398 C417.204,263.435 415.291,266.205 410.569,268.138 C410.844,268.703 411.117,269.286 411.372,269.869 C411.463,270.07 411.535,270.289 411.627,270.489 C415.747,269.961 419.812,270.853 419.958,270.872 C419.922,268.047 418.92,265.439 417.241,263.398 L417.241,263.398 Z M412.355,272.366 C413.925,276.687 414.562,280.204 414.69,280.916 C417.369,279.111 419.265,276.23 419.812,272.895 C419.556,272.822 416.221,271.766 412.355,272.366 L412.355,272.366 Z" id="Imported-Layers" sketch:type="MSShapeGroup"></path>
        </g>
    </g>
</svg>