<?xml version="1.0" encoding="UTF-8" standalone="no"?>
<svg width="294px" height="290px" viewBox="0 0 294 290" version="1.1" xmlns="http://www.w3.org/2000/svg" xmlns:xlink="http://www.w3.org/1999/xlink" xmlns:sketch="http://www.bohemiancoding.com/sketch/ns">
    <!-- Generator: Sketch 3.4 (15588) - http://www.bohemiancoding.com/sketch -->
    <title>Fill 39</title>
    <desc>Created with Sketch.</desc>
    <defs></defs>
    <g id="Page-1" stroke="none" stroke-width="1" fill="none" fill-rule="evenodd" sketch:type="MSPage">
        <g id="rails" sketch:type="MSLayerGroup" transform="translate(-286.000000, -13.000000)" fill="#383838">
            <g id="Fill-39" transform="translate(286.000000, 13.000000)" sketch:type="MSShapeGroup">
                <path d="M197.344,263.784 L190.767,247.825 L166.49,243.283 L172.883,261.649 L197.344,263.784 L197.344,263.784 Z M181.095,93.765 L191.732,108.38 L198.308,98.805 L189.025,84.391 L181.095,93.765 L181.095,93.765 Z M212.822,65.435 L218.037,77.906 L227.709,72.692 L224.131,61.183 L212.822,65.435 L212.822,65.435 Z M208.621,20.282 C151.41,17.5 48.998,71.721 34.293,289.241 L174.576,289.241 C143.12,207.753 146.769,146.267 168.398,104.601 C199.851,44.004 246.666,39.993 290.375,65.535 C291.92,61.864 294.045,57.215 294.045,57.215 C269.101,33.235 245.752,22.083 208.621,20.282 L208.621,20.282 Z M258.074,66.315 L269.965,66.896 L270.064,61.375 L257.683,58.859 L258.074,66.315 L258.074,66.315 Z M166.689,127.319 L162.72,140.962 L177.035,154.122 L180.613,141.443 L166.689,127.319 L166.689,127.319 Z M55.956,137.292 L33.716,127.618 L26.172,149.663 L48.998,158.174 L55.956,137.292 L55.956,137.292 Z M275.478,29.175 L259.236,17.566 L259.236,25.106 L274.896,34.787 L275.478,29.175 L275.478,29.175 Z M210.097,13.888 L206.427,1.716 L187.09,0.163 L192.695,13.506 L210.097,13.888 L210.097,13.888 Z M151.306,24.334 L139.898,9.446 L123.848,18.92 L137.191,33.434 L151.306,24.334 L151.306,24.334 Z M96.767,68.632 L78.977,55.471 L66.597,72.302 L86.13,84.491 L96.767,68.632 L96.767,68.632 Z M0,243.731 L27.206,246.829 L33.139,221.545 L7.091,216.92 L0,243.731 L0,243.731 Z M158.461,193.862 L179.351,203.435 L177.226,188.548 L158.17,178.302 L158.461,193.862 L158.461,193.862 Z"></path>
            </g>
        </g>
    </g>
</svg>