<?xml version="1.0" encoding="UTF-8" standalone="no"?>
<svg width="349px" height="348px" viewBox="0 0 349 348" version="1.1" xmlns="http://www.w3.org/2000/svg" xmlns:xlink="http://www.w3.org/1999/xlink" xmlns:sketch="http://www.bohemiancoding.com/sketch/ns">
    <!-- Generator: Sketch 3.3.3 (12081) - http://www.bohemiancoding.com/sketch -->
    <title>Shape</title>
    <desc>Created with Sketch.</desc>
    <defs></defs>
    <g id="Page-1" stroke="none" stroke-width="1" fill="none" fill-rule="evenodd" sketch:type="MSPage">
        <g id="icon_telephone" sketch:type="MSLayerGroup" transform="translate(-1.000000, 0.000000)" fill="#F8E71C">
            <path d="M341.273,275.083 L287.518,221.322 C276.811,210.658 259.08,210.982 248,222.066 L220.918,249.142 C219.207,248.199 217.436,247.214 215.574,246.169 C198.472,236.693 175.065,223.705 150.434,199.056 C125.73,174.355 112.73,150.912 103.225,133.799 C102.222,131.986 101.261,130.238 100.312,128.578 L118.488,110.429 L127.424,101.482 C138.521,90.382 138.827,72.656 128.145,61.961 L74.39,8.194 C63.708,-2.486 45.969,-2.162 34.872,8.938 L19.722,24.175 L20.136,24.586 C15.056,31.068 10.811,38.544 7.652,46.606 C4.74,54.28 2.927,61.603 2.098,68.941 C-5,127.785 21.89,181.564 94.866,254.541 C195.741,355.409 277.033,347.789 280.54,347.417 C288.178,346.504 295.498,344.679 302.937,341.79 C310.929,338.668 318.4,334.429 324.878,329.36 L325.209,329.654 L340.557,314.625 C351.631,303.527 351.95,285.795 341.273,275.083 L341.273,275.083 Z" id="Shape" sketch:type="MSShapeGroup"></path>
        </g>
    </g>
</svg>