<?xml version="1.0" encoding="UTF-8" standalone="no"?>
<svg width="50px" height="47px" viewBox="0 0 50 47" version="1.1" xmlns="http://www.w3.org/2000/svg" xmlns:xlink="http://www.w3.org/1999/xlink" xmlns:sketch="http://www.bohemiancoding.com/sketch/ns">
    <!-- Generator: Sketch 3.4 (15588) - http://www.bohemiancoding.com/sketch -->
    <title>Imported Layers</title>
    <desc>Created with Sketch.</desc>
    <defs></defs>
    <g id="About-Us" stroke="none" stroke-width="1" fill="none" fill-rule="evenodd" sketch:type="MSPage">
        <g id="About-Us---Desktop" sketch:type="MSArtboardGroup" transform="translate(-282.000000, -2440.000000)" fill="#383838">
            <g id="Our-Development-Stack" sketch:type="MSLayerGroup" transform="translate(218.000000, 1960.000000)">
                <g id="Applications" transform="translate(0.000000, 120.895658)" sketch:type="MSShapeGroup">
                    <g id="Rectangle-39-+-SKETCH-ïŒ-+-Imported-Layers" transform="translate(1.000000, 342.000000)">
                        <path d="M106.3308,23.0306 C106.1492,22.8568 105.9794,22.6708 105.8226,22.474 L96.4158,18 L79.5566,18 L71.038,22.2054 C70.743,22.1916 70.4446,22.3034 70.2356,22.5436 L70.1472,22.6454 L69.7478,22.8424 L69.9008,22.9284 L63,30.8592 L87.162,62.4634 L88.0114,63.8734 L88.8268,62.4514 L112.8826,30.5468 L106.2266,23.084 L106.3308,23.0306 L106.3308,23.0306 Z M80.0234,20 L95.9642,20 L102.13,22.9326 L95.3492,26.4 L80.152,26.4 L74.0322,22.9576 L80.0234,20 L80.0234,20 Z M99.9776,37 L75.2732,37 L79.9564,28.4 L95.124,28.4 L99.9776,37 L99.9776,37 Z M71.6808,23.9296 L78.136,27.5608 L73.2614,36.5126 L65.6412,30.8706 L71.6808,23.9296 L71.6808,23.9296 Z M69.7604,36.4088 L72.8356,38.6858 L77.7988,46.9232 L69.7604,36.4088 L69.7604,36.4088 Z M87.9686,59.9266 L75.36,39 L99.9642,39 L87.9686,59.9266 L87.9686,59.9266 Z M96.769,48.596 L102.4544,38.677 L106.563,35.6058 L96.769,48.596 L96.769,48.596 Z M110.118,30.452 L102.002,36.5182 L97.0644,27.7692 L104.386,24.0252 L110.118,30.452 L110.118,30.452 Z" id="Imported-Layers"></path>
                    </g>
                </g>
            </g>
        </g>
    </g>
</svg>