<?xml version="1.0" encoding="UTF-8" standalone="no"?>
<svg width="83px" height="97px" viewBox="0 0 83 97" version="1.1" xmlns="http://www.w3.org/2000/svg" xmlns:xlink="http://www.w3.org/1999/xlink" xmlns:sketch="http://www.bohemiancoding.com/sketch/ns">
    <!-- Generator: Sketch 3.4.2 (15857) - http://www.bohemiancoding.com/sketch -->
    <title>Fill 4</title>
    <desc>Created with Sketch.</desc>
    <defs></defs>
    <g id="Page-1" stroke="none" stroke-width="1" fill="none" fill-rule="evenodd" sketch:type="MSPage">
        <g id="android_logo" sketch:type="MSLayerGroup" transform="translate(-3.000000, -4.000000)" fill="#383838">
            <path d="M55.863,17.953 C57.508,17.953 58.842,19.287 58.842,20.932 C58.842,22.577 57.508,23.911 55.863,23.911 C54.219,23.911 52.885,22.577 52.885,20.932 C52.885,19.287 54.219,17.953 55.863,17.953 L55.863,17.953 Z M33.474,17.953 C35.119,17.953 36.453,19.287 36.453,20.932 C36.453,22.577 35.119,23.911 33.474,23.911 C31.829,23.911 30.495,22.577 30.495,20.932 C30.495,19.287 31.829,17.953 33.474,17.953 L33.474,17.953 Z M80.01,34.865 L80.01,34.865 C83.209,34.865 85.826,37.482 85.826,40.68 L85.826,63.942 C85.826,67.141 83.209,69.757 80.01,69.757 C76.811,69.757 74.193,67.141 74.193,63.942 L74.193,40.68 C74.193,37.482 76.811,34.865 80.01,34.865 L80.01,34.865 Z M9.328,34.865 L9.328,34.865 C12.526,34.865 15.143,37.482 15.143,40.68 L15.143,63.942 C15.143,67.141 12.526,69.757 9.328,69.757 C6.129,69.757 3.513,67.141 3.513,63.942 L3.513,40.68 C3.513,37.482 6.129,34.865 9.328,34.865 L9.328,34.865 Z M39.948,81.745 L39.948,94.672 C39.948,97.871 37.331,100.489 34.132,100.489 C30.934,100.489 28.317,97.871 28.317,94.672 L28.317,81.745 L23.438,81.745 C20.849,81.745 18.73,79.626 18.73,77.037 L18.73,34.664 L70.607,34.664 L70.607,77.037 C70.607,79.626 68.488,81.745 65.898,81.745 L61.02,81.745 L61.02,94.672 C61.02,97.871 58.404,100.489 55.205,100.489 C52.007,100.489 49.391,97.871 49.391,94.672 L49.391,81.745 L39.948,81.745 L39.948,81.745 Z M44.668,10.079 C48.584,10.079 52.293,10.799 55.621,12.087 L60.52,4.543 C60.781,4.138 61.324,4.023 61.729,4.286 C62.135,4.549 62.25,5.092 61.986,5.497 L57.257,12.781 C65.082,16.392 70.412,23.264 70.564,31.177 L18.772,31.177 C18.925,23.264 24.256,16.392 32.081,12.781 L27.351,5.497 C27.088,5.092 27.203,4.549 27.608,4.286 C28.014,4.023 28.556,4.138 28.819,4.543 L33.717,12.087 C37.044,10.8 40.754,10.079 44.668,10.079 L44.668,10.079 Z" id="Fill-4" sketch:type="MSShapeGroup"></path>
        </g>
    </g>
</svg>