<?xml version="1.0" encoding="UTF-8" standalone="no"?>
<svg width="256px" height="206px" viewBox="0 0 256 206" version="1.1" xmlns="http://www.w3.org/2000/svg" xmlns:xlink="http://www.w3.org/1999/xlink" xmlns:sketch="http://www.bohemiancoding.com/sketch/ns">
    <!-- Generator: Sketch 3.4 (15588) - http://www.bohemiancoding.com/sketch -->
    <title>Shape</title>
    <desc>Created with Sketch.</desc>
    <defs></defs>
    <g id="Page-1" stroke="none" stroke-width="1" fill="none" fill-rule="evenodd" sketch:type="MSPage">
        <path d="M28.2353511,103.30158 C26.8495116,104.591941 25.5410313,106.013846 24.304597,107.570837 C18.7159642,115.720927 16.6202269,125.035315 18.7159642,135.048282 C20.1131224,145.759828 25.934615,154.608497 34.5504239,160.895709 C42.4676538,167.182921 50.3848836,170.210097 59.6992717,170.210097 C55.2749373,171.607255 50.3848836,173.935852 45.9605493,174.634431 C34.5504239,176.730168 24.5374568,174.634431 15.2230687,167.41578 C6.37440004,160.19713 0.785767201,150.882742 0.087188097,139.472616 C-0.611391007,128.062491 2.88150451,116.419506 10.7987344,106.406539 C15.0038137,101.08835 19.6030303,96.9525733 24.6661635,93.894539 C20.3992295,81.8043889 17.1542478,69.1443022 15.2230687,56.1088431 C18.9488239,61.9303357 29.6603702,67.5189685 49.6863045,72.6418819 C72.0408358,77.5319357 100.682579,81.2576909 135.844394,81.2576909 C170.30763,81.2576909 198.949373,77.7647954 221.303904,72.6418819 C240.63126,68.2175476 251.342806,62.6289148 256,56.1088431 C251.575666,81.4905506 243.658436,105.24224 232.24831,125.966754 C223.632501,139.006897 215.016693,150.417022 206.400884,162.758586 C202.907988,169.977237 200.579391,177.195888 199.182233,184.414539 L198.483654,184.414539 C192.662161,192.331768 184.744931,197.221822 175.430543,200.248998 C162.856119,204.440473 149.117397,206.53621 136.077254,205.837631 L134.680096,205.837631 C121.639952,206.53621 108.832669,204.673333 96.4911045,200.248998 C86.4781373,197.454682 78.3280478,192.331768 72.739415,184.414539 C71.109397,177.195888 68.5479403,169.977237 64.8221851,162.758586 C56.2063761,150.417022 47.5905672,139.006897 38.9747582,125.966754 C35.0325928,118.726042 31.4239801,111.151777 28.2353511,103.30158 Z M101.614018,9.07118344 C101.846878,10.4683416 101.148299,11.6326402 98.8197015,12.7969387 C95.7925254,11.1669208 89.2724538,10.2354819 83.9166806,10.7012013 C78.0951881,11.1669208 73.2051344,13.0297984 73.9037135,16.9884133 C74.8351523,20.9470282 80.4237851,23.2756252 90.4367523,22.3441864 C114.887021,20.2484491 114.654161,3.7154103 150.514555,0.455374484 C178.457719,-2.10608223 194.059319,6.50972672 196.155057,16.9884133 C197.785075,25.1385028 191.032143,33.0557327 170.773349,34.6857506 C152.843152,36.3157685 142.364466,31.4257148 141.433027,26.535661 C140.967307,23.9742043 142.364466,20.2484491 150.980275,19.3170103 C151.911713,23.2756252 156.801767,27.4670999 168.444752,26.3028013 C176.827702,25.6042222 183.813493,22.5770461 182.882054,17.9198521 C181.950615,13.0297984 173.101946,10.2354819 159.130364,11.3997805 C130.721481,13.9612372 123.73569,29.5628372 99.5182806,31.6585745 C82.2866627,33.2885924 68.3150806,27.0013805 66.452203,17.6869924 C65.7536239,14.1940969 65.7536239,6.04400732 83.9166806,4.41398941 C93.2310687,3.7154103 100.682579,5.34542821 101.614018,9.07118344 Z M135.611534,52.6159476 C105.572633,52.6159476 78.7937672,49.5887715 59.466412,45.3972969 C38.7418985,40.2743834 27.7974926,34.6857506 27.7974926,27.4670999 C27.7974926,24.4399237 29.1946508,21.878467 33.3861254,18.8512909 C20.3459821,23.9742043 13.3601911,28.165679 13.3601911,34.6857506 C14.0587702,41.9044013 25.7017553,49.1230521 49.4534448,54.7116849 C71.8079761,60.3003178 100.449719,63.3274939 134.912955,63.3274939 C170.07477,63.3274939 198.017934,60.3003178 220.372466,54.7116849 C244.124155,49.1230521 255.534281,41.6715416 255.534281,34.6857506 C255.534281,29.5628372 250.411367,24.6727834 241.096979,20.9470282 C243.192716,22.3441864 244.822734,24.6727834 244.822734,27.2342402 C244.822734,34.4528909 234.111188,40.2743834 212.455236,45.1644372 C192.429302,49.5887715 166.814734,52.6159476 135.611534,52.6159476 Z" id="Shape" fill="#383838" sketch:type="MSShapeGroup"></path>
    </g>
</svg>