<?xml version="1.0" encoding="UTF-8" standalone="no"?>
<svg width="215px" height="182px" viewBox="0 0 215 182" version="1.1" xmlns="http://www.w3.org/2000/svg" xmlns:xlink="http://www.w3.org/1999/xlink" xmlns:sketch="http://www.bohemiancoding.com/sketch/ns">
    <!-- Generator: Sketch 3.4 (15588) - http://www.bohemiancoding.com/sketch -->
    <title>Fill 1</title>
    <desc>Created with Sketch.</desc>
    <defs></defs>
    <g id="About-Us" stroke="none" stroke-width="1" fill="none" fill-rule="evenodd" sketch:type="MSPage">
        <g id="Page-1" sketch:type="MSLayerGroup" transform="translate(0.000000, -222.000000)" fill="#383838">
            <g id="Group-3" sketch:type="MSShapeGroup">
                <path d="M98.9196618,401.249534 L67.23738,401.249534 C69.0283748,394.069758 70.787323,387.019973 72.4415558,380.387695 C68.8636285,384.425558 65.4170469,389.032134 61.2582199,392.866884 C50.6503674,402.647395 38.1012175,405.941417 24.0797327,402.23079 C13.9819165,399.55829 7.92421985,391.917675 6.61663119,381.562133 C5.46837247,372.464529 7.41824578,363.782628 9.57890401,355.080416 C13.7219334,338.391847 17.8017725,321.687933 21.9028255,304.989434 C22.0454551,304.409889 22.1339216,303.817254 22.2995706,302.96283 L-0.0003,302.96283 C2.30975824,294.403698 4.53721769,286.151943 6.78995327,277.806756 L60.5229552,277.806756 C60.3491817,278.642223 60.2273147,279.357627 60.0512844,280.059943 C53.0231647,308.023022 45.9535198,335.97572 39.0057421,363.95911 C38.1427426,367.435481 37.6331576,371.059899 37.479244,374.638277 C37.2535643,379.877659 40.2013936,382.783512 45.4935844,382.824134 C53.5440336,382.885068 60.4588621,379.769784 66.3955944,374.554776 C72.743064,368.979131 77.1564578,362.201967 79.1663619,353.808936 C83.0828089,337.452117 87.2971531,321.167064 91.379249,304.850416 C91.5232327,304.276286 91.5715282,303.678686 91.6933952,302.909569 L69.2513464,302.909569 C69.6155936,301.479211 69.9089773,300.269116 70.2316994,299.067145 C71.9843286,292.540938 73.758623,286.020597 75.4882328,279.488522 C75.7789084,278.389461 76.0555918,277.645621 77.5008451,277.651037 C92.8448135,277.709714 108.18833,277.692562 123.531847,277.702492 C123.75166,277.702492 123.97102,277.781931 124.411096,277.867238 C122.458966,286.803255 120.511801,295.717606 118.565087,304.631958 C118.656261,304.671226 118.747887,304.710043 118.838611,304.749311 C120.277996,302.605804 121.639297,300.404524 123.17076,298.328721 C129.752485,289.408051 137.659853,281.997178 148.043831,277.728671 C168.022811,269.515732 188.005402,280.685076 192.142563,302.283534 C193.975534,311.851454 193.064691,321.305631 190.553778,330.628914 C187.175803,343.16994 183.622249,355.664024 180.318748,368.224458 C179.661569,370.722733 179.467484,373.448493 179.624106,376.035235 C179.988804,382.073072 185.463796,384.737899 190.442292,381.268749 C192.360119,379.932273 194.120421,378.060937 195.308399,376.052387 C197.438816,372.450086 199.08989,368.563429 200.922861,364.787355 C201.278532,364.054347 201.552056,363.281168 201.937066,362.346854 C206.06836,363.936993 210.106223,365.491476 214.381049,367.137584 C210.178891,380.337594 205.268551,393.058261 192.248181,399.864312 C181.021966,405.732889 169.389528,405.395272 158.535233,398.5987 C151.013326,393.889214 148.484358,386.186312 148.027131,377.697592 C147.620005,370.133709 149.656088,362.968376 151.693976,355.800786 C154.30148,346.629159 157.031754,337.485517 159.315182,328.232646 C160.272516,324.353211 160.657977,320.20973 160.534756,316.210233 C160.26394,307.425422 153.949871,301.479211 145.147908,301.094201 C135.701404,300.681207 128.636273,304.704626 123.601357,312.562796 C119.514296,318.940958 117.721496,326.162711 115.917863,333.384916 C110.367494,355.603993 104.804488,377.819911 99.2455434,400.036731 C99.157077,400.390597 99.0564238,400.741303 98.9196618,401.249534 Z M28.7006165,241.023028 C28.6658618,230.356047 37.1446512,221.982425 47.9637399,222.000028 C58.6717942,222.017631 67.1365914,230.335285 67.169992,240.873176 C67.2033927,251.467488 58.5991253,259.984192 47.8874602,259.958916 C37.2349231,259.934091 28.7349198,251.545573 28.7006165,241.023028 Z" id="Fill-1"></path>
            </g>
        </g>
    </g>
</svg>