<?xml version="1.0" encoding="UTF-8" standalone="no"?>
<svg width="328px" height="48px" viewBox="0 0 328 48" version="1.1" xmlns="http://www.w3.org/2000/svg" xmlns:xlink="http://www.w3.org/1999/xlink" xmlns:sketch="http://www.bohemiancoding.com/sketch/ns">
    <!-- Generator: Sketch 3.3.2 (12043) - http://www.bohemiancoding.com/sketch -->
    <title>Logo</title>
    <desc>Created with Sketch.</desc>
    <defs></defs>
    <g id="Page-1" stroke="none" stroke-width="1" fill="none" fill-rule="evenodd" sketch:type="MSPage">
        <g id="Desktop" sketch:type="MSArtboardGroup" transform="translate(-146.000000, -53.000000)" fill="#FFFFFF">
            <g id="Logo" sketch:type="MSLayerGroup" transform="translate(146.000000, 53.000000)">
                <path d="M75.4708787,12.4793143 C81.376251,12.4793143 84.7749623,15.3812571 84.7749623,20.5254857 C84.7749623,25.9316571 81.376251,29.0633143 75.4708787,29.0633143 L71.2803013,29.0633143 L71.2803013,35.5577143 L65.4078661,35.5577143 L65.4078661,12.4793143 L75.4708787,12.4793143 L75.4708787,12.4793143 Z M71.2803013,24.4484571 L75.1737573,24.4484571 C77.7469791,24.4484571 79.2318996,23.1613714 79.2318996,20.7222857 C79.2318996,18.3154286 77.7469791,17.0955429 75.1737573,17.0955429 L71.2803013,17.0955429 L71.2803013,24.4484571 L71.2803013,24.4484571 Z" id="Fill-1" sketch:type="MSShapeGroup"></path>
                <path d="M96.5863933,31.3056 L94.9038494,35.5577143 L88.8660418,35.5577143 L98.8295565,12.4793143 L104.867364,12.4793143 L114.600318,35.5577143 L108.33195,35.5577143 L106.682343,31.3056 L96.5863933,31.3056 L96.5863933,31.3056 Z M101.667649,18.3154286 L98.3018745,26.8539429 L104.966176,26.8539429 L101.667649,18.3154286 L101.667649,18.3154286 Z" id="Fill-2" sketch:type="MSShapeGroup"></path>
                <path d="M121.95836,12.4793143 L127.830795,12.4793143 L127.830795,35.5577143 L121.95836,35.5577143 L121.95836,12.4793143 Z" id="Fill-3" sketch:type="MSShapeGroup"></path>
                <path d="M148.151699,29.0633143 L143.532251,29.0633143 L143.532251,35.5577143 L137.659816,35.5577143 L137.659816,12.4793143 L147.987013,12.4793143 C154.090008,12.4793143 157.587531,15.3812571 157.587531,20.5254857 C157.587531,24.0521143 156.102611,26.5913143 153.396954,27.9428571 L158.246962,35.5577143 L151.582661,35.5577143 L148.151699,29.0633143 L148.151699,29.0633143 Z M147.987013,24.4484571 C150.527297,24.4484571 152.011531,23.1613714 152.011531,20.7222857 C152.011531,18.3154286 150.527297,17.0955429 147.987013,17.0955429 L143.532251,17.0955429 L143.532251,24.4484571 L147.987013,24.4484571 L147.987013,24.4484571 Z" id="Fill-4" sketch:type="MSShapeGroup"></path>
                <path d="M183.529724,14.5241143 L182.407799,16.9968 C180.32795,15.6109714 177.887163,15.0507429 176.039247,15.0507429 C173.070778,15.0507429 171.124736,16.1718857 171.124736,18.1172571 C171.124736,24.0521143 184.121908,20.9526857 184.089657,29.3273143 C184.089657,33.1858286 180.692318,35.6571429 175.741439,35.6571429 C172.376351,35.6571429 169.077824,34.2075429 166.900536,32.1298286 L168.087649,29.7558857 C170.232,31.8329143 173.168218,33.0198857 175.775063,33.0198857 C179.107213,33.0198857 181.18569,31.6683429 181.18569,29.4589714 C181.219314,23.3931429 168.220084,26.6242286 168.220084,18.3483429 C168.220084,14.7209143 171.421172,12.3812571 176.205305,12.3812571 C178.876653,12.3812571 181.614561,13.2384 183.529724,14.5241143" id="Fill-5" sketch:type="MSShapeGroup"></path>
                <path d="M209.880887,35.5577143 L209.880887,25.4029714 L195.958728,25.4029714 L195.958728,35.5577143 L193.317573,35.5577143 L193.317573,12.4793143 L195.958728,12.4793143 L195.958728,22.8973714 L209.880887,22.8973714 L209.880887,12.4793143 L212.518611,12.4793143 L212.518611,35.5577143 L209.880887,35.5577143" id="Fill-6" sketch:type="MSShapeGroup"></path>
                <path d="M226.73995,29.7229714 L224.166728,35.5577143 L221.362946,35.5577143 L231.722393,12.4793143 L234.461674,12.4793143 L244.786812,35.5577143 L241.917841,35.5577143 L239.344619,29.7229714 L226.73995,29.7229714 L226.73995,29.7229714 Z M233.010377,15.4806857 L227.861188,27.1844571 L238.222695,27.1844571 L233.010377,15.4806857 L233.010377,15.4806857 Z" id="Fill-7" sketch:type="MSShapeGroup"></path>
                <path d="M260.913707,12.4793143 C266.62077,12.4793143 269.921356,15.3140571 269.921356,20.2285714 C269.921356,25.3392 266.62077,28.272 260.913707,28.272 L254.877272,28.272 L254.877272,35.5577143 L252.236117,35.5577143 L252.236117,12.4793143 L260.913707,12.4793143 L260.913707,12.4793143 Z M254.877272,25.7328 L260.816268,25.7328 C264.971163,25.7328 267.380385,23.8882286 267.380385,20.2937143 C267.380385,16.7993143 264.971163,15.0185143 260.816268,15.0185143 L254.877272,15.0185143 L254.877272,25.7328 L254.877272,25.7328 Z" id="Fill-8" sketch:type="MSShapeGroup"></path>
                <path d="M282.163029,15.0185143 L282.163029,22.6011429 L293.808402,22.6011429 L293.808402,25.1396571 L282.163029,25.1396571 L282.163029,33.0521143 L295.622008,33.0521143 L295.622008,35.5577143 L279.521874,35.5577143 L279.521874,12.4793143 L295.193824,12.4793143 L295.193824,15.0185143 L282.163029,15.0185143" id="Fill-9" sketch:type="MSShapeGroup"></path>
                <path d="M315.55041,12.4793143 C322.281272,12.4793143 327.427715,17.4582857 327.427715,24.0185143 C327.427715,30.5801143 322.249021,35.5577143 315.448854,35.5577143 L306.213389,35.5577143 L306.213389,12.4793143 L315.55041,12.4793143 L315.55041,12.4793143 Z M308.852485,33.0521143 L315.582661,33.0521143 C320.729105,33.0521143 324.756368,29.1970286 324.756368,24.0521143 C324.756368,18.8763429 320.665289,15.0185143 315.485222,15.0185143 L308.852485,15.0185143 L308.852485,33.0521143 L308.852485,33.0521143 Z" id="Fill-10" sketch:type="MSShapeGroup"></path>
                <path d="M23.0574393,0.903771429 C22.0947113,0.346971429 20.5198996,0.346971429 19.5571715,0.903771429 L2.149841,10.9474286 C1.18711297,11.5028571 0.399364017,12.8660571 0.399364017,13.9755429 L0.399364017,34.0628571 C0.399364017,35.1730286 1.18711297,36.5382857 2.149841,37.0923429 L19.5571715,47.136 C20.5198996,47.6900571 22.0947113,47.6900571 23.0574393,47.136 L40.4640837,37.0923429 C41.4268117,36.5382857 42.2145607,35.1730286 42.2145607,34.0628571 L42.2145607,13.9755429 C42.2145607,12.8660571 41.4268117,11.5028571 40.4640837,10.9474286 L23.0574393,0.903771429 L23.0574393,0.903771429 Z M9.22517155,33.0116571 C8.26244351,32.4562286 7.47469456,31.0916571 7.47469456,29.9814857 L7.47469456,18.0582857 C7.47469456,16.9467429 8.26244351,15.5835429 9.22517155,15.0288 L19.5571715,9.0672 C20.5198996,8.51245714 22.0947113,8.51245714 23.0574393,9.0672 L33.3887531,15.0288 C34.3514812,15.5835429 35.1399163,16.9467429 35.1399163,18.0582857 L35.1399163,28.6244571 C35.1399163,29.736 34.2300251,30.6438857 33.1190795,30.6438857 L23.3291715,30.6438857 C22.2168536,30.6438857 21.3069623,31.5531429 21.3069623,32.6633143 L21.3069623,37.9618286 C21.3069623,39.0733714 20.5198996,39.5266286 19.5571715,38.9725714 L9.22517155,33.0116571 L9.22517155,33.0116571 Z" id="Fill-11" sketch:type="MSShapeGroup"></path>
            </g>
        </g>
    </g>
</svg>