<?xml version="1.0" encoding="UTF-8" standalone="no"?>
<svg width="278px" height="39px" viewBox="0 0 278 39" version="1.1" xmlns="http://www.w3.org/2000/svg" xmlns:xlink="http://www.w3.org/1999/xlink" xmlns:sketch="http://www.bohemiancoding.com/sketch/ns">
    <!-- Generator: Sketch 3.4 (15588) - http://www.bohemiancoding.com/sketch -->
    <title>Pair Shaped Logo</title>
    <desc>Created with Sketch.</desc>
    <defs></defs>
    <g id="Homepage" stroke="none" stroke-width="1" fill="none" fill-rule="evenodd" sketch:type="MSPage">
        <g id="Homepage---Desktop" sketch:type="MSArtboardGroup" transform="translate(-73.000000, -157.000000)" fill="#9B59B6">
            <g id="Navigation---Desktop-(transparent)" sketch:type="MSLayerGroup">
                <g id="Pair-Shaped-Logo" transform="translate(73.000000, 157.000000)" sketch:type="MSShapeGroup">
                    <path d="M63.3134921,10 C68.1921769,10 71,12.3891134 71,16.6242572 C71,21.0750535 68.1921769,23.6532862 63.3134921,23.6532862 L59.8514739,23.6532862 L59.8514739,29 L55,29 L55,10 L63.3134921,10 L63.3134921,10 Z M59.8514739,19.8539636 L63.0680272,19.8539636 C65.1938776,19.8539636 66.4206349,18.7943309 66.4206349,16.7862788 C66.4206349,14.8047599 65.1938776,13.8004516 63.0680272,13.8004516 L59.8514739,13.8004516 L59.8514739,19.8539636 L59.8514739,19.8539636 Z" id="Fill-1"></path>
                    <path d="M81.6000587,25.4993166 L80.1616671,29 L75,29 L83.5177186,10 L88.6793856,10 L97,29 L91.6412287,29 L90.2309949,25.4993166 L81.6000587,25.4993166 L81.6000587,25.4993166 Z M85.9439778,14.8047599 L83.066608,21.8343535 L88.7638589,21.8343535 L85.9439778,14.8047599 L85.9439778,14.8047599 Z" id="Fill-2"></path>
                    <path d="M103,10 L108,10 L108,29 L103,29 L103,10 Z" id="Fill-3"></path>
                    <path d="M125.663756,23.6532862 L121.84921,23.6532862 L121.84921,29 L117,29 L117,10 L125.527765,10 C130.567362,10 133.45547,12.3891134 133.45547,16.6242572 C133.45547,19.5276622 132.229285,21.6181364 129.995067,22.7308355 L134,29 L128.4969,29 L125.663756,23.6532862 L125.663756,23.6532862 Z M125.527765,19.8539636 C127.625425,19.8539636 128.851043,18.7943309 128.851043,16.7862788 C128.851043,14.8047599 127.625425,13.8004516 125.527765,13.8004516 L121.84921,13.8004516 L121.84921,19.8539636 L125.527765,19.8539636 L125.527765,19.8539636 Z" id="Fill-4"></path>
                    <path d="M155.511327,11.7492046 L154.532288,13.7676467 C152.717324,12.6364011 150.587392,12.1790891 148.974822,12.1790891 C146.384412,12.1790891 144.686215,13.0942729 144.686215,14.6822708 C144.686215,19.5268678 156.028091,16.9968183 155.999948,23.8329896 C155.999948,26.9826774 153.035287,29 148.714943,29 C145.778426,29 142.899993,27.8166981 141,26.1206693 L142.035925,24.1828305 C143.907175,25.8782996 146.469442,26.8472189 148.744284,26.8472189 C151.652059,26.8472189 153.465825,25.7439606 153.465825,23.9404608 C153.495166,18.9889524 142.151493,21.626473 142.151493,14.870905 C142.151493,11.9098515 144.944896,10 149.119732,10 C151.450862,10 153.840075,10.6996818 155.511327,11.7492046" id="Fill-5"></path>
                    <path d="M177.802016,29 L177.802016,20.6397968 L166.200843,20.6397968 L166.200843,29 L164,29 L164,10 L166.200843,10 L166.200843,18.5769848 L177.802016,18.5769848 L177.802016,10 L180,10 L180,29 L177.802016,29" id="Fill-6"></path>
                    <path d="M192.591048,24.1963691 L190.393954,29 L188,29 L196.845207,10 L199.184087,10 L208,29 L205.550387,29 L203.353293,24.1963691 L192.591048,24.1963691 L192.591048,24.1963691 Z M197.944926,12.470971 L193.548395,22.1064595 L202.39536,22.1064595 L197.944926,12.470971 L197.944926,12.470971 Z" id="Fill-7"></path>
                    <path d="M221.360028,10 C226.200559,10 229,12.3337889 229,16.3798134 C229,20.587295 226.200559,23.0018125 221.360028,23.0018125 L216.240135,23.0018125 L216.240135,29 L214,29 L214,10 L221.360028,10 L221.360028,10 Z M216.240135,20.9113382 L221.277383,20.9113382 C224.80142,20.9113382 226.844838,19.3927383 226.844838,16.4334443 C226.844838,13.5565724 224.80142,12.0904742 221.277383,12.0904742 L216.240135,12.0904742 L216.240135,20.9113382 L216.240135,20.9113382 Z" id="Fill-8"></path>
                    <path d="M239.296637,12.0904742 L239.296637,18.3331055 L249.422964,18.3331055 L249.422964,20.4230152 L239.296637,20.4230152 L239.296637,26.937188 L251,26.937188 L251,29 L237,29 L237,10 L250.627669,10 L250.627669,12.0904742 L239.296637,12.0904742" id="Fill-9"></path>
                    <path d="M267.922306,10 C273.633329,10 278,14.0990908 278,19.5 C278,24.9020383 273.605965,29 267.836137,29 L260,29 L260,10 L267.922306,10 L267.922306,10 Z M262.239229,26.937188 L267.94967,26.937188 C272.316341,26.937188 275.733407,23.7633706 275.733407,19.5276622 C275.733407,15.2665498 272.262194,12.0904742 267.866994,12.0904742 L262.239229,12.0904742 L262.239229,26.937188 L262.239229,26.937188 Z" id="Fill-10"></path>
                    <path d="M18.9651777,0.346037851 C18.1593587,-0.11534595 16.8412157,-0.11534595 16.0353966,0.346037851 L1.46517772,8.66856069 C0.659358692,9.12880808 0,10.2584029 0,11.1777613 L0,27.8228069 C0,28.7427335 0.659358692,29.874033 1.46517772,30.3331439 L16.0353966,38.6556668 C16.8412157,39.1147777 18.1593587,39.1147777 18.9651777,38.6556668 L33.5348223,30.3331439 C34.3406413,29.874033 35,28.7427335 35,27.8228069 L35,11.1777613 C35,10.2584029 34.3406413,9.12880808 33.5348223,8.66856069 L18.9651777,0.346037851 L18.9651777,0.346037851 Z M7.38734451,26.9517461 C6.58152548,26.4914988 5.92216679,25.3607675 5.92216679,24.4408409 L5.92216679,14.5608637 C5.92216679,13.6398007 6.58152548,12.5102059 7.38734451,12.0505267 L16.0353966,7.11053805 C16.8412157,6.65085887 18.1593587,6.65085887 18.9651777,7.11053805 L27.6126555,12.0505267 C28.4184745,12.5102059 29.0784076,13.6398007 29.0784076,14.5608637 L29.0784076,23.31636 C29.0784076,24.237423 28.3168138,24.9897286 27.3869343,24.9897286 L19.192622,24.9897286 C18.2615938,24.9897286 17.5,25.7431706 17.5,26.6630972 L17.5,31.05363 C17.5,31.9746929 16.8412157,32.3502775 16.0353966,31.8911666 L7.38734451,26.9517461 L7.38734451,26.9517461 Z" id="Fill-11"></path>
                </g>
            </g>
        </g>
    </g>
</svg>