<?xml version="1.0" encoding="UTF-8" standalone="no"?>
<svg width="180px" height="26px" viewBox="0 0 180 26" version="1.1" xmlns="http://www.w3.org/2000/svg" xmlns:xlink="http://www.w3.org/1999/xlink" xmlns:sketch="http://www.bohemiancoding.com/sketch/ns">
    <!-- Generator: Sketch 3.4 (15588) - http://www.bohemiancoding.com/sketch -->
    <title>Pair Shaped Logo</title>
    <desc>Created with Sketch.</desc>
    <defs></defs>
    <g id="Blog-Detail-/-Project-Detail" stroke="none" stroke-width="1" fill="none" fill-rule="evenodd" sketch:type="MSPage">
        <g id="Blog-Detail---Mobile" sketch:type="MSArtboardGroup" transform="translate(-20.000000, -17.000000)" fill="#FFFFFF">
            <g id="Navigation---Mobile" sketch:type="MSLayerGroup">
                <g id="Pair-Shaped-Logo" transform="translate(20.000000, 17.000000)" sketch:type="MSShapeGroup">
                    <path d="M41.4169456,6.75962857 C44.6576987,6.75962857 46.5228452,8.33151429 46.5228452,11.1179714 C46.5228452,14.0463143 44.6576987,15.7426286 41.4169456,15.7426286 L39.1172385,15.7426286 L39.1172385,19.2604286 L35.8945607,19.2604286 L35.8945607,6.75962857 L41.4169456,6.75962857 L41.4169456,6.75962857 Z M39.1172385,13.2429143 L41.2538912,13.2429143 C42.6660251,13.2429143 43.4809205,12.5457429 43.4809205,11.2245714 C43.4809205,9.92085714 42.6660251,9.26008571 41.2538912,9.26008571 L39.1172385,9.26008571 L39.1172385,13.2429143 L39.1172385,13.2429143 Z" id="Fill-1"></path>
                    <path d="M53.004728,16.9572 L52.0813808,19.2604286 L48.7679498,19.2604286 L54.2357322,6.75962857 L57.5491632,6.75962857 L62.8904184,19.2604286 L59.4504603,19.2604286 L58.5451883,16.9572 L53.004728,16.9572 L53.004728,16.9572 Z M55.7932218,9.92085714 L53.9461506,14.5458857 L57.6033891,14.5458857 L55.7932218,9.92085714 L55.7932218,9.92085714 Z" id="Fill-2"></path>
                    <path d="M66.9283682,6.75962857 L70.151046,6.75962857 L70.151046,19.2604286 L66.9283682,19.2604286 L66.9283682,6.75962857 Z" id="Fill-3"></path>
                    <path d="M81.3027615,15.7426286 L78.7676987,15.7426286 L78.7676987,19.2604286 L75.5450209,19.2604286 L75.5450209,6.75962857 L81.2123849,6.75962857 C84.56159,6.75962857 86.4809623,8.33151429 86.4809623,11.1179714 C86.4809623,13.0282286 85.6660669,14.4036286 84.1812552,15.1357143 L86.8428452,19.2604286 L83.1856067,19.2604286 L81.3027615,15.7426286 L81.3027615,15.7426286 Z M81.2123849,13.2429143 C82.6064435,13.2429143 83.4209623,12.5457429 83.4209623,11.2245714 C83.4209623,9.92085714 82.6064435,9.26008571 81.2123849,9.26008571 L78.7676987,9.26008571 L78.7676987,13.2429143 L81.2123849,13.2429143 L81.2123849,13.2429143 Z" id="Fill-4"></path>
                    <path d="M100.717531,7.86722857 L100.101841,9.2066 C98.9604603,8.45594286 97.6210042,8.15248571 96.6069038,8.15248571 C94.9778661,8.15248571 93.9099163,8.75977143 93.9099163,9.81351429 C93.9099163,13.0282286 101.04251,11.3493714 101.024812,15.8856286 C101.024812,17.9756571 99.1604184,19.3142857 96.4434728,19.3142857 C94.5967782,19.3142857 92.7866109,18.5290857 91.5917573,17.4036571 L92.2432218,16.1177714 C93.42,17.2428286 95.0313389,17.8857714 96.4619247,17.8857714 C98.2905439,17.8857714 99.4311715,17.1536857 99.4311715,15.9569429 C99.4496234,12.6712857 92.3158996,14.4214571 92.3158996,9.93868571 C92.3158996,7.97382857 94.0725941,6.70651429 96.6980335,6.70651429 C98.1640167,6.70651429 99.6665272,7.1708 100.717531,7.86722857" id="Fill-5"></path>
                    <path d="M115.178536,19.2604286 L115.178536,13.7599429 L107.538326,13.7599429 L107.538326,19.2604286 L106.088912,19.2604286 L106.088912,6.75962857 L107.538326,6.75962857 L107.538326,12.4027429 L115.178536,12.4027429 L115.178536,6.75962857 L116.626067,6.75962857 L116.626067,19.2604286 L115.178536,19.2604286" id="Fill-6"></path>
                    <path d="M124.43046,16.0999429 L123.018326,19.2604286 L121.479665,19.2604286 L127.164728,6.75962857 L128.667992,6.75962857 L134.334226,19.2604286 L132.759791,19.2604286 L131.347657,16.0999429 L124.43046,16.0999429 L124.43046,16.0999429 Z M127.871548,8.38537143 L125.045774,14.7249143 L130.731967,14.7249143 L127.871548,8.38537143 L127.871548,8.38537143 Z" id="Fill-7"></path>
                    <path d="M143.184351,6.75962857 C146.316276,6.75962857 148.127573,8.29511429 148.127573,10.9571429 C148.127573,13.7254 146.316276,15.314 143.184351,15.314 L139.871674,15.314 L139.871674,19.2604286 L138.422259,19.2604286 L138.422259,6.75962857 L143.184351,6.75962857 L143.184351,6.75962857 Z M139.871674,13.9386 L143.130879,13.9386 C145.411004,13.9386 146.733138,12.9394571 146.733138,10.9924286 C146.733138,9.09962857 145.411004,8.13502857 143.130879,8.13502857 L139.871674,8.13502857 L139.871674,13.9386 L139.871674,13.9386 Z" id="Fill-8"></path>
                    <path d="M154.845565,8.13502857 L154.845565,12.2422857 L161.236318,12.2422857 L161.236318,13.6173143 L154.845565,13.6173143 L154.845565,17.9032286 L162.23159,17.9032286 L162.23159,19.2604286 L153.396151,19.2604286 L153.396151,6.75962857 L161.996611,6.75962857 L161.996611,8.13502857 L154.845565,8.13502857" id="Fill-9"></path>
                    <path d="M173.167908,6.75962857 C176.861674,6.75962857 179.685941,9.45657143 179.685941,13.0100286 C179.685941,16.5642286 176.843975,19.2604286 173.112176,19.2604286 L168.043933,19.2604286 L168.043933,6.75962857 L173.167908,6.75962857 L173.167908,6.75962857 Z M169.492218,17.9032286 L173.185607,17.9032286 C176.009874,17.9032286 178.219958,15.8150571 178.219958,13.0282286 C178.219958,10.2246857 175.974854,8.13502857 173.132134,8.13502857 L169.492218,8.13502857 L169.492218,17.9032286 L169.492218,17.9032286 Z" id="Fill-10"></path>
                    <path d="M12.6534728,0.489542857 C12.1251464,0.187942857 11.2609205,0.187942857 10.7325941,0.489542857 L1.17979079,5.92985714 C0.651464435,6.23071429 0.21916318,6.96911429 0.21916318,7.57008571 L0.21916318,18.4507143 C0.21916318,19.0520571 0.651464435,19.7915714 1.17979079,20.0916857 L10.7325941,25.532 C11.2609205,25.8321143 12.1251464,25.8321143 12.6534728,25.532 L22.2058996,20.0916857 C22.7342259,19.7915714 23.1665272,19.0520571 23.1665272,18.4507143 L23.1665272,7.57008571 C23.1665272,6.96911429 22.7342259,6.23071429 22.2058996,5.92985714 L12.6534728,0.489542857 L12.6534728,0.489542857 Z M5.06259414,17.8813143 C4.53426778,17.5804571 4.10196653,16.8413143 4.10196653,16.2399714 L4.10196653,9.78157143 C4.10196653,9.17948571 4.53426778,8.44108571 5.06259414,8.1406 L10.7325941,4.9114 C11.2609205,4.61091429 12.1251464,4.61091429 12.6534728,4.9114 L18.3230962,8.1406 C18.8514226,8.44108571 19.2841004,9.17948571 19.2841004,9.78157143 L19.2841004,15.5049143 C19.2841004,16.107 18.7847699,16.5987714 18.1751046,16.5987714 L12.8025941,16.5987714 C12.1921757,16.5987714 11.6928452,17.0912857 11.6928452,17.6926286 L11.6928452,20.5626571 C11.6928452,21.1647429 11.2609205,21.4102571 10.7325941,21.1101429 L5.06259414,17.8813143 L5.06259414,17.8813143 Z" id="Fill-11"></path>
                </g>
            </g>
        </g>
    </g>
</svg>